<svg height="512" width="512" xmlns="http://www.w3.org/2000/svg"><path d="M43.083 293.214C28.3 308.022 2.934 299.021 1.051 278.25c-6.574-72.531 17.683-147.423 72.797-202.9C159.73-11.119 292.593-23.192 391.48 39.263c4.533 2.865 10.472 2.123 14.272-1.684l21.929-21.965c7.267-7.279 19.703-2.187 19.704 8.083l.096 92.716c.004 6.374-5.177 11.563-11.559 11.579l-92.848.192c-10.275.022-15.42-12.374-8.145-19.661l17.803-17.833c5.482-5.491 4.149-14.758-2.723-18.319-78.058-40.465-176.87-27.591-241.855 38.5-43.787 44.543-63.104 104.434-57.946 162.483.652 7.343-1.899 14.625-7.125 19.86z" fill="#b3e59f"/><path d="M366.785 25.544a252.677 252.677 0 00-13.009-5.862 250.162 250.162 0 016.799 4.129 11.271 11.271 0 006.21 1.733zM353.5 75.174l-.043-.038.027.034a.124.124 0 00.016.004zM50.208 273.352c-3.641-41.822 5.221-86.06 28.601-124.674 56.62-94.672 178.259-125.491 272.139-75.747C215.714-41.961 60.943 71.521 28.834 174.806c-18.905 54.05-2.248 93.032-16.657 102.955-2.981 2.986-6.396 4.989-9.958 6.137 4.729 15.723 28.148 23.147 40.864 9.316 4.035-3.828 7.956-12.014 7.125-19.862zM447.386 23.697c-.001-10.269-12.437-15.362-19.704-8.083L416.5 26.815l.077 74.145c.004 6.374-5.177 11.563-11.559 11.579l-72.784.15c-2.63 7.051 2.35 15.512 10.841 15.494l92.849-.192c6.382-.016 11.563-5.205 11.559-11.579z" fill="#95d6a4"/><path d="M462.756 182.25c13.514-13.536 36.656-7.366 41.361 11.099 24.384 95.71-8.288 201.491-91.161 265.489-96.475 74.481-229.698 69.033-319.451-5.894-4.112-3.429-10.09-3.486-14.358-.208l-24.614 18.911c-8.163 6.261-19.805-.418-18.466-10.605l12.105-91.977c.837-6.329 6.651-10.793 12.986-9.969l92.008 11.997c10.187 1.332 13.643 14.297 5.488 20.566l-19.99 15.355c-6.163 4.734-6.051 14.1.289 18.526 72.01 50.384 171.606 50.587 244.672-6.444 66.15-51.628 92.18-136.501 72.654-213.316-2.142-8.419.316-17.359 6.477-23.53z" fill="#b3e59f"/><path d="M504.116 193.349c-4.467-17.533-25.551-23.968-39.238-12.986 3.91 3.121 6.937 7.507 8.332 12.986 24.384 95.71-8.288 201.491-91.162 265.489-42.012 32.434-90.992 49.705-140.316 52.688 59.456 3.57 120.431-13.476 171.222-52.688 82.874-63.998 115.546-169.779 91.162-265.489z" fill="#95d6a4"/><path d="M329.331 251.889c10.016-54.526-33.459-120.572-111.673-147.196-4.198-1.429-8.394 2.063-7.74 6.449 1.411 9.464 1.911 21.2-.584 34.128-3.618 18.744-10.933 26.525-17.58 42.628-8.537 20.679-14.119 50.578-7.776 72.997 13.717 48.48 83.628 63.63 88.857 64.694 12.396-7.633 48.902-32.361 56.496-73.7z" fill="#b3e59f"/><path d="M217.658 104.693c-4.197-1.429-8.394 2.064-7.74 6.449.157 1.055.301 2.143.433 3.253 63.2 30.753 97.034 88.728 88.075 137.494-6.15 33.478-31.257 56.058-47.169 67.49 11.279 4.014 19.872 5.863 21.579 6.21 12.396-7.633 48.902-32.361 56.496-73.7 10.015-54.526-33.46-120.572-111.674-147.196z" fill="#95d6a4"/><path d="M288.758 231.093c7.152-11.667 8.691-23.355 8.722-31.106a7.727 7.727 0 00-7.695-7.758h-.032a7.727 7.727 0 00-7.725 7.695c-.025 6.126-1.756 16.244-7.476 24.695-5.014-20.139-12.349-39.727-21.988-58.557a7.724 7.724 0 00-10.397-3.357 7.724 7.724 0 00-3.357 10.397c12.481 24.384 20.9 50.097 25.123 76.66a149.604 149.604 0 00-36.836-25.053c-3.843-1.848-8.462-.228-10.312 3.616a7.729 7.729 0 003.616 10.312 134.474 134.474 0 0129.368 19.181 134.522 134.522 0 0116.896 17.417c3.147 55.293-12.475 100.428-26.492 128.991a7.727 7.727 0 003.533 10.34c3.759 1.845 8.437.344 10.34-3.533 23.946-48.788 36.373-99.195 24.492-167.522a58.441 58.441 0 0010.22-12.418z" fill="#78c2a4"/></svg>