<svg height="512" width="512" xmlns="http://www.w3.org/2000/svg"><path d="M256 512c-1.523 0-3.047-.232-4.517-.696-58.558-18.492-108.696-54.446-144.997-103.976C70.187 357.797 51 299.159 51 237.751V85c0-8.284 6.716-15 15-15 43.325 0 82.715-23.756 102.886-61.998A15 15 0 01182.153 0h147.693a15 15 0 0113.268 8.002C363.285 46.244 402.675 70 445.91 70c8.284 0 15.09 6.716 15.09 15v152.751c0 61.408-19.187 120.046-55.486 169.576-36.301 49.53-86.439 85.484-144.997 103.976-1.47.465-2.994.697-4.517.697z" fill="#9ddff6"/><path d="M445.91 70c-43.235 0-82.625-23.756-102.796-61.998A14.998 14.998 0 00329.847 0H256v512c1.523 0 3.047-.232 4.517-.696 58.558-18.492 108.696-54.446 144.997-103.976C441.813 357.797 461 299.159 461 237.751V85c0-8.284-6.806-15-15.09-15z" fill="#6ba7ff"/><path d="M256 448.182a15 15 0 01-5.773-1.155C165.649 411.759 111 329.614 111 237.752V135.425a15 15 0 0110.315-14.25 175.225 175.225 0 0081.088-55.667A14.999 14.999 0 01214.017 60h83.965c4.502 0 8.767 2.022 11.615 5.508a175.228 175.228 0 0081.088 55.677 15 15 0 0110.314 14.25v102.317c0 91.862-54.649 174.007-139.227 209.274a14.993 14.993 0 01-5.772 1.156z" fill="#f5f5ff"/><path d="M390.686 121.185a175.228 175.228 0 01-81.088-55.677A15.003 15.003 0 00297.982 60H256v388.182a15 15 0 005.773-1.155C346.351 411.759 401 329.614 401 237.752V135.435a15 15 0 00-10.314-14.25z" fill="#e2e7fa"/><path d="M232.667 316.757a14.946 14.946 0 01-10.606-4.394l-46.667-46.667c-5.858-5.857-5.858-15.355 0-21.213 5.857-5.858 15.355-5.858 21.213 0l36.061 36.06 82.727-82.726c5.857-5.858 15.355-5.858 21.213 0s5.858 15.355 0 21.213l-93.333 93.333a14.954 14.954 0 01-10.608 4.394z" fill="#6b61b1"/><path d="M315.394 197.818L256 257.211v42.426l80.606-80.606c5.858-5.858 5.858-15.355 0-21.213-5.857-5.859-15.355-5.859-21.212 0z" fill="#453d81"/></svg>