<svg width="241" height="54" fill="none" xmlns="http://www.w3.org/2000/svg"><path d="M48.68.46c.84 0 1.84.46 3 1.38 1.16.92 1.74 2 1.74 3.24 0 1.88-1 4.86-3 8.94-2 4.08-4.4 8.14-7.2 12.18-2.92 4.2-6.08 7.78-9.48 10.74-3.44 3.04-6.52 4.56-9.24 4.56-3.24 0-4.86-1.98-4.86-5.94 0-2.72.82-6.42 2.46-11.1-2.96 4.96-5.96 9.08-9 12.36-3.08 3.32-5.9 4.98-8.46 4.98-1.32 0-2.4-.44-3.24-1.32C.6 39.6.2 38.4.2 36.88c0-2.4 1.26-6.14 3.78-11.22 2.36-4.8 4.86-9.54 7.5-14.22C14 7 15.26 4.36 15.26 3.52c0-.08-.02-.22-.06-.42v-.36c0-.56.38-.84 1.14-.84 1.08 0 2.14.44 3.18 1.32 1.12.92 1.66 2 1.62 3.24-.08 1.4-2.38 6.08-6.9 14.04-4.52 8-6.78 12.66-6.78 13.98 0 .68.26 1.02.78 1.02 1.16 0 3.82-2.68 7.98-8.04 4.2-5.32 8.28-11.2 12.24-17.64.28-.6.64-1.22 1.08-1.86.32-.56.82-.84 1.5-.84.88 0 1.84.36 2.88 1.08 1 .64 1.5 1.32 1.5 2.04 0 .36-.16.7-.48 1.02-1.92 2.4-3.88 6.12-5.88 11.16C27.02 27.46 26 31.14 26 33.46c0 1.16.4 1.74 1.2 1.74 1.68 0 4.2-2.34 7.56-7.02 3.32-4.64 6.32-9.66 9-15.06 2.64-5.4 3.96-9.1 3.96-11.1v-.48l-.06-.3c0-.52.34-.78 1.02-.78zm24.152 24.18c.4 0 .78.24 1.14.72.36.44.46.9.3 1.38a50.7 50.7 0 01-9.6 9.36c-3.56 2.6-7.08 3.9-10.56 3.9-2.4 0-4.3-.64-5.7-1.92-1.36-1.32-2.04-3.08-2.04-5.28 0-2.56.84-5.36 2.52-8.4 1.68-3.12 3.86-5.78 6.54-7.98s5.28-3.3 7.8-3.3c1.84 0 3.34.56 4.5 1.68 1.16 1.08 1.74 2.44 1.74 4.08 0 2.48-1.36 4.9-4.08 7.26-2.68 2.28-5.5 3.42-8.46 3.42-1.04 0-2-.18-2.88-.54-.32 1.16-.48 2.12-.48 2.88 0 1.96 1.06 2.94 3.18 2.94 2.24 0 4.76-.9 7.56-2.7 2.8-1.84 5.48-4.28 8.04-7.32.12-.12.28-.18.48-.18zm-8.64-8.58c-1.12 0-2.7 1.16-4.74 3.48-2 2.36-3.56 4.84-4.68 7.44h.48c2.12 0 4.24-1.3 6.36-3.9 2.16-2.56 3.24-4.64 3.24-6.24 0-.52-.22-.78-.66-.78zM72.05 40c-1.08 0-1.94-.38-2.58-1.14-.6-.8-.9-1.86-.9-3.18 0-2.36 1.34-6.22 4.02-11.58 2.64-5.32 5.58-10.28 8.82-14.88 3.16-4.48 5.34-6.72 6.54-6.72.88 0 1.72.38 2.52 1.14.84.8 1.26 1.48 1.26 2.04 0 .24-.08.42-.24.54-3.52 3.8-7 8.76-10.44 14.88-3.44 6.08-5.16 10-5.16 11.76 0 .56.26.84.78.84.72 0 2.02-.82 3.9-2.46 1.96-1.76 4.02-3.9 6.18-6.42.12-.12.28-.18.48-.18.4 0 .76.24 1.08.72.36.44.48.9.36 1.38C81.39 35.58 75.85 40 72.05 40zm14.413 0c-1.08 0-1.94-.38-2.58-1.14-.6-.8-.9-1.86-.9-3.18 0-2.36 1.34-6.22 4.02-11.58 2.64-5.32 5.58-10.28 8.82-14.88 3.16-4.48 5.341-6.72 6.541-6.72.88 0 1.72.38 2.52 1.14.84.8 1.26 1.48 1.26 2.04 0 .24-.08.42-.24.54-3.52 3.8-7 8.76-10.44 14.88-3.44 6.08-5.16 10-5.16 11.76 0 .56.26.84.78.84.72 0 2.02-.82 3.9-2.46 1.96-1.76 4.02-3.9 6.18-6.42.12-.12.28-.18.48-.18.4 0 .76.24 1.08.72.36.44.48.9.36 1.38C95.805 35.58 90.265 40 86.465 40zm34.575-26.82c1.4 0 2.52.46 3.36 1.38.84.92 1.26 2.14 1.26 3.66 0 2.52-1.06 5.56-3.18 9.12-2.04 3.44-4.7 6.52-7.98 9.24-3.2 2.6-6.12 3.9-8.76 3.9-2.04 0-3.78-.74-5.22-2.22-1.4-1.52-2.1-3.3-2.1-5.34 0-2.4 1.24-6.12 3.72-11.16 2.44-4.92 5.1-9.38 7.98-13.38 2.84-3.92 4.78-5.88 5.82-5.88.92 0 1.78.38 2.58 1.14.84.8 1.26 1.48 1.26 2.04 0 .2-.08.38-.24.54-3.72 3.96-7.84 9.86-12.36 17.7 3.16-3.8 5.82-6.54 7.98-8.22 2.16-1.68 4.12-2.52 5.88-2.52zm-15.36 22.38c1.36 0 3.14-1.1 5.34-3.3 2.24-2.16 4.24-4.68 6-7.56 1.72-2.8 2.58-5.02 2.58-6.66 0-.72-.26-1.08-.78-1.08-1.28 0-4 2.26-8.16 6.78-4.08 4.52-6.42 7.82-7.02 9.9 0 .52.18.98.54 1.38.36.36.86.54 1.5.54zm45.493-10.92c.4 0 .78.24 1.14.72.36.44.46.9.3 1.38a50.7 50.7 0 01-9.6 9.36c-3.56 2.6-7.08 3.9-10.56 3.9-2.4 0-4.3-.64-5.7-1.92-1.36-1.32-2.04-3.08-2.04-5.28 0-2.56.84-5.36 2.52-8.4 1.68-3.12 3.86-5.78 6.54-7.98s5.28-3.3 7.8-3.3c1.84 0 3.34.56 4.5 1.68 1.16 1.08 1.74 2.44 1.74 4.08 0 2.48-1.36 4.9-4.08 7.26-2.68 2.28-5.5 3.42-8.46 3.42-1.04 0-2-.18-2.88-.54-.32 1.16-.48 2.12-.48 2.88 0 1.96 1.06 2.94 3.18 2.94 2.24 0 4.76-.9 7.56-2.7 2.8-1.84 5.48-4.28 8.04-7.32.12-.12.28-.18.48-.18zm-8.64-8.58c-1.12 0-2.7 1.16-4.74 3.48-2 2.36-3.56 4.84-4.68 7.44h.48c2.12 0 4.24-1.3 6.36-3.9 2.16-2.56 3.24-4.64 3.24-6.24 0-.52-.22-.78-.66-.78zM176.61 5.2c0 .16-.08.32-.24.48-2.92 3.2-6.22 7.88-9.9 14.04-3.6 6.16-6.06 10.96-7.38 14.4 4-.92 7.66-1.38 10.98-1.38 4.08 0 6.12.88 6.12 2.64 0 1.16-.44 2.32-1.32 3.48-.84 1.16-1.56 1.74-2.16 1.74-.32 0-.52-.28-.6-.84-1-.56-2.84-.84-5.52-.84-3.08 0-6.34.32-9.78.96-3.56.6-6.26 1.32-8.1 2.16-.24.12-.44.18-.6.18-.56 0-.84-.38-.84-1.14 0-1.4.94-2.62 2.82-3.66 1.24-.72 2.96-1.46 5.16-2.22-1-1-1.5-2.12-1.5-3.36 0-1.72 1.24-5.02 3.72-9.9 2.52-4.84 5.28-9.4 8.28-13.68 3-4.24 5.12-6.36 6.36-6.36 1.12 0 2.14.4 3.06 1.2.96.76 1.44 1.46 1.44 2.1zm19.265 4.74c-.68 0-1.22-.2-1.62-.6-.4-.4-.6-.92-.6-1.56 0-1.24.52-2.5 1.56-3.78 1-1.32 2.32-1.98 3.96-1.98.76 0 1.4.26 1.92.78s.78 1.12.78 1.8c0 1.28-.58 2.5-1.74 3.66-1.12 1.12-2.54 1.68-4.26 1.68zm3.42 16.8c-7.28 8.84-12.82 13.26-16.62 13.26-1.08 0-1.94-.38-2.58-1.14-.6-.8-.9-1.86-.9-3.18 0-2.32.86-5.26 2.58-8.82 1.68-3.48 3.52-6.56 5.52-9.24 2-2.6 3.32-3.9 3.96-3.9.76 0 1.58.42 2.46 1.26.92.8 1.38 1.44 1.38 1.92 0 .2-.08.38-.24.54-1.96 2.36-3.82 5.22-5.58 8.58-1.72 3.28-2.58 5.56-2.58 6.84 0 .56.2.84.6.84.72 0 2.02-.82 3.9-2.46 1.96-1.76 4.02-3.9 6.18-6.42.12-.12.28-.18.48-.18.4 0 .76.24 1.08.72.36.44.48.9.36 1.38zm16.815-1.92c.4-.28.86-.18 1.38.3.56.48.74 1.02.54 1.62-1.52 1.68-3.18 3.02-4.98 4.02-1.8 1-3.48 1.56-5.04 1.68-.44 3.08-1.44 6.16-3 9.24-1.68 3.28-3.68 6-6 8.16-2.44 2.24-4.8 3.36-7.08 3.36-2.68 0-4.02-1.5-4.02-4.5 0-2.36 1-5.94 3-10.74 1.96-4.76 4.46-9.84 7.5-15.24 0-.12-.02-.26-.06-.42 0-.16-.02-.28-.06-.36v-.54c0-1.64.7-2.46 2.1-2.46h.18c2.84-4.8 5.46-8.72 7.86-11.76 2.44-3.12 4.2-4.68 5.28-4.68.88 0 1.72.38 2.52 1.14.84.8 1.26 1.48 1.26 2.04 0 .24-.08.42-.24.54-2.84 1.96-6.76 7.24-11.76 15.84 1.44 1.88 2.32 4.06 2.64 6.54h.36c2.8 0 5.34-1.26 7.62-3.78zm-20.94 23.04c1.44 0 3.1-1.74 4.98-5.22 1.8-3.32 3.1-6.98 3.9-10.98-1-.6-1.86-1.34-2.58-2.22-4.68 8.88-7.02 14.72-7.02 17.52 0 .6.24.9.72.9zm43.951-23.22c.4 0 .78.24 1.14.72.36.44.46.9.3 1.38a50.7 50.7 0 01-9.6 9.36c-3.56 2.6-7.08 3.9-10.56 3.9-2.4 0-4.3-.64-5.7-1.92-1.36-1.32-2.04-3.08-2.04-5.28 0-2.56.84-5.36 2.52-8.4 1.68-3.12 3.86-5.78 6.54-7.98s5.28-3.3 7.8-3.3c1.84 0 3.34.56 4.5 1.68 1.16 1.08 1.74 2.44 1.74 4.08 0 2.48-1.36 4.9-4.08 7.26-2.68 2.28-5.5 3.42-8.46 3.42-1.04 0-2-.18-2.88-.54-.32 1.16-.48 2.12-.48 2.88 0 1.96 1.06 2.94 3.18 2.94 2.24 0 4.76-.9 7.56-2.7 2.8-1.84 5.48-4.28 8.04-7.32.12-.12.28-.18.48-.18zm-8.64-8.58c-1.12 0-2.7 1.16-4.74 3.48-2 2.36-3.56 4.84-4.68 7.44h.48c2.12 0 4.24-1.3 6.36-3.9 2.16-2.56 3.24-4.64 3.24-6.24 0-.52-.22-.78-.66-.78z" fill="#12BE83"/></svg>