<svg width="231" height="89" viewBox="0 0 231 89" fill="none" xmlns="http://www.w3.org/2000/svg">
<path d="M33.32 36.76C30.6267 36.68 28.32 36.2133 26.4 35.36C24.5067 34.5067 22.88 33.4 21.52 32.04C20.1867 30.68 19.04 29.1467 18.08 27.44C17.1467 25.7333 16.2933 23.9867 15.52 22.2C15.0667 22.3333 14.4267 22.44 13.6 22.52C12.7733 22.6 12 22.6267 11.28 22.6L11.32 26.72C11.32 27.5733 11.32 28.3733 11.32 29.12C11.32 29.8667 11.3467 30.4667 11.4 30.92C11.4533 31.48 11.5467 31.96 11.68 32.36C11.84 32.7333 12.0933 33.0533 12.44 33.32C12.7867 33.56 13.2533 33.76 13.84 33.92C14.4267 34.08 15.2 34.2133 16.16 34.32V35H2.16V34.32C2.90667 34.2133 3.54667 34.0933 4.08 33.96C4.64 33.8267 5.09333 33.64 5.44 33.4C5.81333 33.1333 6.09333 32.7867 6.28 32.36C6.46667 31.9333 6.57333 31.36 6.6 30.64C6.62667 30.08 6.64 29.24 6.64 28.12C6.64 27 6.64 25.8133 6.64 24.56C6.64 23.28 6.64 22.0533 6.64 20.88C6.64 19.7067 6.64 18.8 6.64 18.16C6.64 16.88 6.64 15.52 6.64 14.08C6.66667 12.6133 6.65333 11.32 6.6 10.2C6.57333 9.48 6.45333 8.90667 6.24 8.48C6.05333 8.05333 5.77333 7.72 5.4 7.48C5.05333 7.21333 4.6 7.01333 4.04 6.88C3.48 6.74667 2.82667 6.62667 2.08 6.52V5.84C3.57333 5.86667 4.96 5.88 6.24 5.88H11.24C12.6 5.88 14.0667 5.94666 15.64 6.08C17.24 6.18666 18.72 6.48 20.08 6.96C21.44 7.44 22.5733 8.17333 23.48 9.16C24.3867 10.1467 24.84 11.5067 24.84 13.24C24.84 14.8667 24.3333 16.2533 23.32 17.4C22.3333 18.5467 21.08 19.5733 19.56 20.48C19.8267 21.3867 20.2267 22.3867 20.76 23.48C21.32 24.5733 21.96 25.68 22.68 26.8C23.4 27.92 24.1867 29.0133 25.04 30.08C25.92 31.1467 26.8267 32.1067 27.76 32.96C28.6933 33.8133 29.6267 34.5067 30.56 35.04C31.52 35.6 32.44 35.9333 33.32 36.04V36.76ZM20.12 14.92C20.12 13.56 19.88 12.4133 19.4 11.48C18.92 10.5467 18.2933 9.8 17.52 9.24C16.7467 8.65333 15.8667 8.22667 14.88 7.96C13.8933 7.69333 12.8933 7.54666 11.88 7.52C11.8267 7.52 11.76 7.52 11.68 7.52C11.6 7.52 11.5333 7.54666 11.48 7.6L11.4 7.68C11.32 7.76 11.28 7.84 11.28 7.92V14.04L11.24 19.92V21.56C12.3867 21.5333 13.4933 21.3467 14.56 21C15.6267 20.6533 16.5733 20.1867 17.4 19.6C18.2267 19.0133 18.88 18.32 19.36 17.52C19.8667 16.72 20.12 15.8533 20.12 14.92ZM13.76 34.16C13.4667 34.1333 13.2 34.08 12.96 34C12.72 33.8933 12.4533 33.7467 12.16 33.56C11.84 33.3467 11.5733 33.04 11.36 32.64C11.1467 32.2133 11.0133 31.8667 10.96 31.6C10.9333 31.44 10.9067 31.0933 10.88 30.56C10.8533 30.1067 10.8267 29.4267 10.8 28.52C10.7733 27.5867 10.7733 26.32 10.8 24.72L10.84 13.68V10C10.84 9.81333 10.84 9.58667 10.84 9.32C10.84 9.02666 10.84 8.73333 10.84 8.44C10.84 8.14667 10.8533 7.88 10.88 7.64C10.9067 7.4 10.9467 7.24 11 7.16C11.2133 6.89333 11.5467 6.72 12 6.64C12.16 6.56 12.1467 6.52 11.96 6.52H11.72C11.3467 6.54667 11.04 6.64 10.8 6.8C10.5867 6.96 10.3333 7.13333 10.04 7.32C9.82667 7.45333 9.64 7.56 9.48 7.64C9.32 7.69333 9.18667 7.77333 9.08 7.88C8.97333 7.96 8.88 8.10667 8.8 8.32C8.74667 8.53333 8.72 8.86667 8.72 9.32V15.68V17.96C8.72 19 8.72 20.5867 8.72 22.72C8.74667 24.8267 8.76 27.7467 8.76 31.48C8.76 31.72 8.78667 31.9467 8.84 32.16C8.92 32.3467 9 32.5067 9.08 32.64C9.18667 32.8 9.30667 32.9467 9.44 33.08C9.81333 33.4533 10.2667 33.72 10.8 33.88C11.36 34.04 12.08 34.1467 12.96 34.2L13.76 34.16ZM24.12 10.76C23.8267 10.12 23.52 9.6 23.2 9.2C22.88 8.8 22.5467 8.49333 22.2 8.28C21.88 8.04 21.56 7.86666 21.24 7.76C20.9467 7.62666 20.6933 7.52 20.48 7.44C20.2667 7.36 20.0133 7.29333 19.72 7.24C19.4267 7.16 19.1467 7.10667 18.88 7.08C18.6933 7.08 18.56 7.10667 18.48 7.16C18.4267 7.21333 18.44 7.29333 18.52 7.4C18.6 7.50666 18.8533 7.68 19.28 7.92C19.9733 8.32 20.52 8.8 20.92 9.36C21.32 9.92 21.6267 10.4667 21.84 11C22.08 11.6133 22.2267 12.24 22.28 12.88C22.36 14.2667 22.1867 15.44 21.76 16.4C21.3333 17.36 20.84 18.1333 20.28 18.72C19.7467 19.3067 19.24 19.7333 18.76 20C18.28 20.2667 18.04 20.4133 18.04 20.44C18.0933 20.6267 18.3067 20.6533 18.68 20.52C19.0533 20.3867 19.4 20.24 19.72 20.08C20.4133 19.7333 21.08 19.28 21.72 18.72C22.36 18.16 22.8133 17.7067 23.08 17.36C23.2667 17.12 23.48 16.76 23.72 16.28C23.96 15.8 24.1467 15.2667 24.28 14.68C24.44 14.0667 24.52 13.4267 24.52 12.76C24.52 12.0667 24.3867 11.4 24.12 10.76ZM30.04 35.04C29.4267 34.64 28.84 34.2133 28.28 33.76C27.72 33.28 27.2133 32.8133 26.76 32.36C26.3067 31.9067 25.8933 31.48 25.52 31.08C25.1467 30.6533 24.84 30.28 24.6 29.96C23.9067 29.1067 23.28 28.2533 22.72 27.4C22.1867 26.5467 21.76 25.8667 21.44 25.36C21.2533 25.0667 21.04 24.6933 20.8 24.24C20.5867 23.8667 20.3467 23.4 20.08 22.84C19.84 22.2533 19.5733 21.5467 19.28 20.72C19.0933 20.9067 18.96 21.1067 18.88 21.32C18.8267 21.5067 18.7733 21.6933 18.72 21.88C18.6667 22.0933 18.6533 22.32 18.68 22.56C18.68 22.7733 18.7467 23.0667 18.88 23.44C19.0133 23.8133 19.1733 24.2267 19.36 24.68C19.5733 25.1067 19.8 25.56 20.04 26.04C20.28 26.52 20.52 26.9733 20.76 27.4C21 27.8267 21.36 28.3467 21.84 28.96C22.32 29.5733 22.84 30.1867 23.4 30.8C23.96 31.4133 24.5333 31.9867 25.12 32.52C25.7067 33.0533 26.2133 33.4533 26.64 33.72C27.0133 33.96 27.3867 34.1733 27.76 34.36C28.08 34.5467 28.4133 34.72 28.76 34.88C29.1333 35.04 29.48 35.1467 29.8 35.2C30.0667 35.28 30.1867 35.28 30.16 35.2C30.1333 35.1733 30.0933 35.12 30.04 35.04ZM37.5841 14.08C37.5574 13.2267 37.5441 12.48 37.5441 11.84C37.5707 11.1733 37.5574 10.6133 37.5041 10.16C37.4507 9.6 37.3441 9.12 37.1841 8.72C37.0507 8.29333 36.8241 7.93333 36.5041 7.64C36.1841 7.34667 35.7574 7.12 35.2241 6.96C34.6907 6.77333 34.0107 6.64 33.1841 6.56V5.92H46.9041V6.56C46.1307 6.66667 45.4641 6.78667 44.9041 6.92C44.3707 7.05333 43.9174 7.25333 43.5441 7.52C43.1974 7.76 42.9307 8.09333 42.7441 8.52C42.5574 8.94667 42.4507 9.52 42.4241 10.24C42.3974 10.8 42.3707 11.44 42.3441 12.16C42.3441 12.88 42.3441 13.6267 42.3441 14.4C42.3441 15.1733 42.3441 15.9467 42.3441 16.72C42.3707 17.4667 42.3841 18.16 42.3841 18.8C42.3841 19.44 42.3841 20.32 42.3841 21.44C42.3841 22.5333 42.3841 23.68 42.3841 24.88C42.4107 26.0533 42.4241 27.1733 42.4241 28.24C42.4507 29.3067 42.4774 30.12 42.5041 30.68C42.5307 31.3733 42.6374 31.9333 42.8241 32.36C43.0107 32.7867 43.2774 33.1333 43.6241 33.4C43.9974 33.6667 44.4507 33.8667 44.9841 34C45.5441 34.1067 46.1974 34.2133 46.9441 34.32V35H33.2641V34.32C34.0907 34.24 34.7707 34.0933 35.3041 33.88C35.8374 33.6667 36.2641 33.4 36.5841 33.08C36.9041 32.76 37.1307 32.3867 37.2641 31.96C37.4241 31.5067 37.5307 31 37.5841 30.44C37.6374 29.9867 37.6641 29.4933 37.6641 28.96C37.6641 28.4 37.6641 27.6933 37.6641 26.84L37.5841 14.08ZM45.4641 6.44C45.4641 6.41333 45.4107 6.38667 45.3041 6.36C45.1974 6.33333 45.0374 6.33333 44.8241 6.36C44.6107 6.38667 44.2774 6.44 43.8241 6.52C43.2107 6.65333 42.6107 6.85333 42.0241 7.12C41.4641 7.36 40.9707 7.50667 40.5441 7.56C39.8507 7.64 39.3174 7.6 38.9441 7.44C38.5707 7.25333 38.3174 7.17333 38.1841 7.2C38.0241 7.25333 38.0241 7.32 38.1841 7.4C38.3707 7.48 38.6107 7.61333 38.9041 7.8C39.3574 8.14667 39.6374 8.56 39.7441 9.04C39.8774 9.52 39.9441 10.2933 39.9441 11.36C39.9441 11.9467 39.9441 12.7467 39.9441 13.76C39.9441 14.7467 39.9307 16.0533 39.9041 17.68C39.9041 19.28 39.9041 21.24 39.9041 23.56C39.9041 25.8533 39.9041 28.6 39.9041 31.8C39.9041 32.3067 40.0107 32.7067 40.2241 33C40.4374 33.2667 40.7041 33.48 41.0241 33.64C41.3707 33.7733 41.7441 33.8533 42.1441 33.88C42.5441 33.9067 42.9307 33.92 43.3041 33.92C43.4374 33.92 43.4907 33.8933 43.4641 33.84C43.4641 33.7867 43.4107 33.72 43.3041 33.64C43.2241 33.5333 43.1174 33.4267 42.9841 33.32C42.8774 33.2133 42.7707 33.0933 42.6641 32.96C42.3974 32.64 42.2241 32.2667 42.1441 31.84C42.0641 31.3867 42.0241 30.9733 42.0241 30.6C41.9974 30.3067 41.9841 29.4133 41.9841 27.92C41.9841 27.28 41.9841 26.4933 41.9841 25.56C41.9841 24.6 41.9841 23.44 41.9841 22.08C41.9841 20.6933 41.9841 19.08 41.9841 17.24C41.9841 15.4 41.9974 13.2933 42.0241 10.92C42.0241 9.88 42.1174 9.09333 42.3041 8.56C42.4907 8 42.8641 7.54666 43.4241 7.2C43.8241 6.96 44.2641 6.78667 44.7441 6.68C45.2241 6.57333 45.4641 6.49333 45.4641 6.44ZM77.2159 34.4C76.5759 34.6933 75.8293 34.92 74.9759 35.08C74.1493 35.24 73.3359 35.36 72.5359 35.44C71.7626 35.52 71.0826 35.5733 70.4959 35.6C69.9093 35.6267 69.5359 35.64 69.3759 35.64C67.0026 35.64 64.7359 35.3333 62.5759 34.72C60.4426 34.08 58.5626 33.1333 56.9359 31.88C55.3359 30.6 54.0559 29 53.0959 27.08C52.1359 25.16 51.6559 22.92 51.6559 20.36C51.6559 17.9333 52.1226 15.7867 53.0559 13.92C54.0159 12.0533 55.2826 10.4933 56.8559 9.24C58.4293 7.96 60.2293 7 62.2559 6.36C64.3093 5.69333 66.4426 5.36 68.6559 5.36C70.4159 5.36 71.8693 5.49333 73.0159 5.76C74.1893 6 75.0693 6.14666 75.6559 6.2C76.2426 6.25333 76.7359 6.28 77.1359 6.28C77.5626 6.25333 77.9626 6.16 78.3359 6L78.8959 6.24L78.3759 13.4H77.6159C77.4026 12.2 77.0426 11.2 76.5359 10.4C76.0293 9.6 75.3759 8.96 74.5759 8.48C73.8026 8 72.8826 7.66666 71.8159 7.48C70.7759 7.26667 69.6293 7.16 68.3759 7.16C66.6426 7.16 65.0826 7.48 63.6959 8.12C62.3359 8.73333 61.1759 9.58666 60.2159 10.68C59.2559 11.7733 58.5226 13.0667 58.0159 14.56C57.5093 16.0533 57.2559 17.6667 57.2559 19.4C57.2559 21.7467 57.6293 23.8133 58.3759 25.6C59.1226 27.36 60.0826 28.84 61.2559 30.04C62.4293 31.24 63.7493 32.1467 65.2159 32.76C66.7093 33.3467 68.2026 33.64 69.6959 33.64C71.1893 33.64 72.4693 33.4933 73.5359 33.2C74.6026 32.9067 75.5493 32.3467 76.3759 31.52C76.9093 30.9867 77.3226 30.4 77.6159 29.76C77.9359 29.12 78.2026 28.52 78.4159 27.96L79.1359 28.28L77.2159 34.4ZM78.4159 6.44C78.3093 6.57333 78.2293 6.68 78.1759 6.76C78.1226 6.81333 78.0693 6.86666 78.0159 6.92C77.9626 6.97333 77.9093 7.01333 77.8559 7.04C77.7759 7.14666 77.6426 7.25333 77.4559 7.36C77.2693 7.44 77.0693 7.50667 76.8559 7.56C76.6693 7.61333 76.5226 7.66667 76.4159 7.72C76.3359 7.77333 76.3359 7.89333 76.4159 8.08C76.4959 8.26667 76.6159 8.54667 76.7759 8.92C76.9359 9.29333 77.0959 9.65333 77.2559 10C77.3359 10.16 77.4026 10.36 77.4559 10.6C77.5359 10.84 77.5893 11.0667 77.6159 11.28C77.6693 11.4933 77.7093 11.68 77.7359 11.84C77.7893 11.9733 77.8426 12.04 77.8959 12.04C77.9226 12.04 77.9493 12.0267 77.9759 12C78.0559 11.92 78.0959 11.8267 78.0959 11.72L78.4159 6.44ZM78.3759 29.4C78.3226 29.4 78.2293 29.52 78.0959 29.76C77.9626 29.9733 77.8026 30.2533 77.6159 30.6C77.4293 30.9467 77.2293 31.3067 77.0159 31.68C76.8026 32.0267 76.6026 32.32 76.4159 32.56C76.1493 32.88 75.9226 33.1067 75.7359 33.24C75.5493 33.3467 75.3226 33.4533 75.0559 33.56C74.7893 33.6667 74.5093 33.7467 74.2159 33.8C73.9226 33.8267 73.7626 33.8933 73.7359 34C73.7359 34.0533 73.7893 34.0667 73.8959 34.04C74.0293 33.9867 74.2026 33.9467 74.4159 33.92C74.6559 33.8667 74.9093 33.8267 75.1759 33.8C75.4693 33.7733 75.7626 33.7867 76.0559 33.84L76.3759 33.92C76.5626 33.9733 76.7226 34.04 76.8559 34.12C77.2826 32.9467 77.6026 32.04 77.8159 31.4C78.0293 30.76 78.1759 30.2933 78.2559 30C78.3626 29.6533 78.4026 29.4533 78.3759 29.4ZM66.9759 6.72C67.0293 6.69333 66.9893 6.68 66.8559 6.68C66.7226 6.65333 66.5359 6.64 66.2959 6.64C66.0559 6.64 65.7626 6.65333 65.4159 6.68C65.0959 6.70667 64.7626 6.76 64.4159 6.84C64.0693 6.92 63.6426 7.04 63.1359 7.2C62.6559 7.36 62.1226 7.58667 61.5359 7.88C60.9493 8.14667 60.3493 8.48 59.7359 8.88C59.1493 9.28 58.5893 9.74667 58.0559 10.28C57.6826 10.6533 57.2826 11.1467 56.8559 11.76C56.4293 12.3733 56.0293 13.08 55.6559 13.88C55.2826 14.68 54.9626 15.5733 54.6959 16.56C54.4559 17.5467 54.3226 18.5867 54.2959 19.68C54.2693 20.7733 54.3493 21.84 54.5359 22.88C54.7226 23.8933 54.9759 24.84 55.2959 25.72C55.6159 26.6 55.9759 27.4 56.3759 28.12C56.7759 28.8133 57.1893 29.3867 57.6159 29.84C58.0159 30.2933 58.4959 30.7333 59.0559 31.16C59.6426 31.5867 60.2426 31.9733 60.8559 32.32C61.4959 32.64 62.1359 32.92 62.7759 33.16C63.4426 33.4 64.0826 33.56 64.6959 33.64C65.1493 33.6933 65.4826 33.72 65.6959 33.72C65.9359 33.6933 66.0826 33.6667 66.1359 33.64C66.2159 33.5867 66.2426 33.5333 66.2159 33.48C66.1893 33.4267 66.1493 33.3867 66.0959 33.36C65.7759 33.28 65.4959 33.2 65.2559 33.12C65.0159 33.04 64.7759 32.9467 64.5359 32.84C64.3226 32.7333 64.0826 32.6133 63.8159 32.48C63.5493 32.32 63.2159 32.12 62.8159 31.88C62.2559 31.56 61.7493 31.1867 61.2959 30.76C60.8693 30.3333 60.4826 29.9067 60.1359 29.48C59.8159 29.0533 59.5359 28.6533 59.2959 28.28C59.0559 27.9067 58.8559 27.6 58.6959 27.36C58.5359 27.12 58.3359 26.7467 58.0959 26.24C57.8559 25.7067 57.6293 25.0667 57.4159 24.32C57.2293 23.5733 57.0559 22.7467 56.8959 21.84C56.7626 20.9333 56.7226 19.9867 56.7759 19C56.8559 17.0267 57.1493 15.3867 57.6559 14.08C58.1893 12.7733 58.8826 11.56 59.7359 10.44C60.1093 10.0133 60.5359 9.6 61.0159 9.2C61.4426 8.85333 61.9759 8.50667 62.6159 8.16C63.2559 7.78666 64.0026 7.46666 64.8559 7.2C65.6559 7.04 66.2159 6.92 66.5359 6.84C66.7226 6.78667 66.8693 6.74667 66.9759 6.72ZM91.945 19V11.08C91.945 10.0667 92.0517 9.22667 92.265 8.56C92.505 7.89333 92.905 7.41333 93.465 7.12C93.6783 6.98667 93.9183 6.89333 94.185 6.84C94.4783 6.78667 94.625 6.72 94.625 6.64L94.585 6.6C94.5583 6.6 94.5183 6.6 94.465 6.6C94.4383 6.57333 94.3983 6.56 94.345 6.56C94.105 6.56 93.8117 6.61333 93.465 6.72C93.1183 6.8 92.785 6.89333 92.465 7C92.1717 7.10666 91.9183 7.21333 91.705 7.32C91.4917 7.42667 91.385 7.48 91.385 7.48C91.145 7.56 90.905 7.6 90.665 7.6C90.2917 7.6 89.9583 7.54666 89.665 7.44C89.3983 7.30667 89.185 7.22667 89.025 7.2C88.7583 7.2 88.625 7.26666 88.625 7.4C88.625 7.50666 88.7583 7.64 89.025 7.8C89.4517 8.06667 89.705 8.41333 89.785 8.84C89.865 9.24 89.905 9.62667 89.905 10C89.905 10.3733 89.905 11.1333 89.905 12.28C89.905 13.4267 89.8917 14.7733 89.865 16.32C89.865 17.84 89.865 19.4533 89.865 21.16C89.865 22.8667 89.8517 24.4667 89.825 25.96C89.825 27.4533 89.825 28.7467 89.825 29.84C89.825 30.9333 89.825 31.6267 89.825 31.92C89.825 32.5067 89.945 32.9467 90.185 33.24C90.425 33.5333 90.705 33.7467 91.025 33.88C91.3717 33.9867 91.745 34.04 92.145 34.04C92.545 34.04 92.905 34.04 93.225 34.04C93.3583 34.04 93.425 34.0133 93.425 33.96C93.425 33.88 93.3183 33.76 93.105 33.6C92.9183 33.44 92.745 33.2667 92.585 33.08C92.3183 32.76 92.145 32.3867 92.065 31.96C91.985 31.5067 91.945 31.0933 91.945 30.72V28.88C91.945 28.2667 91.9317 27.4533 91.905 26.44C91.905 25.4 91.905 24.0667 91.905 22.44C91.825 22.1467 91.7183 21.9067 91.585 21.72C91.505 21.6133 91.4383 21.52 91.385 21.44C91.2783 21.36 91.1717 21.2667 91.065 21.16C90.9583 21.08 90.825 20.9867 90.665 20.88C90.5317 20.7733 90.3583 20.6533 90.145 20.52C90.145 20.4667 90.1317 20.44 90.105 20.44C90.105 20.4133 90.105 20.3733 90.105 20.32C90.105 20.1867 90.1583 20.0933 90.265 20.04L90.425 19.96C90.5317 19.9333 90.945 19.9067 91.665 19.88C92.4117 19.8533 93.2117 19.84 94.065 19.84C94.945 19.8133 95.7583 19.8 96.505 19.8C97.2783 19.8 97.745 19.8 97.905 19.8C98.9983 19.8 100.105 19.7867 101.225 19.76C102.345 19.7333 103.505 19.48 104.705 19H91.945ZM103.505 35V34.32C104.332 34.24 105.012 34.0933 105.545 33.88C106.078 33.6667 106.505 33.4 106.825 33.08C107.145 32.76 107.372 32.3867 107.505 31.96C107.665 31.5067 107.772 31 107.825 30.44C107.878 29.9867 107.905 29.4933 107.905 28.96C107.905 28.4 107.905 27.6933 107.905 26.84V20.88H92.385V26.72C92.385 27.6 92.385 28.4133 92.385 29.16C92.385 29.88 92.4117 30.4667 92.465 30.92C92.5183 31.48 92.6117 31.96 92.745 32.36C92.905 32.7333 93.145 33.0533 93.465 33.32C93.785 33.5867 94.2117 33.8 94.745 33.96C95.2783 34.12 95.9583 34.24 96.785 34.32V35H83.185V34.32C83.9317 34.2133 84.5717 34.1067 85.105 34C85.665 33.8667 86.1183 33.6667 86.465 33.4C86.8383 33.1333 87.1183 32.7867 87.305 32.36C87.4917 31.9333 87.5983 31.36 87.625 30.64C87.6517 30.2933 87.665 29.8 87.665 29.16C87.665 28.52 87.665 27.8133 87.665 27.04C87.6917 26.24 87.705 25.4133 87.705 24.56C87.705 23.7067 87.6917 22.88 87.665 22.08C87.665 21.28 87.665 20.5467 87.665 19.88C87.665 19.1867 87.665 18.6267 87.665 18.2C87.665 16.92 87.665 15.56 87.665 14.12C87.665 12.6533 87.6383 11.36 87.585 10.24C87.5583 9.52 87.4517 8.94667 87.265 8.52C87.0783 8.09333 86.7983 7.76 86.425 7.52C86.0517 7.25333 85.585 7.05333 85.025 6.92C84.4917 6.78667 83.8517 6.66667 83.105 6.56V5.92H96.785V6.56C95.1317 6.72 94.0117 7.09333 93.425 7.68C92.8383 8.24 92.5183 9.08 92.465 10.2C92.4383 10.6533 92.4117 11.2 92.385 11.84C92.385 12.48 92.385 13.2267 92.385 14.08V18.68H107.825V14.08C107.825 13.2267 107.825 12.48 107.825 11.84C107.825 11.1733 107.798 10.6133 107.745 10.16C107.692 9.6 107.585 9.12 107.425 8.72C107.292 8.29333 107.065 7.93333 106.745 7.64C106.425 7.34667 105.998 7.12 105.465 6.96C104.932 6.77333 104.252 6.64 103.425 6.56V5.92H117.145V6.56C116.372 6.66667 115.705 6.78667 115.145 6.92C114.612 7.05333 114.158 7.25333 113.785 7.52C113.438 7.76 113.172 8.09333 112.985 8.52C112.798 8.94667 112.692 9.52 112.665 10.24C112.638 10.8 112.612 11.44 112.585 12.16C112.585 12.88 112.585 13.6267 112.585 14.4C112.585 15.1733 112.585 15.9467 112.585 16.72C112.612 17.4667 112.625 18.16 112.625 18.8C112.625 19.44 112.625 20.32 112.625 21.44C112.625 22.5333 112.625 23.68 112.625 24.88C112.652 26.0533 112.665 27.1733 112.665 28.24C112.692 29.3067 112.718 30.12 112.745 30.68C112.772 31.3733 112.878 31.9333 113.065 32.36C113.252 32.7867 113.518 33.1333 113.865 33.4C114.238 33.6667 114.692 33.8667 115.225 34C115.785 34.1067 116.438 34.2133 117.185 34.32V35H103.505ZM115.705 6.44C115.705 6.41333 115.652 6.38667 115.545 6.36C115.438 6.33333 115.278 6.33333 115.065 6.36C114.852 6.38667 114.518 6.44 114.065 6.52C113.452 6.65333 112.852 6.85333 112.265 7.12C111.705 7.36 111.212 7.50667 110.785 7.56C110.092 7.64 109.558 7.6 109.185 7.44C108.812 7.25333 108.558 7.17333 108.425 7.2C108.265 7.25333 108.265 7.32 108.425 7.4C108.612 7.48 108.852 7.61333 109.145 7.8C109.598 8.14667 109.878 8.56 109.985 9.04C110.118 9.52 110.185 10.2933 110.185 11.36C110.185 11.9467 110.185 12.7467 110.185 13.76C110.185 14.7467 110.172 16.0533 110.145 17.68C110.145 19.28 110.145 21.24 110.145 23.56C110.145 25.8533 110.145 28.6 110.145 31.8C110.145 32.3067 110.252 32.7067 110.465 33C110.678 33.2667 110.945 33.48 111.265 33.64C111.612 33.7733 111.985 33.8533 112.385 33.88C112.785 33.9067 113.172 33.92 113.545 33.92C113.678 33.92 113.732 33.8933 113.705 33.84C113.705 33.7867 113.652 33.72 113.545 33.64C113.465 33.5333 113.358 33.4267 113.225 33.32C113.118 33.2133 113.012 33.0933 112.905 32.96C112.638 32.64 112.465 32.2667 112.385 31.84C112.305 31.3867 112.265 30.9733 112.265 30.6C112.238 30.3067 112.225 29.4133 112.225 27.92C112.225 27.28 112.225 26.4933 112.225 25.56C112.225 24.6 112.225 23.44 112.225 22.08C112.225 20.6933 112.225 19.08 112.225 17.24C112.225 15.4 112.238 13.2933 112.265 10.92C112.265 9.88 112.358 9.09333 112.545 8.56C112.732 8 113.105 7.54666 113.665 7.2C114.065 6.96 114.505 6.78667 114.985 6.68C115.465 6.57333 115.705 6.49333 115.705 6.44ZM156.479 33.52C156.399 33.92 156.239 34.2667 155.999 34.56C155.785 34.8533 155.292 35 154.519 35H134.199V34.32C134.919 34.2133 135.559 34.0933 136.119 33.96C136.679 33.8267 137.145 33.64 137.519 33.4C137.892 33.1333 138.172 32.7867 138.359 32.36C138.572 31.9333 138.692 31.36 138.719 30.64C138.745 30.08 138.759 29.24 138.759 28.12C138.785 27 138.799 25.8133 138.799 24.56C138.799 23.28 138.785 22.0667 138.759 20.92C138.759 19.7467 138.759 18.84 138.759 18.2C138.759 17.56 138.759 16.8933 138.759 16.2C138.759 15.48 138.759 14.7733 138.759 14.08C138.759 13.36 138.745 12.68 138.719 12.04C138.719 11.3733 138.705 10.76 138.679 10.2C138.652 9.48 138.572 8.90667 138.439 8.48C138.305 8.02667 138.092 7.68 137.799 7.44C137.532 7.17333 137.172 6.97333 136.719 6.84C136.265 6.70666 135.705 6.58666 135.039 6.48V5.84H147.399V6.52C146.065 6.65333 145.105 6.97333 144.519 7.48C143.932 7.98667 143.599 8.88 143.519 10.16C143.492 10.6133 143.465 11.16 143.439 11.8C143.439 12.4133 143.439 13.16 143.439 14.04L143.399 21.68C143.399 22.0267 143.399 22.5067 143.399 23.12C143.425 23.7333 143.439 24.4133 143.439 25.16C143.439 25.88 143.439 26.6133 143.439 27.36C143.465 28.1067 143.479 28.7867 143.479 29.4C143.479 29.96 143.532 30.48 143.639 30.96C143.745 31.44 143.945 31.8533 144.239 32.2C144.532 32.5467 144.932 32.8133 145.439 33C145.972 33.1867 146.639 33.2533 147.439 33.2C148.265 33.1467 148.865 33.12 149.239 33.12C149.612 33.0933 149.905 33.08 150.119 33.08C150.332 33.0533 150.532 33.04 150.719 33.04C150.932 33.0133 151.292 32.9733 151.799 32.92C152.492 32.8667 153.079 32.7733 153.559 32.64C154.039 32.5067 154.465 32.2667 154.839 31.92C155.212 31.5733 155.545 31.1067 155.839 30.52C156.159 29.9333 156.492 29.1467 156.839 28.16L157.559 28.32L156.479 33.52ZM156.799 30.08C156.692 30.0533 156.599 30.1733 156.519 30.44C156.439 30.68 156.292 31 156.079 31.4C155.812 31.9333 155.492 32.4133 155.119 32.84C154.772 33.24 154.292 33.44 153.679 33.44C153.252 33.4933 153.052 33.5733 153.079 33.68C153.079 33.7067 153.159 33.72 153.319 33.72C153.505 33.72 153.719 33.72 153.959 33.72C154.199 33.72 154.439 33.72 154.679 33.72C154.945 33.6933 155.159 33.6667 155.319 33.64C155.745 33.5867 155.985 33.4667 156.039 33.28C156.119 33.0667 156.185 32.88 156.239 32.72C156.372 32.16 156.465 31.72 156.519 31.4C156.599 31.0533 156.665 30.7733 156.719 30.56C156.772 30.3467 156.799 30.1867 156.799 30.08ZM143.039 11.12C143.039 10.1067 143.145 9.24 143.359 8.52C143.599 7.77333 143.999 7.25333 144.559 6.96C144.772 6.82667 145.012 6.73333 145.279 6.68C145.572 6.62667 145.719 6.56 145.719 6.48L145.679 6.44C145.652 6.44 145.612 6.44 145.559 6.44C145.532 6.41333 145.492 6.4 145.439 6.4C145.199 6.4 144.905 6.45333 144.559 6.56C144.212 6.66667 143.879 6.78667 143.559 6.92C143.265 7.05333 143.012 7.18667 142.799 7.32C142.585 7.42667 142.479 7.48 142.479 7.48C142.239 7.56 141.999 7.6 141.759 7.6C141.385 7.6 141.052 7.54666 140.759 7.44C140.492 7.30667 140.279 7.22667 140.119 7.2C139.852 7.2 139.719 7.26666 139.719 7.4C139.719 7.50666 139.852 7.64 140.119 7.8C140.545 8.06667 140.799 8.41333 140.879 8.84C140.959 9.24 140.999 9.62667 140.999 10V15.36C140.972 17.9733 140.945 20.36 140.919 22.52C140.919 23.4533 140.905 24.3733 140.879 25.28C140.879 26.1867 140.879 27.0267 140.879 27.8C140.879 28.5467 140.879 29.2 140.879 29.76C140.905 30.2933 140.932 30.6533 140.959 30.84C141.012 31.56 141.172 32.1333 141.439 32.56C141.732 32.96 142.119 33.2667 142.599 33.48C143.079 33.6933 143.652 33.84 144.319 33.92C144.985 33.9733 145.732 34 146.559 34C146.772 34 147.012 34 147.279 34C147.572 33.9733 147.825 33.9467 148.039 33.92C148.279 33.8667 148.465 33.8133 148.599 33.76C148.732 33.7067 148.759 33.64 148.679 33.56C147.985 33.5867 147.385 33.6 146.879 33.6C146.372 33.5733 145.932 33.5333 145.559 33.48C145.212 33.4 144.905 33.28 144.639 33.12C144.399 32.96 144.172 32.76 143.959 32.52C143.825 32.3867 143.705 32.24 143.599 32.08C143.519 31.92 143.439 31.7067 143.359 31.44C143.279 31.1733 143.212 30.8533 143.159 30.48C143.105 30.08 143.079 29.5733 143.079 28.96C143.079 28.72 143.065 28.3733 143.039 27.92C143.039 27.4667 143.039 26.9733 143.039 26.44C143.039 25.9067 143.025 25.3733 142.999 24.84C142.999 24.3067 142.999 23.84 142.999 23.44L143.039 11.12ZM165.318 14.08C165.292 13.2267 165.278 12.48 165.278 11.84C165.305 11.1733 165.292 10.6133 165.238 10.16C165.185 9.6 165.078 9.12 164.918 8.72C164.785 8.29333 164.558 7.93333 164.238 7.64C163.918 7.34667 163.492 7.12 162.958 6.96C162.425 6.77333 161.745 6.64 160.918 6.56V5.92H174.638V6.56C173.865 6.66667 173.198 6.78667 172.638 6.92C172.105 7.05333 171.652 7.25333 171.278 7.52C170.932 7.76 170.665 8.09333 170.478 8.52C170.292 8.94667 170.185 9.52 170.158 10.24C170.132 10.8 170.105 11.44 170.078 12.16C170.078 12.88 170.078 13.6267 170.078 14.4C170.078 15.1733 170.078 15.9467 170.078 16.72C170.105 17.4667 170.118 18.16 170.118 18.8C170.118 19.44 170.118 20.32 170.118 21.44C170.118 22.5333 170.118 23.68 170.118 24.88C170.145 26.0533 170.158 27.1733 170.158 28.24C170.185 29.3067 170.212 30.12 170.238 30.68C170.265 31.3733 170.372 31.9333 170.558 32.36C170.745 32.7867 171.012 33.1333 171.358 33.4C171.732 33.6667 172.185 33.8667 172.718 34C173.278 34.1067 173.932 34.2133 174.678 34.32V35H160.998V34.32C161.825 34.24 162.505 34.0933 163.038 33.88C163.572 33.6667 163.998 33.4 164.318 33.08C164.638 32.76 164.865 32.3867 164.998 31.96C165.158 31.5067 165.265 31 165.318 30.44C165.372 29.9867 165.398 29.4933 165.398 28.96C165.398 28.4 165.398 27.6933 165.398 26.84L165.318 14.08ZM173.198 6.44C173.198 6.41333 173.145 6.38667 173.038 6.36C172.932 6.33333 172.772 6.33333 172.558 6.36C172.345 6.38667 172.012 6.44 171.558 6.52C170.945 6.65333 170.345 6.85333 169.758 7.12C169.198 7.36 168.705 7.50667 168.278 7.56C167.585 7.64 167.052 7.6 166.678 7.44C166.305 7.25333 166.052 7.17333 165.918 7.2C165.758 7.25333 165.758 7.32 165.918 7.4C166.105 7.48 166.345 7.61333 166.638 7.8C167.092 8.14667 167.372 8.56 167.478 9.04C167.612 9.52 167.678 10.2933 167.678 11.36C167.678 11.9467 167.678 12.7467 167.678 13.76C167.678 14.7467 167.665 16.0533 167.638 17.68C167.638 19.28 167.638 21.24 167.638 23.56C167.638 25.8533 167.638 28.6 167.638 31.8C167.638 32.3067 167.745 32.7067 167.958 33C168.172 33.2667 168.438 33.48 168.758 33.64C169.105 33.7733 169.478 33.8533 169.878 33.88C170.278 33.9067 170.665 33.92 171.038 33.92C171.172 33.92 171.225 33.8933 171.198 33.84C171.198 33.7867 171.145 33.72 171.038 33.64C170.958 33.5333 170.852 33.4267 170.718 33.32C170.612 33.2133 170.505 33.0933 170.398 32.96C170.132 32.64 169.958 32.2667 169.878 31.84C169.798 31.3867 169.758 30.9733 169.758 30.6C169.732 30.3067 169.718 29.4133 169.718 27.92C169.718 27.28 169.718 26.4933 169.718 25.56C169.718 24.6 169.718 23.44 169.718 22.08C169.718 20.6933 169.718 19.08 169.718 17.24C169.718 15.4 169.732 13.2933 169.758 10.92C169.758 9.88 169.852 9.09333 170.038 8.56C170.225 8 170.598 7.54666 171.158 7.2C171.558 6.96 171.998 6.78667 172.478 6.68C172.958 6.57333 173.198 6.49333 173.198 6.44ZM199.59 11.6H198.87C198.817 11.0667 198.737 10.6267 198.63 10.28C198.524 9.93333 198.404 9.65333 198.27 9.44C198.137 9.17333 197.977 8.96 197.79 8.8C197.337 8.45333 196.737 8.24 195.99 8.16C195.27 8.05333 194.564 8 193.87 8L188.83 7.96L188.79 18.84H190.07C190.577 18.84 191.257 18.84 192.11 18.84C192.99 18.84 194.137 18.8267 195.55 18.8C195.924 18.8 196.284 18.7467 196.63 18.64C197.004 18.5333 197.297 18.36 197.51 18.12C197.724 17.8533 197.884 17.6 197.99 17.36C198.097 17.0933 198.204 16.8267 198.31 16.56C198.364 16.56 198.457 16.5733 198.59 16.6C198.724 16.6267 198.79 16.6667 198.79 16.72C198.79 16.7467 198.777 16.8933 198.75 17.16C198.75 17.4267 198.737 17.7333 198.71 18.08C198.684 18.4267 198.657 18.7867 198.63 19.16C198.604 19.5333 198.577 19.8533 198.55 20.12C198.497 20.7867 198.47 21.48 198.47 22.2C198.47 22.8933 198.457 23.5067 198.43 24.04L197.83 24C197.83 23.8933 197.817 23.7333 197.79 23.52C197.764 23.28 197.71 23.0133 197.63 22.72C197.524 22.32 197.324 21.8933 197.03 21.44C196.737 20.9867 196.27 20.76 195.63 20.76H188.79V26.72C188.79 27.6 188.79 28.4133 188.79 29.16C188.79 29.88 188.817 30.4667 188.87 30.92C188.924 31.48 189.017 31.96 189.15 32.36C189.284 32.7333 189.524 33.0533 189.87 33.32C190.217 33.5867 190.684 33.8 191.27 33.96C191.857 34.12 192.63 34.24 193.59 34.32V35H179.59V34.32C180.337 34.2133 180.977 34.1067 181.51 34C182.07 33.8667 182.524 33.6667 182.87 33.4C183.244 33.1333 183.524 32.7867 183.71 32.36C183.897 31.9333 184.004 31.36 184.03 30.64C184.057 30.1067 184.07 29.3333 184.07 28.32C184.07 27.28 184.07 26.2 184.07 25.08C184.07 23.9333 184.07 22.84 184.07 21.8C184.07 20.7333 184.07 19.88 184.07 19.24C184.07 18.6 184.07 17.88 184.07 17.08C184.07 16.28 184.07 15.4667 184.07 14.64C184.07 13.7867 184.057 12.9867 184.03 12.24C184.03 11.4667 184.017 10.8 183.99 10.24C183.964 9.52 183.857 8.94667 183.67 8.52C183.484 8.09333 183.204 7.76 182.83 7.52C182.457 7.25333 181.99 7.05333 181.43 6.92C180.897 6.78667 180.257 6.66667 179.51 6.56V5.92H195.31C196.724 5.92 197.71 5.88 198.27 5.8C198.857 5.69333 199.27 5.45333 199.51 5.08L200.03 5.28L199.59 11.6ZM199.31 5.96C199.204 6.22667 199.057 6.42667 198.87 6.56C198.764 6.64 198.67 6.70667 198.59 6.76C198.35 6.92 198.19 7.02667 198.11 7.08C198.03 7.10667 197.964 7.14667 197.91 7.2C197.884 7.25333 197.95 7.34667 198.11 7.48C198.297 7.58667 198.43 7.73333 198.51 7.92L198.63 8.16C198.684 8.24 198.724 8.33333 198.75 8.44C198.804 8.52 198.857 8.62667 198.91 8.76C198.91 8.76 198.937 8.65333 198.99 8.44C198.99 8.33333 199.004 8.24 199.03 8.16C199.03 8.02667 199.044 7.89333 199.07 7.76C199.097 7.62666 199.11 7.48 199.11 7.32C199.11 7.16 199.137 6.97333 199.19 6.76L199.31 5.96ZM198.11 19.08C198.11 18.9467 198.097 18.8533 198.07 18.8C198.044 18.72 198.004 18.7067 197.95 18.76C197.897 18.8933 197.83 19.0133 197.75 19.12C197.697 19.2267 197.644 19.32 197.59 19.4C197.51 19.5067 197.457 19.5867 197.43 19.64C197.324 19.7733 197.364 20 197.55 20.32C197.764 20.64 197.897 21.0667 197.95 21.6C197.95 21.6533 197.95 21.6133 197.95 21.48C197.977 21.32 197.99 21.1333 197.99 20.92C198.017 20.7067 198.044 20.48 198.07 20.24C198.097 19.9733 198.11 19.7467 198.11 19.56V19.08ZM188.27 8.88C188.27 8.66667 188.177 8.46667 187.99 8.28C187.804 8.06666 187.617 7.88 187.43 7.72C187.244 7.56 187.11 7.42667 187.03 7.32C186.977 7.21333 187.057 7.13333 187.27 7.08C187.59 7.02667 188.057 6.98666 188.67 6.96C189.284 6.93333 189.937 6.92 190.63 6.92C191.35 6.92 192.044 6.92 192.71 6.92C193.404 6.92 193.964 6.92 194.39 6.92C194.71 6.92 195.097 6.93333 195.55 6.96C196.03 6.96 196.497 6.94667 196.95 6.92C197.404 6.86666 197.83 6.78667 198.23 6.68C198.63 6.54667 198.924 6.34666 199.11 6.08C199.164 5.97333 198.857 5.98666 198.19 6.12C197.55 6.25333 196.55 6.29333 195.19 6.24C193.697 6.18667 192.404 6.18667 191.31 6.24C190.217 6.26666 189.057 6.29333 187.83 6.32C187.537 6.32 187.177 6.36 186.75 6.44C186.35 6.49333 185.977 6.57333 185.63 6.68C185.39 6.73333 185.204 6.8 185.07 6.88C184.937 6.93333 184.844 7 184.79 7.08C184.737 7.16 184.777 7.22667 184.91 7.28C185.23 7.52 185.484 7.72 185.67 7.88C185.857 8.04 185.95 8.37333 185.95 8.88V11.92C185.95 12.64 185.95 13.56 185.95 14.68C185.95 15.7733 185.95 17.12 185.95 18.72C185.977 20.2933 185.99 22.1467 185.99 24.28C186.017 26.4133 186.044 28.88 186.07 31.68C186.15 32.2667 186.337 32.7333 186.63 33.08C186.95 33.4267 187.297 33.6667 187.67 33.8C188.337 34.04 188.777 34.1467 188.99 34.12C189.23 34.0933 189.337 34 189.31 33.84C189.31 33.6533 189.23 33.44 189.07 33.2C188.937 32.96 188.83 32.76 188.75 32.6C188.617 32.3067 188.51 31.8533 188.43 31.24C188.35 30.6267 188.31 30.1333 188.31 29.76C188.31 29.5733 188.31 29.12 188.31 28.4C188.31 27.6533 188.297 26.8667 188.27 26.04C188.27 25.1867 188.257 24.3867 188.23 23.64C188.23 22.8667 188.217 22.3733 188.19 22.16C188.137 22 188.057 21.84 187.95 21.68C187.844 21.5467 187.697 21.3867 187.51 21.2C187.35 21.0133 187.137 20.8133 186.87 20.6L186.23 20.16C186.257 20.0533 186.31 19.96 186.39 19.88C186.417 19.8533 186.457 19.8267 186.51 19.8C186.564 19.7733 186.857 19.76 187.39 19.76C187.95 19.7333 188.577 19.72 189.27 19.72C189.99 19.6933 190.71 19.68 191.43 19.68C192.15 19.6533 192.697 19.6133 193.07 19.56C194.03 19.4533 194.657 19.3333 194.95 19.2C195.244 19.0667 195.27 19 195.03 19C194.817 19.0267 194.43 19.04 193.87 19.04H188.39L188.27 8.88ZM226.679 33.56C226.626 33.7467 226.559 33.9333 226.479 34.12C226.426 34.28 226.333 34.4267 226.199 34.56C226.066 34.6933 225.879 34.8 225.639 34.88C225.426 34.96 225.119 35 224.719 35L205.879 35.04V34.36C206.626 34.2533 207.266 34.1333 207.799 34C208.359 33.8667 208.813 33.68 209.159 33.44C209.533 33.1733 209.813 32.8267 209.999 32.4C210.186 31.9733 210.293 31.4 210.319 30.68C210.346 30.12 210.359 29.28 210.359 28.16C210.359 27.04 210.359 25.8533 210.359 24.6C210.359 23.32 210.359 22.1067 210.359 20.96C210.359 19.7867 210.359 18.88 210.359 18.24C210.359 16.96 210.359 15.5867 210.359 14.12C210.359 12.6533 210.333 11.3733 210.279 10.28C210.253 9.56 210.146 8.98667 209.959 8.56C209.773 8.13333 209.493 7.8 209.119 7.56C208.746 7.29333 208.279 7.09333 207.719 6.96C207.186 6.82667 206.546 6.70667 205.799 6.6V5.92H221.599C223.013 5.92 223.999 5.88 224.559 5.8C225.146 5.69333 225.559 5.45333 225.799 5.08L226.319 5.28L225.879 11.64H225.159C225.106 11.1067 225.026 10.6667 224.919 10.32C224.813 9.94666 224.693 9.65333 224.559 9.44C224.426 9.17333 224.266 8.97333 224.079 8.84C223.626 8.46666 223.026 8.24 222.279 8.16C221.559 8.08 220.853 8.04 220.159 8.04L215.119 8V18.84H221.839C222.266 18.84 222.626 18.8 222.919 18.72C223.213 18.6133 223.453 18.4667 223.639 18.28C223.853 18.0667 224.026 17.8267 224.159 17.56C224.319 17.2933 224.466 16.9733 224.599 16.6C224.599 16.6267 224.626 16.64 224.679 16.64C224.733 16.6667 224.786 16.68 224.839 16.68C224.893 16.68 224.973 16.7067 225.079 16.76L224.719 24.08L224.119 24.04C224.119 23.9333 224.106 23.76 224.079 23.52C224.053 23.28 223.999 23.0133 223.919 22.72C223.813 22.32 223.613 21.9067 223.319 21.48C223.026 21.0267 222.559 20.8 221.919 20.8H215.119V24C215.119 24.3733 215.119 24.8133 215.119 25.32C215.119 25.8 215.119 26.3067 215.119 26.84C215.146 27.3467 215.159 27.84 215.159 28.32C215.159 28.8 215.159 29.1867 215.159 29.48C215.159 30.84 215.466 31.8267 216.079 32.44C216.719 33.0267 217.933 33.2533 219.719 33.12C220.093 33.0933 220.359 33.08 220.519 33.08C220.679 33.0533 220.813 33.04 220.919 33.04C221.026 33.04 221.146 33.04 221.279 33.04C221.413 33.0133 221.653 32.9733 221.999 32.92C222.586 32.84 223.119 32.7333 223.599 32.6C224.106 32.4667 224.559 32.24 224.959 31.92C225.386 31.6 225.786 31.1467 226.159 30.56C226.533 29.9733 226.893 29.2 227.239 28.24L227.959 28.4L226.679 33.56ZM225.439 6.16C225.493 6.05333 225.186 6.06667 224.519 6.2C223.879 6.33333 222.879 6.37333 221.519 6.32C220.026 6.26667 218.733 6.26667 217.639 6.32C216.546 6.34667 215.386 6.37333 214.159 6.4C213.866 6.4 213.506 6.44 213.079 6.52C212.679 6.57333 212.306 6.65333 211.959 6.76C211.719 6.81333 211.533 6.88 211.399 6.96C211.266 7.01333 211.173 7.08 211.119 7.16C211.066 7.24 211.106 7.30667 211.239 7.36C211.559 7.6 211.813 7.84 211.999 8.08C212.186 8.32 212.279 8.70667 212.279 9.24C212.279 9.56 212.293 10.56 212.319 12.24C212.319 12.96 212.319 13.8667 212.319 14.96C212.346 16.0533 212.359 17.3867 212.359 18.96C212.359 20.5067 212.359 22.3333 212.359 24.44C212.386 26.52 212.413 28.9333 212.439 31.68C212.493 32.2933 212.666 32.7333 212.959 33C213.253 33.24 213.613 33.44 214.039 33.6C214.439 33.7333 215.066 33.84 215.919 33.92C216.773 34 217.693 33.9733 218.679 33.84C218.999 33.8133 219.293 33.7733 219.559 33.72C219.773 33.6667 219.986 33.6133 220.199 33.56C220.413 33.48 220.546 33.4 220.599 33.32C220.066 33.4533 219.559 33.52 219.079 33.52C218.626 33.52 218.213 33.4933 217.839 33.44C217.413 33.3867 217.013 33.3067 216.639 33.2C216.293 33.0667 215.973 32.88 215.679 32.64C215.413 32.4 215.213 32.1333 215.079 31.84C214.973 31.5467 214.879 31.2267 214.799 30.88C214.719 30.5333 214.679 30.1733 214.679 29.8C214.679 29.6133 214.679 29.16 214.679 28.44C214.679 27.6933 214.666 26.9067 214.639 26.08C214.639 25.2267 214.626 24.4267 214.599 23.68C214.573 22.9067 214.546 22.4133 214.519 22.2C214.466 22.04 214.386 21.8667 214.279 21.68C214.173 21.52 214.039 21.36 213.879 21.2C213.719 21.0133 213.493 20.8133 213.199 20.6L212.599 20.2C212.599 20.0933 212.639 20 212.719 19.92C212.746 19.8933 212.786 19.8667 212.839 19.84C212.893 19.8133 213.186 19.8 213.719 19.8C214.279 19.7733 214.919 19.7467 215.639 19.72C216.359 19.6933 217.066 19.68 217.759 19.68C218.479 19.6533 219.039 19.6133 219.439 19.56C220.399 19.4533 221.013 19.3467 221.279 19.24C221.573 19.1067 221.599 19.04 221.359 19.04H220.199C219.719 19.04 219.039 19.0533 218.159 19.08C217.306 19.08 216.159 19.0667 214.719 19.04L214.639 8.88C214.639 8.66667 214.546 8.46667 214.359 8.28C214.173 8.09333 213.986 7.92 213.799 7.76C213.613 7.6 213.479 7.48 213.399 7.4C213.319 7.29333 213.386 7.21333 213.599 7.16C213.919 7.10667 214.386 7.06667 214.999 7.04C215.613 7.01333 216.266 7 216.959 7C217.679 7 218.373 7 219.039 7C219.733 7 220.293 7 220.719 7C221.039 7 221.426 7.01333 221.879 7.04C222.359 7.04 222.826 7.02666 223.279 7C223.733 6.94667 224.159 6.86667 224.559 6.76C224.959 6.62667 225.253 6.42667 225.439 6.16ZM226.799 31.24C226.666 31.48 226.546 31.6933 226.439 31.88C226.333 32.04 226.239 32.1867 226.159 32.32C226.053 32.4533 225.959 32.5733 225.879 32.68C225.746 32.8133 225.573 32.96 225.359 33.12C225.173 33.2533 224.986 33.3467 224.799 33.4C224.746 33.4267 224.813 33.4667 224.999 33.52C225.213 33.5467 225.399 33.6533 225.559 33.84C225.586 33.8667 225.613 33.9067 225.639 33.96C225.693 34.04 225.759 34.1067 225.839 34.16C225.839 34.2133 225.853 34.24 225.879 34.24C225.906 34.2133 225.933 34.1733 225.959 34.12L226.039 33.96C226.093 33.8533 226.146 33.7467 226.199 33.64C226.253 33.5067 226.346 33.1733 226.479 32.64L226.799 31.24ZM225.919 6.08C225.839 6.21333 225.746 6.32 225.639 6.4C225.559 6.45333 225.479 6.50666 225.399 6.56C225.293 6.64 225.199 6.69333 225.119 6.72C224.826 6.82667 224.639 6.89333 224.559 6.92C224.479 6.94667 224.413 6.98666 224.359 7.04C224.306 7.09333 224.373 7.16 224.559 7.24C224.746 7.32 224.893 7.42666 224.999 7.56C225.026 7.58666 225.066 7.64 225.119 7.72C225.226 7.88 225.346 8.02667 225.479 8.16C225.533 8.18667 225.586 8.13333 225.639 8C225.666 7.94667 225.693 7.88 225.719 7.8C225.746 7.69333 225.773 7.58667 225.799 7.48C225.826 7.37333 225.839 7.25333 225.839 7.12C225.839 6.98667 225.853 6.81333 225.879 6.6L225.919 6.08ZM224.559 19.08C224.559 18.9467 224.546 18.8533 224.519 18.8C224.493 18.72 224.453 18.7067 224.399 18.76C224.266 19.08 224.146 19.3067 224.039 19.44C223.959 19.5467 223.893 19.6267 223.839 19.68C223.759 19.7867 223.813 20.0133 223.999 20.36C224.186 20.68 224.319 21.1067 224.399 21.64C224.399 21.6933 224.399 21.6533 224.399 21.52C224.426 21.36 224.439 21.1733 224.439 20.96C224.466 20.72 224.493 20.48 224.519 20.24C224.546 19.9733 224.559 19.7467 224.559 19.56V19.08Z" fill="#CDBD55"/>
<path d="M159.91 80.55C159.43 80.77 158.87 80.94 158.23 81.06C157.61 81.18 157 81.27 156.4 81.33C155.82 81.39 155.31 81.43 154.87 81.45C154.43 81.47 154.15 81.48 154.03 81.48C152.25 81.48 150.55 81.25 148.93 80.79C147.33 80.31 145.92 79.6 144.7 78.66C143.5 77.7 142.54 76.5 141.82 75.06C141.1 73.62 140.74 71.94 140.74 70.02C140.74 68.2 141.09 66.59 141.79 65.19C142.51 63.79 143.46 62.62 144.64 61.68C145.82 60.72 147.17 60 148.69 59.52C150.23 59.02 151.83 58.77 153.49 58.77C154.81 58.77 155.9 58.87 156.76 59.07C157.64 59.25 158.3 59.36 158.74 59.4C159.18 59.44 159.55 59.46 159.85 59.46C160.17 59.44 160.47 59.37 160.75 59.25L161.17 59.43L160.78 64.8H160.21C160.05 63.9 159.78 63.15 159.4 62.55C159.02 61.95 158.53 61.47 157.93 61.11C157.35 60.75 156.66 60.5 155.86 60.36C155.08 60.2 154.22 60.12 153.28 60.12C151.98 60.12 150.81 60.36 149.77 60.84C148.75 61.3 147.88 61.94 147.16 62.76C146.44 63.58 145.89 64.55 145.51 65.67C145.13 66.79 144.94 68 144.94 69.3C144.94 71.06 145.22 72.61 145.78 73.95C146.34 75.27 147.06 76.38 147.94 77.28C148.82 78.18 149.81 78.86 150.91 79.32C152.03 79.76 153.15 79.98 154.27 79.98C155.39 79.98 156.35 79.87 157.15 79.65C157.95 79.43 158.66 79.01 159.28 78.39C159.68 77.99 159.99 77.55 160.21 77.07C160.45 76.59 160.65 76.14 160.81 75.72L161.35 75.96L159.91 80.55ZM160.81 59.58C160.73 59.68 160.67 59.76 160.63 59.82C160.59 59.86 160.55 59.9 160.51 59.94C160.47 59.98 160.43 60.01 160.39 60.03C160.33 60.11 160.23 60.19 160.09 60.27C159.95 60.33 159.8 60.38 159.64 60.42C159.5 60.46 159.39 60.5 159.31 60.54C159.25 60.58 159.25 60.67 159.31 60.81C159.37 60.95 159.46 61.16 159.58 61.44C159.7 61.72 159.82 61.99 159.94 62.25C160 62.37 160.05 62.52 160.09 62.7C160.15 62.88 160.19 63.05 160.21 63.21C160.25 63.37 160.28 63.51 160.3 63.63C160.34 63.73 160.38 63.78 160.42 63.78C160.44 63.78 160.46 63.77 160.48 63.75C160.54 63.69 160.57 63.62 160.57 63.54L160.81 59.58ZM160.78 76.8C160.74 76.8 160.67 76.89 160.57 77.07C160.47 77.23 160.35 77.44 160.21 77.7C160.07 77.96 159.92 78.23 159.76 78.51C159.6 78.77 159.45 78.99 159.31 79.17C159.11 79.41 158.94 79.58 158.8 79.68C158.66 79.76 158.49 79.84 158.29 79.92C158.09 80 157.88 80.06 157.66 80.1C157.44 80.12 157.32 80.17 157.3 80.25C157.3 80.29 157.34 80.3 157.42 80.28C157.52 80.24 157.65 80.21 157.81 80.19C157.99 80.15 158.18 80.12 158.38 80.1C158.6 80.08 158.82 80.09 159.04 80.13L159.28 80.19C159.42 80.23 159.54 80.28 159.64 80.34C159.96 79.46 160.2 78.78 160.36 78.3C160.52 77.82 160.63 77.47 160.69 77.25C160.77 76.99 160.8 76.84 160.78 76.8ZM152.23 59.79C152.27 59.77 152.24 59.76 152.14 59.76C152.04 59.74 151.9 59.73 151.72 59.73C151.54 59.73 151.32 59.74 151.06 59.76C150.82 59.78 150.57 59.82 150.31 59.88C150.05 59.94 149.73 60.03 149.35 60.15C148.99 60.27 148.59 60.44 148.15 60.66C147.71 60.86 147.26 61.11 146.8 61.41C146.36 61.71 145.94 62.06 145.54 62.46C145.26 62.74 144.96 63.11 144.64 63.57C144.32 64.03 144.02 64.56 143.74 65.16C143.46 65.76 143.22 66.43 143.02 67.17C142.84 67.91 142.74 68.69 142.72 69.51C142.7 70.33 142.76 71.13 142.9 71.91C143.04 72.67 143.23 73.38 143.47 74.04C143.71 74.7 143.98 75.3 144.28 75.84C144.58 76.36 144.89 76.79 145.21 77.13C145.51 77.47 145.87 77.8 146.29 78.12C146.73 78.44 147.18 78.73 147.64 78.99C148.12 79.23 148.6 79.44 149.08 79.62C149.58 79.8 150.06 79.92 150.52 79.98C150.86 80.02 151.11 80.04 151.27 80.04C151.45 80.02 151.56 80 151.6 79.98C151.66 79.94 151.68 79.9 151.66 79.86C151.64 79.82 151.61 79.79 151.57 79.77C151.33 79.71 151.12 79.65 150.94 79.59C150.76 79.53 150.58 79.46 150.4 79.38C150.24 79.3 150.06 79.21 149.86 79.11C149.66 78.99 149.41 78.84 149.11 78.66C148.69 78.42 148.31 78.14 147.97 77.82C147.65 77.5 147.36 77.18 147.1 76.86C146.86 76.54 146.65 76.24 146.47 75.96C146.29 75.68 146.14 75.45 146.02 75.27C145.9 75.09 145.75 74.81 145.57 74.43C145.39 74.03 145.22 73.55 145.06 72.99C144.92 72.43 144.79 71.81 144.67 71.13C144.57 70.45 144.54 69.74 144.58 69C144.64 67.52 144.86 66.29 145.24 65.31C145.64 64.33 146.16 63.42 146.8 62.58C147.08 62.26 147.4 61.95 147.76 61.65C148.08 61.39 148.48 61.13 148.96 60.87C149.44 60.59 150 60.35 150.64 60.15C151.24 60.03 151.66 59.94 151.9 59.88C152.04 59.84 152.15 59.81 152.23 59.79ZM181.037 79.89C180.977 80.19 180.857 80.45 180.677 80.67C180.517 80.89 180.147 81 179.567 81H164.327V80.49C164.867 80.41 165.347 80.32 165.767 80.22C166.187 80.12 166.537 79.98 166.817 79.8C167.097 79.6 167.307 79.34 167.447 79.02C167.607 78.7 167.697 78.27 167.717 77.73C167.737 77.31 167.747 76.68 167.747 75.84C167.767 75 167.777 74.11 167.777 73.17C167.777 72.21 167.767 71.3 167.747 70.44C167.747 69.56 167.747 68.88 167.747 68.4C167.747 67.92 167.747 67.42 167.747 66.9C167.747 66.36 167.747 65.83 167.747 65.31C167.747 64.77 167.737 64.26 167.717 63.78C167.717 63.28 167.707 62.82 167.687 62.4C167.667 61.86 167.607 61.43 167.507 61.11C167.407 60.77 167.247 60.51 167.027 60.33C166.827 60.13 166.557 59.98 166.217 59.88C165.877 59.78 165.457 59.69 164.957 59.61V59.13H174.227V59.64C173.227 59.74 172.507 59.98 172.067 60.36C171.627 60.74 171.377 61.41 171.317 62.37C171.297 62.71 171.277 63.12 171.257 63.6C171.257 64.06 171.257 64.62 171.257 65.28L171.227 71.01C171.227 71.27 171.227 71.63 171.227 72.09C171.247 72.55 171.257 73.06 171.257 73.62C171.257 74.16 171.257 74.71 171.257 75.27C171.277 75.83 171.287 76.34 171.287 76.8C171.287 77.22 171.327 77.61 171.407 77.97C171.487 78.33 171.637 78.64 171.857 78.9C172.077 79.16 172.377 79.36 172.757 79.5C173.157 79.64 173.657 79.69 174.257 79.65C174.877 79.61 175.327 79.59 175.607 79.59C175.887 79.57 176.107 79.56 176.267 79.56C176.427 79.54 176.577 79.53 176.717 79.53C176.877 79.51 177.147 79.48 177.527 79.44C178.047 79.4 178.487 79.33 178.847 79.23C179.207 79.13 179.527 78.95 179.807 78.69C180.087 78.43 180.337 78.08 180.557 77.64C180.797 77.2 181.047 76.61 181.307 75.87L181.847 75.99L181.037 79.89ZM181.277 77.31C181.197 77.29 181.127 77.38 181.067 77.58C181.007 77.76 180.897 78 180.737 78.3C180.537 78.7 180.297 79.06 180.017 79.38C179.757 79.68 179.397 79.83 178.937 79.83C178.617 79.87 178.467 79.93 178.487 80.01C178.487 80.03 178.547 80.04 178.667 80.04C178.807 80.04 178.967 80.04 179.147 80.04C179.327 80.04 179.507 80.04 179.687 80.04C179.887 80.02 180.047 80 180.167 79.98C180.487 79.94 180.667 79.85 180.707 79.71C180.767 79.55 180.817 79.41 180.857 79.29C180.957 78.87 181.027 78.54 181.067 78.3C181.127 78.04 181.177 77.83 181.217 77.67C181.257 77.51 181.277 77.39 181.277 77.31ZM170.957 63.09C170.957 62.33 171.037 61.68 171.197 61.14C171.377 60.58 171.677 60.19 172.097 59.97C172.257 59.87 172.437 59.8 172.637 59.76C172.857 59.72 172.967 59.67 172.967 59.61L172.937 59.58C172.917 59.58 172.887 59.58 172.847 59.58C172.827 59.56 172.797 59.55 172.757 59.55C172.577 59.55 172.357 59.59 172.097 59.67C171.837 59.75 171.587 59.84 171.347 59.94C171.127 60.04 170.937 60.14 170.777 60.24C170.617 60.32 170.537 60.36 170.537 60.36C170.357 60.42 170.177 60.45 169.997 60.45C169.717 60.45 169.467 60.41 169.247 60.33C169.047 60.23 168.887 60.17 168.767 60.15C168.567 60.15 168.467 60.2 168.467 60.3C168.467 60.38 168.567 60.48 168.767 60.6C169.087 60.8 169.277 61.06 169.337 61.38C169.397 61.68 169.427 61.97 169.427 62.25V66.27C169.407 68.23 169.387 70.02 169.367 71.64C169.367 72.34 169.357 73.03 169.337 73.71C169.337 74.39 169.337 75.02 169.337 75.6C169.337 76.16 169.337 76.65 169.337 77.07C169.357 77.47 169.377 77.74 169.397 77.88C169.437 78.42 169.557 78.85 169.757 79.17C169.977 79.47 170.267 79.7 170.627 79.86C170.987 80.02 171.417 80.13 171.917 80.19C172.417 80.23 172.977 80.25 173.597 80.25C173.757 80.25 173.937 80.25 174.137 80.25C174.357 80.23 174.547 80.21 174.707 80.19C174.887 80.15 175.027 80.11 175.127 80.07C175.227 80.03 175.247 79.98 175.187 79.92C174.667 79.94 174.217 79.95 173.837 79.95C173.457 79.93 173.127 79.9 172.847 79.86C172.587 79.8 172.357 79.71 172.157 79.59C171.977 79.47 171.807 79.32 171.647 79.14C171.547 79.04 171.457 78.93 171.377 78.81C171.317 78.69 171.257 78.53 171.197 78.33C171.137 78.13 171.087 77.89 171.047 77.61C171.007 77.31 170.987 76.93 170.987 76.47C170.987 76.29 170.977 76.03 170.957 75.69C170.957 75.35 170.957 74.98 170.957 74.58C170.957 74.18 170.947 73.78 170.927 73.38C170.927 72.98 170.927 72.63 170.927 72.33L170.957 63.09ZM208.517 59.67C207.937 59.75 207.437 59.84 207.017 59.94C206.617 60.04 206.277 60.19 205.997 60.39C205.737 60.57 205.537 60.82 205.397 61.14C205.257 61.46 205.177 61.89 205.157 62.43C205.137 62.85 205.117 63.43 205.097 64.17C205.097 64.89 205.097 65.65 205.097 66.45C205.097 67.25 205.087 68.03 205.067 68.79C205.067 69.55 205.067 70.17 205.067 70.65V71.46C205.067 72.26 205.017 73.05 204.917 73.83C204.837 74.61 204.677 75.36 204.437 76.08C204.217 76.78 203.907 77.44 203.507 78.06C203.107 78.68 202.607 79.23 202.007 79.71C201.127 80.41 200.187 80.89 199.187 81.15C198.207 81.41 197.177 81.54 196.097 81.54C194.877 81.54 193.667 81.4 192.467 81.12C191.267 80.84 190.207 80.29 189.287 79.47C188.607 78.87 188.067 78.14 187.667 77.28C187.267 76.42 187.027 75.4 186.947 74.22C186.907 73.84 186.877 73.4 186.857 72.9C186.857 72.4 186.847 71.89 186.827 71.37C186.827 70.85 186.827 70.33 186.827 69.81C186.827 69.29 186.827 68.83 186.827 68.43C186.827 67.47 186.827 66.44 186.827 65.34C186.827 64.24 186.807 63.27 186.767 62.43C186.747 61.89 186.667 61.46 186.527 61.14C186.387 60.82 186.177 60.57 185.897 60.39C185.617 60.19 185.267 60.04 184.847 59.94C184.447 59.84 183.967 59.75 183.407 59.67V59.19H193.757V59.7C193.137 59.76 192.627 59.86 192.227 60C191.827 60.12 191.507 60.29 191.267 60.51C191.027 60.73 190.847 61 190.727 61.32C190.627 61.62 190.557 61.98 190.517 62.4C190.477 62.74 190.457 63.15 190.457 63.63C190.457 64.11 190.457 64.67 190.457 65.31L190.517 71.55C190.537 73.25 190.727 74.71 191.087 75.93C191.447 77.13 192.177 78.08 193.277 78.78C193.877 79.18 194.497 79.45 195.137 79.59C195.797 79.73 196.477 79.8 197.177 79.8C197.977 79.8 198.747 79.65 199.487 79.35C200.227 79.03 200.847 78.61 201.347 78.09C201.707 77.71 201.997 77.28 202.217 76.8C202.437 76.32 202.597 75.81 202.697 75.27C202.817 74.71 202.887 74.11 202.907 73.47C202.947 72.83 202.967 72.16 202.967 71.46L202.877 65.31C202.857 64.67 202.847 64.11 202.847 63.63C202.867 63.13 202.857 62.71 202.817 62.37C202.777 61.95 202.697 61.59 202.577 61.29C202.477 60.99 202.307 60.73 202.067 60.51C201.827 60.29 201.507 60.12 201.107 60C200.707 59.86 200.197 59.76 199.577 59.7V59.19H208.517V59.67ZM204.557 60.42C204.417 60.46 204.297 60.49 204.197 60.51C204.097 60.51 204.017 60.51 203.957 60.51C203.857 60.49 203.757 60.47 203.657 60.45C203.577 60.41 203.517 60.38 203.477 60.36C203.377 60.32 203.317 60.32 203.297 60.36C203.277 60.4 203.347 60.48 203.507 60.6C203.867 60.84 204.047 61.74 204.047 63.3C204.047 63.36 204.047 63.6 204.047 64.02C204.047 64.42 204.047 64.92 204.047 65.52C204.047 66.12 204.047 66.77 204.047 67.47C204.047 68.17 204.047 68.84 204.047 69.48C204.047 70.1 204.047 70.64 204.047 71.1C204.047 71.56 204.047 71.85 204.047 71.97C204.047 72.15 204.037 72.39 204.017 72.69C204.017 72.97 204.007 73.27 203.987 73.59C203.987 73.89 203.967 74.19 203.927 74.49C203.907 74.77 203.887 74.99 203.867 75.15C203.767 75.73 203.667 76.19 203.567 76.53C203.487 76.87 203.397 77.15 203.297 77.37C203.257 77.47 203.247 77.54 203.267 77.58C203.287 77.6 203.327 77.6 203.387 77.58C203.447 77.54 203.507 77.49 203.567 77.43C203.627 77.35 203.677 77.28 203.717 77.22C203.857 76.94 204.007 76.63 204.167 76.29C204.327 75.93 204.457 75.49 204.557 74.97C204.637 74.55 204.697 74.09 204.737 73.59C204.797 73.07 204.837 72.55 204.857 72.03C204.897 71.51 204.917 71 204.917 70.5C204.917 69.98 204.917 69.49 204.917 69.03C204.917 68.79 204.917 68.4 204.917 67.86C204.917 67.32 204.917 66.76 204.917 66.18C204.937 65.58 204.947 65.02 204.947 64.5C204.947 63.96 204.947 63.59 204.947 63.39C204.947 63.27 204.947 63.11 204.947 62.91C204.967 62.71 204.987 62.5 205.007 62.28C205.027 62.06 205.047 61.85 205.067 61.65C205.107 61.43 205.147 61.26 205.187 61.14C205.287 60.84 205.427 60.61 205.607 60.45C205.787 60.27 205.917 60.16 205.997 60.12C206.077 60.08 206.157 60.04 206.237 60C206.317 59.94 206.337 59.89 206.297 59.85C206.237 59.81 206.127 59.8 205.967 59.82C205.827 59.84 205.667 59.88 205.487 59.94C205.327 60 205.167 60.08 205.007 60.18C204.867 60.28 204.717 60.36 204.557 60.42ZM188.657 64.47C188.657 64.65 188.657 64.98 188.657 65.46C188.677 65.94 188.687 66.49 188.687 67.11C188.687 67.73 188.687 68.38 188.687 69.06C188.707 69.74 188.717 70.38 188.717 70.98C188.737 71.58 188.747 72.1 188.747 72.54C188.747 72.98 188.757 73.27 188.777 73.41C188.797 73.61 188.817 73.87 188.837 74.19C188.877 74.51 188.937 74.86 189.017 75.24C189.097 75.6 189.197 75.98 189.317 76.38C189.457 76.76 189.637 77.12 189.857 77.46C190.217 78.02 190.667 78.5 191.207 78.9C191.767 79.28 192.277 79.57 192.737 79.77C193.257 79.99 193.847 80.17 194.507 80.31C195.167 80.45 195.897 80.5 196.697 80.46C197.017 80.46 197.357 80.43 197.717 80.37C198.017 80.33 198.347 80.26 198.707 80.16C199.067 80.04 199.417 79.89 199.757 79.71C200.057 79.55 200.207 79.46 200.207 79.44C200.227 79.42 200.227 79.4 200.207 79.38C200.127 79.36 199.937 79.4 199.637 79.5C199.357 79.58 199.067 79.67 198.767 79.77C198.507 79.85 198.087 79.92 197.507 79.98C196.927 80.04 196.297 80.02 195.617 79.92C194.917 79.82 194.287 79.64 193.727 79.38C193.187 79.12 192.657 78.73 192.137 78.21C191.797 77.89 191.517 77.54 191.297 77.16C191.097 76.78 190.937 76.4 190.817 76.02C190.697 75.62 190.607 75.24 190.547 74.88C190.487 74.52 190.447 74.2 190.427 73.92C190.407 73.74 190.387 73.44 190.367 73.02C190.347 72.6 190.327 72.14 190.307 71.64C190.287 71.12 190.267 70.59 190.247 70.05C190.247 69.49 190.237 68.98 190.217 68.52C190.217 68.04 190.217 67.63 190.217 67.29C190.217 66.95 190.217 66.74 190.217 66.66C190.217 66.58 190.217 66.41 190.217 66.15C190.217 65.87 190.217 65.55 190.217 65.19C190.217 64.83 190.217 64.45 190.217 64.05C190.237 63.65 190.257 63.28 190.277 62.94C190.277 62.16 190.347 61.57 190.487 61.17C190.627 60.75 190.907 60.41 191.327 60.15C191.627 59.97 191.957 59.84 192.317 59.76C192.677 59.68 192.857 59.62 192.857 59.58C192.857 59.56 192.817 59.54 192.737 59.52C192.657 59.5 192.537 59.5 192.377 59.52C192.217 59.54 191.967 59.58 191.627 59.64C191.167 59.74 190.717 59.89 190.277 60.09C189.857 60.27 189.487 60.38 189.167 60.42C188.647 60.48 188.247 60.45 187.967 60.33C187.687 60.19 187.497 60.13 187.397 60.15C187.277 60.19 187.277 60.24 187.397 60.3C187.537 60.36 187.717 60.46 187.937 60.6C188.257 60.86 188.457 61.18 188.537 61.56C188.617 61.92 188.657 62.5 188.657 63.3V64.47ZM228.39 74.37C228.39 75.25 228.2 76.09 227.82 76.89C227.46 77.69 226.93 78.4 226.23 79.02C225.53 79.62 224.68 80.1 223.68 80.46C222.7 80.82 221.59 81 220.35 81H210.48V80.49C211.04 80.41 211.53 80.33 211.95 80.25C212.37 80.15 212.71 80 212.97 79.8C213.25 79.6 213.46 79.34 213.6 79.02C213.74 78.7 213.82 78.27 213.84 77.73C213.86 77.47 213.87 77.1 213.87 76.62C213.87 76.14 213.87 75.61 213.87 75.03C213.89 74.43 213.9 73.81 213.9 73.17C213.9 72.53 213.89 71.91 213.87 71.31C213.87 70.71 213.87 70.16 213.87 69.66C213.87 69.14 213.87 68.72 213.87 68.4C213.87 67.44 213.87 66.42 213.87 65.34C213.87 64.24 213.85 63.27 213.81 62.43C213.79 61.89 213.71 61.46 213.57 61.14C213.43 60.82 213.22 60.57 212.94 60.39C212.66 60.19 212.31 60.04 211.89 59.94C211.47 59.84 210.98 59.75 210.42 59.67V59.19C211.72 59.19 212.83 59.19 213.75 59.19C214.69 59.19 215.48 59.19 216.12 59.19C216.78 59.17 217.32 59.16 217.74 59.16C218.16 59.16 218.5 59.16 218.76 59.16C219.46 59.14 220.21 59.18 221.01 59.28C221.81 59.38 222.56 59.57 223.26 59.85C224.14 60.21 224.87 60.74 225.45 61.44C226.03 62.12 226.32 63.02 226.32 64.14C226.32 64.9 226.17 65.56 225.87 66.12C225.57 66.68 225.21 67.15 224.79 67.53C224.39 67.91 223.99 68.21 223.59 68.43C223.19 68.63 222.89 68.77 222.69 68.85V69C223.41 69.1 224.11 69.28 224.79 69.54C225.47 69.78 226.08 70.12 226.62 70.56C227.16 70.98 227.59 71.51 227.91 72.15C228.23 72.77 228.39 73.51 228.39 74.37ZM226.14 64.29C226.16 63.85 226.14 63.47 226.08 63.15C226.02 62.83 225.93 62.56 225.81 62.34C225.71 62.12 225.6 61.93 225.48 61.77C225.36 61.61 225.26 61.48 225.18 61.38C225.02 61.16 224.78 60.93 224.46 60.69C224.14 60.45 223.87 60.28 223.65 60.18C223.43 60.08 223.21 60.01 222.99 59.97C222.77 59.91 222.57 59.9 222.39 59.94C222.29 59.98 222.25 60.03 222.27 60.09C222.29 60.15 222.32 60.2 222.36 60.24L222.45 60.33C222.51 60.39 222.58 60.44 222.66 60.48C222.98 60.7 223.24 60.96 223.44 61.26C223.64 61.54 223.81 61.82 223.95 62.1C224.09 62.42 224.21 62.75 224.31 63.09C224.51 64.01 224.54 64.81 224.4 65.49C224.28 66.15 224.08 66.71 223.8 67.17C223.6 67.51 223.46 67.72 223.38 67.8C223.32 67.88 223.32 67.94 223.38 67.98C223.46 68.04 223.58 68.04 223.74 67.98C223.9 67.92 224.06 67.83 224.22 67.71C224.4 67.59 224.57 67.46 224.73 67.32C224.89 67.18 225.02 67.05 225.12 66.93C225.18 66.87 225.26 66.77 225.36 66.63C225.48 66.49 225.59 66.32 225.69 66.12C225.79 65.9 225.88 65.64 225.96 65.34C226.06 65.04 226.12 64.69 226.14 64.29ZM216.99 77.61C216.99 77.57 216.99 77.34 216.99 76.92C216.99 76.5 216.98 75.98 216.96 75.36C216.96 74.72 216.95 74.03 216.93 73.29C216.93 72.55 216.93 71.84 216.93 71.16C216.93 70.48 216.93 69.88 216.93 69.36C216.93 68.84 216.93 68.48 216.93 68.28V62.22C216.93 61.74 216.95 61.36 216.99 61.08C217.05 60.78 217.18 60.54 217.38 60.36C217.52 60.24 217.75 60.11 218.07 59.97C218.39 59.83 218.91 59.78 219.63 59.82C219.67 59.82 219.69 59.8 219.69 59.76C219.71 59.72 219.71 59.7 219.69 59.7C219.15 59.6 218.7 59.57 218.34 59.61C217.98 59.65 217.65 59.72 217.35 59.82C217.07 59.9 216.8 60 216.54 60.12C216.28 60.22 215.98 60.29 215.64 60.33C215.28 60.37 214.98 60.34 214.74 60.24C214.52 60.12 214.27 60.04 213.99 60C213.89 60 213.81 60.02 213.75 60.06C213.71 60.08 213.71 60.1 213.75 60.12C214.13 60.28 214.47 60.45 214.77 60.63C215.09 60.81 215.25 61.14 215.25 61.62C215.27 61.78 215.29 62.48 215.31 63.72C215.31 64.24 215.31 64.91 215.31 65.73C215.33 66.53 215.34 67.53 215.34 68.73C215.34 69.91 215.34 71.3 215.34 72.9C215.36 74.5 215.37 76.36 215.37 78.48C215.37 78.9 215.46 79.24 215.64 79.5C215.82 79.76 216.05 79.97 216.33 80.13C216.61 80.27 216.92 80.37 217.26 80.43C217.6 80.47 217.94 80.5 218.28 80.52C218.4 80.54 218.62 80.54 218.94 80.52C219.28 80.48 219.62 80.43 219.96 80.37C220.02 80.35 220.06 80.34 220.08 80.34C220.12 80.32 220.09 80.3 219.99 80.28C219.33 80.24 218.8 80.14 218.4 79.98C218.02 79.82 217.72 79.62 217.5 79.38C217.3 79.12 217.16 78.84 217.08 78.54C217.02 78.24 216.99 77.93 216.99 77.61ZM224.88 74.94C224.88 74.16 224.71 73.45 224.37 72.81C224.05 72.15 223.62 71.58 223.08 71.1C222.54 70.62 221.92 70.25 221.22 69.99C220.52 69.73 219.8 69.6 219.06 69.6H218.58V69.03H219.06C220.26 69.03 221.21 68.64 221.91 67.86C222.63 67.08 222.99 66.07 222.99 64.83C222.99 64.11 222.87 63.47 222.63 62.91C222.39 62.35 222.06 61.88 221.64 61.5C221.24 61.1 220.77 60.8 220.23 60.6C219.71 60.4 219.15 60.3 218.55 60.3C218.25 60.3 218.01 60.35 217.83 60.45C217.67 60.55 217.54 60.67 217.44 60.81C217.36 60.93 217.31 61.07 217.29 61.23C217.27 61.37 217.26 61.49 217.26 61.59L217.29 65.01C217.31 66.61 217.32 68.2 217.32 69.78C217.34 71.36 217.34 72.96 217.32 74.58C217.32 75.22 217.32 75.81 217.32 76.35C217.34 76.89 217.36 77.22 217.38 77.34C217.4 77.76 217.45 78.14 217.53 78.48C217.63 78.8 217.8 79.07 218.04 79.29C218.28 79.51 218.6 79.68 219 79.8C219.42 79.92 219.95 79.98 220.59 79.98C221.03 79.98 221.5 79.89 222 79.71C222.5 79.51 222.96 79.21 223.38 78.81C223.82 78.41 224.18 77.89 224.46 77.25C224.74 76.61 224.88 75.84 224.88 74.94ZM227.58 76.8C227.8 76.38 227.95 75.93 228.03 75.45C228.11 74.97 228.13 74.51 228.09 74.07C228.07 73.61 228 73.19 227.88 72.81C227.78 72.41 227.65 72.09 227.49 71.85C227.15 71.33 226.7 70.88 226.14 70.5C225.6 70.12 225.01 69.82 224.37 69.6C224.07 69.52 223.78 69.45 223.5 69.39C223.26 69.35 222.99 69.32 222.69 69.3C222.41 69.28 222.16 69.3 221.94 69.36C222.92 69.6 223.7 69.96 224.28 70.44C224.86 70.9 225.31 71.36 225.63 71.82C225.99 72.36 226.24 72.95 226.38 73.59C226.5 74.37 226.51 75.07 226.41 75.69C226.31 76.31 226.15 76.85 225.93 77.31C225.73 77.75 225.5 78.12 225.24 78.42C225 78.72 224.79 78.96 224.61 79.14C224.45 79.3 224.35 79.4 224.31 79.44C224.29 79.48 224.4 79.46 224.64 79.38C225.3 79.18 225.87 78.87 226.35 78.45C226.83 78.01 227.24 77.46 227.58 76.8Z" fill="#CDBD55"/>
<ellipse cx="116" cy="47" rx="115" ry="1" fill="#CDBD55"/>
</svg>
