<svg xmlns="http://www.w3.org/2000/svg" viewBox="0 0 512 512"><path fill="#efe2dd" d="M0 1.135v421.012l88.229 88.714h296.824V1.135z"/><path d="M195.95 1.135h189.11v509.73H195.95zM0 422.147h87.804v88.714z" fill="#e1d3ce"/><path d="M173.74 119.838h151.33v29.925H173.74zm0 59.85H352.4v29.925H173.74zm0 59.85h133.74v29.925H173.74zm0 119.7h72.74v29.925h-72.74zm-113.87-59.85h202.68v29.925H59.87z" fill="#00215a"/><path d="M110.683 221.78h-4.444a5.677 5.677 0 01-5.671-5.671H70.643c0 15.139 9.504 28.093 22.856 33.23v20.088h29.925v-20.088c13.352-5.137 22.856-18.091 22.856-33.23 0-19.628-15.968-35.597-35.597-35.597h-4.444c-3.127 0-5.671-2.545-5.671-5.672s2.544-5.672 5.671-5.672h4.444a5.68 5.68 0 015.672 5.672h29.925c0-15.139-9.504-28.093-22.856-33.23v-20.086H93.498v20.087c-13.352 5.137-22.856 18.091-22.856 33.23 0 19.628 15.968 35.597 35.596 35.597h4.444c3.127 0 5.672 2.545 5.672 5.672s-2.544 5.67-5.671 5.67z" fill="#ec5569"/><path d="M195.95 119.838h129.12v29.925H195.95zm0 59.85H352.4v29.925H195.95zm0 59.85h111.53v29.925H195.95zm0 119.7h50.53v29.925h-50.53zm0-59.85h66.61v29.925h-66.61z" fill="#001035"/><path d="M434.64 63.301a5.102 5.102 0 01-1.373-1.102 44.767 44.767 0 00-2.406 2.996l-187.453 249.74-21.884 106.281 94.368-53.312 187.385-249.648.138-.187a46.653 46.653 0 001.783-2.665c-3.756-2.46-70.558-52.103-70.558-52.103z" fill="#00317e"/><path fill="#00215a" d="M504.331 116.835l-35.986-26.368-25.389 34.242.178.14-162.136 217.554 34.895 25.5z"/><path d="M430.862 65.196c14.57-19.936 42.635-24.351 62.626-9.827 9.701 7.048 16.075 17.451 17.95 29.294s-.974 23.707-8.022 33.407l-.138.187-72.416-53.061z" fill="#ec5569"/><path d="M503.278 118.254l.138-.187c7.048-9.7 9.896-21.564 8.022-33.407-1.838-11.609-8.001-22.086-17.95-29.294l-26.196 36.52 35.986 26.368z" fill="#e63950"/><path fill="#ffda2d" d="M423.749 291.979l-23.88-18.035 68.721-90.991-79.292-62.384 17.969-23.939 102.886 80.946z"/><path fill="#fdbf00" d="M442.956 124.709l-17.829 24.049 43.463 34.195-68.721 90.991 23.88 18.035 86.404-114.403z"/><path d="M315.893 367.903l-94.368 53.312 21.884-106.281 72.484 52.969z" fill="#0040a0"/><path fill="#00317e" d="M221.525 421.215l94.368-53.312-34.895-25.5z"/></svg>