<svg height="512" viewBox="0 0 64 64" width="512" xmlns="http://www.w3.org/2000/svg"><path d="M61 3l-3 19-4-4-19 19-8-8 19-19-4-4zm-1 33l2 12-12-2 3.5-3.5-4.09-4.09c-.78-.78-2.04-.78-2.82 0L39 46l-3-3 7.76-7.76a6 6 0 018.48 0l4.26 4.26zM28.76 11.76a6 6 0 010 8.48L21 28l-3-3 7.59-7.59c.78-.78.78-2.04 0-2.82L21.5 10.5 18 14 16 2l12 2-3.5 3.5z" fill="#b4dd7f"/><path d="M18 30c8.84 0 16 7.16 16 16s-7.16 16-16 16S2 54.84 2 46s7.16-16 16-16z" fill="#ffc729"/><circle cx="18" cy="46" fill="#fcd770" r="12"/><path d="M18 41c1.103 0 2 .897 2 2h2c0-1.858-1.28-3.411-3-3.858V37h-2v2h-3v4c0 2.206 1.794 4 4 4 1.103 0 2 .897 2 2v2h-2c-1.103 0-2-.897-2-2h-2c0 1.858 1.28 3.411 3 3.858V55h2v-2h3v-4c0-2.206-1.794-4-4-4-1.103 0-2-.897-2-2v-2z"/><path d="M18 29C8.626 29 1 36.626 1 46s7.626 17 17 17 17-7.626 17-17-7.626-17-17-17zm0 32C9.729 61 3 54.271 3 46s6.729-15 15-15 15 6.729 15 15-6.729 15-15 15z"/><path d="M18 33c-7.168 0-13 5.832-13 13s5.832 13 13 13 13-5.832 13-13-5.832-13-13-13zm0 24c-6.065 0-11-4.935-11-11s4.935-11 11-11 11 4.935 11 11-4.935 11-11 11z"/><path d="M25 45h2v2h-2zM9 45h2v2H9zm17.293-16.707l1.414 1.414L47.414 10l-3.318-3.318 15.702-2.48-2.48 15.702L54 16.586 40.293 30.293l1.414 1.414L54 19.414l4.682 4.682 3.52-22.298-22.298 3.52L44.586 10z"/><path d="M37.285 33.294l2-2 1.414 1.414-2 2zm-3 2.999l2-2 1.414 1.414-2 2zm28.931 12.924l-2.549-15.298-4.167 4.167-3.55-3.55a7.008 7.008 0 00-9.899 0l-4.757 4.757 1.414 1.414 4.757-4.757a5.006 5.006 0 017.071 0l4.964 4.964 2.833-2.833 1.451 8.703-8.703-1.451 2.833-2.833-4.793-4.793a3.002 3.002 0 00-4.242 0l-4.586 4.586 1.414 1.414 4.586-4.586a1.025 1.025 0 011.414 0l3.379 3.379-4.167 4.167zM21.5 11.914l3.379 3.379c.188.189.292.44.292.707s-.104.518-.292.707l-4.586 4.586 1.414 1.414 4.586-4.586a3.002 3.002 0 000-4.242L21.5 9.086l-2.833 2.833-1.451-8.703 8.703 1.451L23.086 7.5l4.964 4.964a5.006 5.006 0 010 7.071l-4.757 4.757 1.414 1.414 4.757-4.757a7.008 7.008 0 000-9.899l-3.55-3.55 4.167-4.167L14.783.784l2.55 15.297zm16.784 33.379l2-2 1.414 1.414-2 2zm-20.996-21l2-2 1.414 1.414-2 2zm19.656-1.655l1.343-1.343 1.414 1.414-1.343 1.343zm-2.829 2.827l1.414-1.414 1.414 1.414-1.414 1.414zm-2.829 2.828L32.7 26.88l1.414 1.414-1.414 1.414zM48.943 16.64l1.343-1.343L51.7 16.71l-1.343 1.343zm-5.657 5.655l1.414-1.414 1.414 1.414L44.7 23.71zm2.829-2.828l1.414-1.414 1.414 1.414-1.414 1.414z"/></svg>