<svg height="512" width="512" xmlns="http://www.w3.org/2000/svg"><path d="M502 471.097H354.05c-5.523 0-10-4.477-10-10v-56.811c0-32.209 26.111-58.32 58.32-58.32h51.31c32.209 0 58.32 26.111 58.32 58.32v56.811c0 5.523-4.477 10-10 10z" fill="#27d1b3"/><path d="M452.14 424.211l-20.056 17.631a6.15 6.15 0 01-8.12 0l-20.056-17.631a6.151 6.151 0 01-1.897-6.145l18.473-72.1h15.079l18.473 72.1a6.145 6.145 0 01-1.896 6.145z" fill="#fb4a59"/><path d="M512 404.286v56.811c0 5.523-4.477 10-10 10h-20.354v-66.811c0-32.201-26.118-58.319-58.319-58.319h30.354c32.209-.001 58.319 26.11 58.319 58.319z" fill="#20b69f"/><path d="M428.025 351.11c-26.258 0-47.545-21.286-47.545-47.545v-17.163c0-26.258 21.286-47.545 47.545-47.545 26.258 0 47.545 21.286 47.545 47.545v17.163c0 26.259-21.287 47.545-47.545 47.545z" fill="#ffcec0"/><path d="M475.571 286.408v17.158c0 26.258-21.287 47.545-47.545 47.545a47.517 47.517 0 01-15.046-2.432c18.882-6.307 32.485-24.12 32.485-45.112v-17.158c0-13.122-5.318-25.015-13.924-33.621a47.53 47.53 0 00-18.561-11.492 47.517 47.517 0 0115.046-2.432c13.122 0 25.015 5.318 33.621 13.924 8.605 8.605 13.924 20.497 13.924 33.62z" fill="#fdb0a0"/><path d="M157.95 471.097H10c-5.523 0-10-4.477-10-10v-56.811c0-32.209 26.111-58.32 58.32-58.32h51.31c32.209 0 58.32 26.111 58.32 58.32v56.811c0 5.523-4.477 10-10 10z" fill="#fb4a59"/><path d="M108.091 424.211l-20.056 17.631a6.15 6.15 0 01-8.12 0l-20.056-17.631a6.151 6.151 0 01-1.897-6.145l18.473-72.1h15.079l18.473 72.1a6.149 6.149 0 01-1.896 6.145z" fill="#f8f3f1"/><path d="M167.95 404.286v56.811c0 5.523-4.477 10-10 10h-20.354v-66.811c0-32.201-26.118-58.319-58.319-58.319h30.354c32.209-.001 58.319 26.11 58.319 58.319z" fill="#f82f40"/><path d="M83.975 351.11c-26.258 0-47.545-21.286-47.545-47.545v-17.163c0-26.258 21.286-47.545 47.545-47.545 26.258 0 47.545 21.286 47.545 47.545v17.163c0 26.259-21.287 47.545-47.545 47.545z" fill="#ffcec0"/><path d="M131.521 286.408v17.158c0 26.258-21.287 47.545-47.545 47.545a47.517 47.517 0 01-15.046-2.432c18.882-6.307 32.485-24.12 32.485-45.112v-17.158c0-13.122-5.318-25.015-13.924-33.621a47.53 47.53 0 00-18.561-11.492 47.517 47.517 0 0115.046-2.432c13.122 0 25.015 5.318 33.621 13.924 8.606 8.605 13.924 20.497 13.924 33.62z" fill="#fdb0a0"/><path d="M363.999 503.546H148.001c-5.523 0-10-4.477-10-10v-92.649c0-45.259 36.69-81.949 81.949-81.949h72.1c45.259 0 81.949 36.69 81.949 81.949v92.649c0 5.523-4.477 10-10 10z" fill="#0d5f7f"/><path d="M373.999 400.897v92.649c0 5.523-4.477 10-10 10h-32.653V400.898c0-45.248-36.701-81.949-81.949-81.949h42.653c45.26 0 81.949 36.689 81.949 81.948z" fill="#094c66"/><path d="M318.928 323.466L256 443.319l-62.928-119.854a82.06 82.06 0 0126.886-4.51h72.084a82.092 82.092 0 0126.886 4.511z" fill="#fff"/><path d="M288.115 382.141L256 443.319l-32.115-61.178 23.13-63.185h17.97z" fill="#fb4a59"/><circle cx="177.079" cy="240.359" fill="#fdb0a0" r="25.304"/><circle cx="334.921" cy="240.359" fill="#f69583" r="25.304"/><path d="M256 326.177c-36.897 0-66.809-29.911-66.809-66.808v-24.117c0-36.897 29.911-66.808 66.808-66.808 36.897 0 66.808 29.911 66.808 66.808v24.117c.001 36.897-29.91 66.808-66.807 66.808z" fill="#ffcec0"/><path d="M322.811 235.252v24.112c0 36.91-29.915 66.809-66.81 66.809-5.525 0-10.911-.665-16.049-1.95 29.141-7.181 50.745-33.49 50.745-64.859v-24.112c0-18.447-7.475-35.146-19.577-47.248-8.465-8.465-19.175-14.656-31.169-17.612 5.138-1.285 10.524-1.95 16.049-1.95 18.447 0 35.146 7.475 47.248 19.562 12.088 12.102 19.563 28.8 19.563 47.248z" fill="#fdb0a0"/><path d="M344.673 217.233c-13.381 1.328-40.062 2.762-62.935-3.465-16.262-4.427-27.415-19.388-27.415-36.241v-25.498c0-12.928 10.48-23.409 23.409-23.409h17.61c31.983 0 57.91 25.927 57.91 57.91v21.227a9.514 9.514 0 01-8.579 9.476z" fill="#7a7179"/><path d="M353.255 186.536v21.227a9.51 9.51 0 01-8.59 9.465c-9.225.926-24.76 1.886-41.032.343 1.355-.12 2.606-.223 3.772-.343a9.508 9.508 0 008.573-9.465v-21.227c0-27.863-19.65-51.114-45.833-56.652a23.047 23.047 0 017.579-1.269h17.609c31.996 0 57.922 25.926 57.922 57.921z" fill="#685e67"/><path d="M167.243 219.824c15.155 1.6 47.886 3.681 75.804-3.918 19.169-5.218 32.316-22.854 32.316-42.72V143.13c0-15.24-12.354-27.594-27.594-27.594h-20.758c-37.701 0-68.263 30.562-68.263 68.263v26.56c0 4.861 3.66 8.954 8.495 9.465z" fill="#9b8f99"/><path d="M275.358 143.121v30.058c0 19.873-13.151 37.517-32.304 42.729-23.062 6.276-49.399 5.95-66.391 4.75 9.585-.755 19.479-2.212 28.823-4.75 19.17-5.212 32.321-22.856 32.321-42.729v-30.058c0-12.997-9.002-23.902-21.107-26.817a68.183 68.183 0 0110.305-.772h20.764c15.244 0 27.589 12.363 27.589 27.589z" fill="#8b8088"/><path d="M248.274 503.486V443.32a7.726 7.726 0 1115.452 0v60.166z" fill="#094c66"/><path d="M285.057 466.404h-.022l-.178-.001a7.727 7.727 0 01.022-15.453h.201a7.726 7.726 0 017.704 7.749 7.729 7.729 0 01-7.727 7.705z" fill="#fff"/><circle cx="136.533" cy="102.661" fill="#27d1b3" r="94.207"/><path d="M230.744 102.657c0 52.029-42.18 94.209-94.209 94.209a94.013 94.013 0 01-24.992-3.354c50.032-.165 90.545-40.784 90.545-90.855s-40.522-90.69-90.564-90.845a94.21 94.21 0 0125.011-3.354c52.029 0 94.209 42.17 94.209 94.199z" fill="#20b69f"/><path d="M111.343 148.755l-33.808-33.808a4.847 4.847 0 010-6.855L91.498 94.13a4.847 4.847 0 016.855 0l19.846 19.846 56.514-56.514a4.847 4.847 0 016.855 0l13.962 13.962a4.847 4.847 0 010 6.855l-70.477 70.476a9.694 9.694 0 01-13.71 0z" fill="#bcea73"/></svg>