<svg width="231" height="89" fill="none" xmlns="http://www.w3.org/2000/svg"><path d="M33.32 36.76c-2.693-.08-5-.547-6.92-1.4-1.893-.853-3.52-1.96-4.88-3.32a21.804 21.804 0 01-3.44-4.6 63.412 63.412 0 01-2.56-5.24c-.453.133-1.093.24-1.92.32-.827.08-1.6.107-2.32.08l.04 4.12v2.4c0 .747.027 1.347.08 1.8.053.56.147 1.04.28 1.44.16.373.413.693.76.96.347.24.813.44 1.4.6.587.16 1.36.293 2.32.4V35h-14v-.68a19.324 19.324 0 001.92-.36c.56-.133 1.013-.32 1.36-.56a2.47 2.47 0 00.84-1.04c.187-.427.293-1 .32-1.72.027-.56.04-1.4.04-2.52V14.08c.027-1.467.013-2.76-.04-3.88-.027-.72-.147-1.293-.36-1.72a2.21 2.21 0 00-.84-1c-.347-.267-.8-.467-1.36-.6a21.994 21.994 0 00-1.96-.36v-.68c1.493.027 2.88.04 4.16.04h5c1.36 0 2.827.067 4.4.2 1.6.107 3.08.4 4.44.88 1.36.48 2.493 1.213 3.4 2.2.907.987 1.36 2.347 1.36 4.08 0 1.627-.507 3.013-1.52 4.16-.987 1.147-2.24 2.173-3.76 3.08.267.907.667 1.907 1.2 3 .56 1.093 1.2 2.2 1.92 3.32a39.087 39.087 0 002.36 3.28 28.254 28.254 0 002.72 2.88c.933.853 1.867 1.547 2.8 2.08.96.56 1.88.893 2.76 1v.72zm-13.2-21.84c0-1.36-.24-2.507-.72-3.44-.48-.933-1.107-1.68-1.88-2.24a7.6 7.6 0 00-2.64-1.28 12.744 12.744 0 00-3-.44h-.2a.271.271 0 00-.2.08l-.08.08c-.08.08-.12.16-.12.24v6.12l-.04 5.88v1.64a11.552 11.552 0 003.32-.56 10.452 10.452 0 002.84-1.4c.827-.587 1.48-1.28 1.96-2.08.507-.8.76-1.667.76-2.6zm-6.36 19.24a3.544 3.544 0 01-.8-.16 6.234 6.234 0 01-.8-.44c-.32-.213-.587-.52-.8-.92-.213-.427-.347-.773-.4-1.04-.027-.16-.053-.507-.08-1.04a76.036 76.036 0 01-.08-2.04c-.027-.933-.027-2.2 0-3.8l.04-11.04V8.44c0-.293.013-.56.04-.8.027-.24.067-.4.12-.48.213-.267.547-.44 1-.52.16-.08.147-.12-.04-.12h-.24c-.373.027-.68.12-.92.28-.213.16-.467.333-.76.52-.213.133-.4.24-.56.32a.999.999 0 00-.4.24c-.107.08-.2.227-.28.44-.053.213-.08.547-.08 1v13.4c.027 2.107.04 5.027.04 8.76 0 .24.027.467.08.68.08.187.16.347.24.48.107.16.227.307.36.44.373.373.827.64 1.36.8.56.16 1.28.267 2.16.32l.8-.04zm10.36-23.4c-.293-.64-.6-1.16-.92-1.56-.32-.4-.653-.707-1-.92-.32-.24-.64-.413-.96-.52-.293-.133-.547-.24-.76-.32a4.45 4.45 0 00-.76-.2 5.145 5.145 0 00-.84-.16c-.187 0-.32.027-.4.08-.053.053-.04.133.04.24.08.107.333.28.76.52.693.4 1.24.88 1.64 1.44.4.56.707 1.107.92 1.64.24.613.387 1.24.44 1.88.08 1.387-.093 2.56-.52 3.52-.427.96-.92 1.733-1.48 2.32-.533.587-1.04 1.013-1.52 1.28-.48.267-.72.413-.72.44.053.187.267.213.64.08s.72-.28 1.04-.44c.693-.347 1.36-.8 2-1.36.64-.56 1.093-1.013 1.36-1.36.187-.24.4-.6.64-1.08.24-.48.427-1.013.56-1.6.16-.613.24-1.253.24-1.92a5.15 5.15 0 00-.4-2zm5.92 24.28c-.613-.4-1.2-.827-1.76-1.28-.56-.48-1.067-.947-1.52-1.4a51.36 51.36 0 01-1.24-1.28c-.373-.427-.68-.8-.92-1.12a31.307 31.307 0 01-1.88-2.56c-.533-.853-.96-1.533-1.28-2.04-.187-.293-.4-.667-.64-1.12-.213-.373-.453-.84-.72-1.4a48.775 48.775 0 01-.8-2.12c-.187.187-.32.387-.4.6l-.16.56c-.053.213-.067.44-.04.68 0 .213.067.507.2.88s.293.787.48 1.24l.68 1.36c.24.48.48.933.72 1.36.24.427.6.947 1.08 1.56.48.613 1 1.227 1.56 1.84s1.133 1.187 1.72 1.72c.587.533 1.093.933 1.52 1.2.373.24.747.453 1.12.64.32.187.653.36 1 .52.373.16.72.267 1.04.32.267.08.387.08.36 0a1.188 1.188 0 01-.12-.16zm7.544-20.96a72.73 72.73 0 01-.04-2.24c.027-.667.013-1.227-.04-1.68-.053-.56-.16-1.04-.32-1.44a2.414 2.414 0 00-.68-1.08c-.32-.293-.747-.52-1.28-.68-.533-.187-1.213-.32-2.04-.4v-.64h13.72v.64c-.773.107-1.44.227-2 .36-.533.133-.987.333-1.36.6-.347.24-.613.573-.8 1-.187.427-.293 1-.32 1.72-.027.56-.053 1.2-.08 1.92v4.56c.027.747.04 1.44.04 2.08v6.08c.027 1.173.04 2.293.04 3.36.027 1.067.053 1.88.08 2.44.027.693.133 1.253.32 1.68.187.427.453.773.8 1.04.373.267.827.467 1.36.6.56.107 1.213.213 1.96.32V35h-13.68v-.68c.827-.08 1.507-.227 2.04-.44.533-.213.96-.48 1.28-.8.32-.32.547-.693.68-1.12.16-.453.267-.96.32-1.52.053-.453.08-.947.08-1.48v-2.12l-.08-12.76zm7.88-7.64c0-.027-.053-.053-.16-.08-.107-.027-.267-.027-.48 0-.213.027-.547.08-1 .16a8.916 8.916 0 00-1.8.6c-.56.24-1.053.387-1.48.44-.693.08-1.227.04-1.6-.12-.373-.187-.627-.267-.76-.24-.16.053-.16.12 0 .2.187.08.427.213.72.4.453.347.733.76.84 1.24.133.48.2 1.253.2 2.32v2.4c0 .987-.013 2.293-.04 3.92V31.8c0 .507.107.907.32 1.2.213.267.48.48.8.64.347.133.72.213 1.12.24.4.027.787.04 1.16.04.133 0 .187-.027.16-.08 0-.053-.053-.12-.16-.2a1.811 1.811 0 00-.32-.32 4.357 4.357 0 01-.32-.36 2.412 2.412 0 01-.52-1.12 7.187 7.187 0 01-.12-1.24c-.027-.293-.04-1.187-.04-2.68V17.24c0-1.84.013-3.947.04-6.32 0-1.04.093-1.827.28-2.36.187-.56.56-1.013 1.12-1.36.4-.24.84-.413 1.32-.52.48-.107.72-.187.72-.24zM77.216 34.4c-.64.293-1.387.52-2.24.68-.827.16-1.64.28-2.44.36a36.04 36.04 0 01-3.16.2c-2.373 0-4.64-.307-6.8-.92-2.133-.64-4.013-1.587-5.64-2.84-1.6-1.28-2.88-2.88-3.84-4.8s-1.44-4.16-1.44-6.72c0-2.427.467-4.573 1.4-6.44.96-1.867 2.227-3.427 3.8-4.68 1.573-1.28 3.373-2.24 5.4-2.88 2.053-.667 4.187-1 6.4-1 1.76 0 3.213.133 4.36.4 1.173.24 2.053.387 2.64.44.587.053 1.08.08 1.48.08a3.59 3.59 0 001.2-.28l.56.24-.52 7.16h-.76c-.213-1.2-.573-2.2-1.08-3a5.864 5.864 0 00-1.96-1.92c-.773-.48-1.693-.813-2.76-1-1.04-.213-2.187-.32-3.44-.32-1.733 0-3.293.32-4.68.96a10.092 10.092 0 00-3.48 2.56c-.96 1.093-1.693 2.387-2.2 3.88-.507 1.493-.76 3.107-.76 4.84 0 2.347.373 4.413 1.12 6.2.747 1.76 1.707 3.24 2.88 4.44 1.173 1.2 2.493 2.107 3.96 2.72 1.493.587 2.987.88 4.48.88 1.493 0 2.773-.147 3.84-.44 1.067-.293 2.013-.853 2.84-1.68a6.041 6.041 0 001.24-1.76c.32-.64.587-1.24.8-1.8l.72.32-1.92 6.12zm1.2-27.96c-.107.133-.187.24-.24.32l-.16.16a.625.625 0 01-.16.12c-.08.107-.213.213-.4.32-.187.08-.387.147-.6.2a2.642 2.642 0 00-.44.16c-.08.053-.08.173 0 .36l.36.84c.16.373.32.733.48 1.08.08.16.147.36.2.6.08.24.133.467.16.68.053.213.093.4.12.56.053.133.107.2.16.2.027 0 .053-.013.08-.04.08-.08.12-.173.12-.28l.32-5.28zm-.04 22.96c-.053 0-.147.12-.28.36-.133.213-.293.493-.48.84s-.387.707-.6 1.08c-.213.347-.413.64-.6.88-.267.32-.493.547-.68.68a5.498 5.498 0 01-.68.32 4.344 4.344 0 01-.84.24c-.293.027-.453.093-.48.2 0 .053.053.067.16.04a2.15 2.15 0 01.52-.12c.24-.053.493-.093.76-.12.293-.027.587-.013.88.04l.32.08c.187.053.347.12.48.2.427-1.173.747-2.08.96-2.72.213-.64.36-1.107.44-1.4.107-.347.147-.547.12-.6zm-11.4-22.68c.053-.027.013-.04-.12-.04a3.019 3.019 0 00-.56-.04c-.24 0-.533.013-.88.04-.32.027-.653.08-1 .16s-.773.2-1.28.36c-.48.16-1.013.387-1.6.68-.587.267-1.187.6-1.8 1-.587.4-1.147.867-1.68 1.4-.373.373-.773.867-1.2 1.48-.427.613-.827 1.32-1.2 2.12s-.693 1.693-.96 2.68c-.24.987-.373 2.027-.4 3.12-.027 1.093.053 2.16.24 3.2.187 1.013.44 1.96.76 2.84.32.88.68 1.68 1.08 2.4.4.693.813 1.267 1.24 1.72.4.453.88.893 1.44 1.32.587.427 1.187.813 1.8 1.16.64.32 1.28.6 1.92.84.667.24 1.307.4 1.92.48.453.053.787.08 1 .08.24-.027.387-.053.44-.08.08-.053.107-.107.08-.16a.261.261 0 00-.12-.12c-.32-.08-.6-.16-.84-.24a7.91 7.91 0 01-.72-.28l-.72-.36-1-.6a7.995 7.995 0 01-1.52-1.12 16.802 16.802 0 01-1.16-1.28c-.32-.427-.6-.827-.84-1.2s-.44-.68-.6-.92c-.16-.24-.36-.613-.6-1.12a14.304 14.304 0 01-.68-1.92 36.295 36.295 0 01-.52-2.48 14.22 14.22 0 01-.12-2.84c.08-1.973.373-3.613.88-4.92a15.887 15.887 0 012.08-3.64c.373-.427.8-.84 1.28-1.24.427-.347.96-.693 1.6-1.04.64-.373 1.387-.693 2.24-.96.8-.16 1.36-.28 1.68-.36.187-.053.333-.093.44-.12zM91.945 19v-7.92c0-1.013.107-1.853.32-2.52.24-.667.64-1.147 1.2-1.44a2.13 2.13 0 01.72-.28c.293-.053.44-.12.44-.2l-.04-.04h-.12c-.027-.027-.067-.04-.12-.04-.24 0-.533.053-.88.16-.347.08-.68.173-1 .28a7.272 7.272 0 00-.76.32l-.32.16c-.24.08-.48.12-.72.12-.373 0-.707-.053-1-.16-.267-.133-.48-.213-.64-.24-.267 0-.4.067-.4.2 0 .107.133.24.4.4.427.267.68.613.76 1.04.08.4.12.787.12 1.16v2.28c0 1.147-.013 2.493-.04 4.04v4.84c0 1.707-.013 3.307-.04 4.8v5.96c0 .587.12 1.027.36 1.32.24.293.52.507.84.64.347.107.72.16 1.12.16h1.08c.133 0 .2-.027.2-.08 0-.08-.107-.2-.32-.36a4.781 4.781 0 01-.52-.52 2.412 2.412 0 01-.52-1.12 7.187 7.187 0 01-.12-1.24v-1.84c0-.613-.013-1.427-.04-2.44v-4a2.255 2.255 0 00-.32-.72c-.08-.107-.147-.2-.2-.28a3 3 0 01-.32-.28 9.07 9.07 0 00-.4-.28 5.586 5.586 0 00-.52-.36c0-.053-.013-.08-.04-.08v-.12c0-.133.053-.227.16-.28l.16-.08c.107-.027.52-.053 1.24-.08.747-.027 1.547-.04 2.4-.04a79.86 79.86 0 012.44-.04h1.4c1.093 0 2.2-.013 3.32-.04 1.12-.027 2.28-.28 3.48-.76h-12.76zm11.56 16v-.68c.827-.08 1.507-.227 2.04-.44.533-.213.96-.48 1.28-.8a2.7 2.7 0 00.68-1.12c.16-.453.267-.96.32-1.52.053-.453.08-.947.08-1.48v-8.08h-15.52v8.28c0 .72.027 1.307.08 1.76.053.56.147 1.04.28 1.44.16.373.4.693.72.96.32.267.747.48 1.28.64.533.16 1.213.28 2.04.36V35h-13.6v-.68a35.769 35.769 0 001.92-.32c.56-.133 1.013-.333 1.36-.6a2.47 2.47 0 00.84-1.04c.187-.427.293-1 .32-1.72.027-.347.04-.84.04-1.48v-2.12c.027-.8.04-1.627.04-2.48s-.013-1.68-.04-2.48v-7.96c0-1.467-.027-2.76-.08-3.88-.027-.72-.133-1.293-.32-1.72a2.211 2.211 0 00-.84-1c-.373-.267-.84-.467-1.4-.6a19.303 19.303 0 00-1.92-.36v-.64h13.68v.64c-1.653.16-2.773.533-3.36 1.12-.587.56-.907 1.4-.96 2.52-.027.453-.053 1-.08 1.64v6.84h15.44v-6.84c0-.667-.027-1.227-.08-1.68-.053-.56-.16-1.04-.32-1.44a2.41 2.41 0 00-.68-1.08c-.32-.293-.747-.52-1.28-.68-.533-.187-1.213-.32-2.04-.4v-.64h13.72v.64c-.773.107-1.44.227-2 .36-.533.133-.987.333-1.36.6-.347.24-.613.573-.8 1-.187.427-.293 1-.32 1.72-.027.56-.053 1.2-.08 1.92v4.56c.027.747.04 1.44.04 2.08v6.08c.027 1.173.04 2.293.04 3.36.027 1.067.053 1.88.08 2.44.027.693.133 1.253.32 1.68.187.427.453.773.8 1.04.373.267.827.467 1.36.6.56.107 1.213.213 1.96.32V35h-13.68zm12.2-28.56c0-.027-.053-.053-.16-.08-.107-.027-.267-.027-.48 0-.213.027-.547.08-1 .16a8.932 8.932 0 00-1.8.6c-.56.24-1.053.387-1.48.44-.693.08-1.227.04-1.6-.12-.373-.187-.627-.267-.76-.24-.16.053-.16.12 0 .2.187.08.427.213.72.4.453.347.733.76.84 1.24.133.48.2 1.253.2 2.32v2.4c0 .987-.013 2.293-.04 3.92V31.8c0 .507.107.907.32 1.2.213.267.48.48.8.64.347.133.72.213 1.12.24.4.027.787.04 1.16.04.133 0 .187-.027.16-.08 0-.053-.053-.12-.16-.2a1.822 1.822 0 00-.32-.32 4.375 4.375 0 01-.32-.36 2.409 2.409 0 01-.52-1.12 7.187 7.187 0 01-.12-1.24c-.027-.293-.04-1.187-.04-2.68V17.24c0-1.84.013-3.947.04-6.32 0-1.04.093-1.827.28-2.36.187-.56.56-1.013 1.12-1.36.4-.24.84-.413 1.32-.52.48-.107.72-.187.72-.24zm40.774 27.08c-.08.4-.24.747-.48 1.04-.214.293-.707.44-1.48.44h-20.32v-.68c.72-.107 1.36-.227 1.92-.36.56-.133 1.026-.32 1.4-.56.373-.267.653-.613.84-1.04.213-.427.333-1 .36-1.72.026-.56.04-1.4.04-2.52a160.72 160.72 0 000-7.2v-6.84c0-.72-.014-1.4-.04-2.04a39.8 39.8 0 00-.04-1.84c-.027-.72-.107-1.293-.24-1.72-.134-.453-.347-.8-.64-1.04-.267-.267-.627-.467-1.08-.6a13.861 13.861 0 00-1.68-.36v-.64h12.36v.68c-1.334.133-2.294.453-2.88.96-.587.507-.92 1.4-1 2.68-.027.453-.054 1-.08 1.64v2.24l-.04 7.64v1.44c.026.613.04 1.293.04 2.04v2.2c.026.747.04 1.427.04 2.04 0 .56.053 1.08.16 1.56.106.48.306.893.6 1.24.293.347.693.613 1.2.8.533.187 1.2.253 2 .2.826-.053 1.426-.08 1.8-.08.373-.027.666-.04.88-.04a4.78 4.78 0 01.6-.04 62.57 62.57 0 011.08-.12c.693-.053 1.28-.147 1.76-.28a3.06 3.06 0 001.28-.72c.373-.347.706-.813 1-1.4.32-.587.653-1.373 1-2.36l.72.16-1.08 5.2zm.32-3.44c-.107-.027-.2.093-.28.36-.08.24-.227.56-.44.96a6.803 6.803 0 01-.96 1.44c-.347.4-.827.6-1.44.6-.427.053-.627.133-.6.24 0 .027.08.04.24.04h1.36c.266-.027.48-.053.64-.08.426-.053.666-.173.72-.36.08-.213.146-.4.2-.56.133-.56.226-1 .28-1.32.08-.347.146-.627.2-.84.053-.213.08-.373.08-.48zm-13.76-18.96c0-1.013.106-1.88.32-2.6.24-.747.64-1.267 1.2-1.56a2.13 2.13 0 01.72-.28c.293-.053.44-.12.44-.2l-.04-.04h-.12c-.027-.027-.067-.04-.12-.04-.24 0-.534.053-.88.16-.347.107-.68.227-1 .36a6.499 6.499 0 00-.76.4l-.32.16c-.24.08-.48.12-.72.12a2.91 2.91 0 01-1-.16c-.267-.133-.48-.213-.64-.24-.267 0-.4.067-.4.2 0 .107.133.24.4.4.426.267.68.613.76 1.04.08.4.12.787.12 1.16v5.36c-.027 2.613-.054 5-.08 7.16 0 .933-.014 1.853-.04 2.76v4.48c.026.533.053.893.08 1.08.053.72.213 1.293.48 1.72.293.4.68.707 1.16.92.48.213 1.053.36 1.72.44.666.053 1.413.08 2.24.08h.72a23.4 23.4 0 00.76-.08c.24-.053.426-.107.56-.16.133-.053.16-.12.08-.2a47.07 47.07 0 01-1.8.04 15.086 15.086 0 01-1.32-.12c-.347-.08-.654-.2-.92-.36-.24-.16-.467-.36-.68-.6a2.8 2.8 0 01-.36-.44c-.08-.16-.16-.373-.24-.64a6.625 6.625 0 01-.2-.96c-.054-.4-.08-.907-.08-1.52 0-.24-.014-.587-.04-1.04v-1.48c0-.533-.014-1.067-.04-1.6v-1.4l.04-12.32zm22.279 2.96c-.026-.853-.04-1.6-.04-2.24.027-.667.014-1.227-.04-1.68-.053-.56-.16-1.04-.32-1.44a2.41 2.41 0 00-.68-1.08c-.32-.293-.746-.52-1.28-.68-.533-.187-1.213-.32-2.04-.4v-.64h13.72v.64c-.773.107-1.44.227-2 .36-.533.133-.986.333-1.36.6-.346.24-.613.573-.8 1-.186.427-.293 1-.32 1.72-.026.56-.053 1.2-.08 1.92v4.56c.027.747.04 1.44.04 2.08v6.08c.027 1.173.04 2.293.04 3.36.027 1.067.054 1.88.08 2.44.027.693.134 1.253.32 1.68.187.427.454.773.8 1.04.374.267.827.467 1.36.6.56.107 1.214.213 1.96.32V35h-13.68v-.68c.827-.08 1.507-.227 2.04-.44.534-.213.96-.48 1.28-.8a2.7 2.7 0 00.68-1.12c.16-.453.267-.96.32-1.52.054-.453.08-.947.08-1.48v-2.12l-.08-12.76zm7.88-7.64c0-.027-.053-.053-.16-.08-.106-.027-.266-.027-.48 0-.213.027-.546.08-1 .16a8.932 8.932 0 00-1.8.6c-.56.24-1.053.387-1.48.44-.693.08-1.226.04-1.6-.12-.373-.187-.626-.267-.76-.24-.16.053-.16.12 0 .2.187.08.427.213.72.4.454.347.734.76.84 1.24.134.48.2 1.253.2 2.32v2.4c0 .987-.013 2.293-.04 3.92V31.8c0 .507.107.907.32 1.2.214.267.48.48.8.64.347.133.72.213 1.12.24.4.027.787.04 1.16.04.134 0 .187-.027.16-.08 0-.053-.053-.12-.16-.2a1.788 1.788 0 00-.32-.32 4.568 4.568 0 01-.32-.36 2.419 2.419 0 01-.52-1.12 7.187 7.187 0 01-.12-1.24c-.026-.293-.04-1.187-.04-2.68V17.24c0-1.84.014-3.947.04-6.32 0-1.04.094-1.827.28-2.36.187-.56.56-1.013 1.12-1.36.4-.24.84-.413 1.32-.52.48-.107.72-.187.72-.24zm26.392 5.16h-.72a6.887 6.887 0 00-.24-1.32 3.542 3.542 0 00-.36-.84 2.005 2.005 0 00-.48-.64c-.453-.347-1.053-.56-1.8-.64-.72-.107-1.426-.16-2.12-.16l-5.04-.04-.04 10.88h3.32c.88 0 2.027-.013 3.44-.04.374 0 .734-.053 1.08-.16.374-.107.667-.28.88-.52.214-.267.374-.52.48-.76l.32-.8c.054 0 .147.013.28.04.134.027.2.067.2.12 0 .027-.013.173-.04.44 0 .267-.013.573-.04.92l-.08 1.08c-.026.373-.053.693-.08.96-.053.667-.08 1.36-.08 2.08 0 .693-.013 1.307-.04 1.84l-.6-.04c0-.107-.013-.267-.04-.48a5.211 5.211 0 00-.16-.8c-.106-.4-.306-.827-.6-1.28-.293-.453-.76-.68-1.4-.68h-6.84v8.4c0 .72.027 1.307.08 1.76.054.56.147 1.04.28 1.44a2.1 2.1 0 00.72.96c.347.267.814.48 1.4.64.587.16 1.36.28 2.32.36V35h-14v-.68a35.667 35.667 0 001.92-.32c.56-.133 1.014-.333 1.36-.6a2.46 2.46 0 00.84-1.04c.187-.427.294-1 .32-1.72.027-.533.04-1.307.04-2.32V14.64c0-.853-.013-1.653-.04-2.4 0-.773-.013-1.44-.04-2-.026-.72-.133-1.293-.32-1.72a2.203 2.203 0 00-.84-1c-.373-.267-.84-.467-1.4-.6a19.27 19.27 0 00-1.92-.36v-.64h15.8c1.414 0 2.4-.04 2.96-.12.587-.107 1-.347 1.24-.72l.52.2-.44 6.32zm-.28-5.64c-.106.267-.253.467-.44.6-.106.08-.2.147-.28.2l-.48.32a.507.507 0 00-.2.12c-.026.053.04.147.2.28.187.107.32.253.4.44l.12.24a.86.86 0 01.12.28c.054.08.107.187.16.32l.08-.32c0-.107.014-.2.04-.28 0-.133.014-.267.04-.4.027-.133.04-.28.04-.44 0-.16.027-.347.08-.56l.12-.8zm-1.2 13.12a.68.68 0 00-.04-.28c-.026-.08-.066-.093-.12-.04-.053.133-.12.253-.2.36-.053.107-.106.2-.16.28a1.89 1.89 0 00-.16.24c-.106.133-.066.36.12.68.214.32.347.747.4 1.28v-.12c.027-.16.04-.347.04-.56.027-.213.054-.44.08-.68.027-.267.04-.493.04-.68v-.48zm-9.84-10.2c0-.213-.093-.413-.28-.6a5.442 5.442 0 00-.56-.56 2.807 2.807 0 01-.4-.4c-.053-.107.027-.187.24-.24.32-.053.787-.093 1.4-.12a45.27 45.27 0 011.96-.04h3.76c.32 0 .707.013 1.16.04.48 0 .947-.013 1.4-.04a9.07 9.07 0 001.28-.24c.4-.133.694-.333.88-.6.054-.107-.253-.093-.92.04-.64.133-1.64.173-3 .12a46.788 46.788 0 00-3.88 0 1310.4 1310.4 0 01-3.48.08c-.293 0-.653.04-1.08.12a6.92 6.92 0 00-1.12.24c-.24.053-.426.12-.56.2a.59.59 0 00-.28.2c-.053.08-.013.147.12.2.32.24.574.44.76.6.187.16.28.493.28 1v9.84c.027 1.573.04 3.427.04 5.56.027 2.133.054 4.6.08 7.4.08.587.267 1.053.56 1.4.32.347.667.587 1.04.72.667.24 1.107.347 1.32.32.24-.027.347-.12.32-.28 0-.187-.08-.4-.24-.64-.133-.24-.24-.44-.32-.6-.133-.293-.24-.747-.32-1.36-.08-.613-.12-1.107-.12-1.48V28.4c0-.747-.013-1.533-.04-2.36 0-.853-.013-1.653-.04-2.4 0-.773-.013-1.267-.04-1.48a1.994 1.994 0 00-.24-.48 5.916 5.916 0 00-.44-.48 4.748 4.748 0 00-.64-.6l-.64-.44c.027-.107.08-.2.16-.28a.477.477 0 01.12-.08c.054-.027.347-.04.88-.04.56-.027 1.187-.04 1.88-.04.72-.027 1.44-.04 2.16-.04.72-.027 1.267-.067 1.64-.12.96-.107 1.587-.227 1.88-.36.294-.133.32-.2.08-.2-.213.027-.6.04-1.16.04h-5.48l-.12-10.16zm38.409 24.68a4.64 4.64 0 01-.2.56 1.11 1.11 0 01-.28.44 1.41 1.41 0 01-.56.32c-.213.08-.52.12-.92.12l-18.84.04v-.68a19.287 19.287 0 001.92-.36c.56-.133 1.014-.32 1.36-.56a2.46 2.46 0 00.84-1.04c.187-.427.294-1 .32-1.72.027-.56.04-1.4.04-2.52V14.12c0-1.467-.026-2.747-.08-3.84-.026-.72-.133-1.293-.32-1.72a2.203 2.203 0 00-.84-1c-.373-.267-.84-.467-1.4-.6a19.27 19.27 0 00-1.92-.36v-.68h15.8c1.414 0 2.4-.04 2.96-.12.587-.107 1-.347 1.24-.72l.52.2-.44 6.36h-.72a6.887 6.887 0 00-.24-1.32c-.106-.373-.226-.667-.36-.88-.133-.267-.293-.467-.48-.6-.453-.373-1.053-.6-1.8-.68-.72-.08-1.426-.12-2.12-.12l-5.04-.04v10.84h6.72c.427 0 .787-.04 1.08-.12.294-.107.534-.253.72-.44a2.73 2.73 0 00.52-.72c.16-.267.307-.587.44-.96 0 .027.027.04.08.04.054.027.107.04.16.04.054 0 .134.027.24.08l-.36 7.32-.6-.04c0-.107-.013-.28-.04-.52a5.211 5.211 0 00-.16-.8c-.106-.4-.306-.813-.6-1.24-.293-.453-.76-.68-1.4-.68h-6.8v6.04c.027.507.04 1 .04 1.48v1.16c0 1.36.307 2.347.92 2.96.64.587 1.854.813 3.64.68.374-.027.64-.04.8-.04.16-.027.294-.04.4-.04h.36c.134-.027.374-.067.72-.12.587-.08 1.12-.187 1.6-.32.507-.133.96-.36 1.36-.68.427-.32.827-.773 1.2-1.36.374-.587.734-1.36 1.08-2.32l.72.16-1.28 5.16zm-1.24-27.4c.054-.107-.253-.093-.92.04-.64.133-1.64.173-3 .12a46.788 46.788 0 00-3.88 0 1310.4 1310.4 0 01-3.48.08c-.293 0-.653.04-1.08.12a6.92 6.92 0 00-1.12.24c-.24.053-.426.12-.56.2a.59.59 0 00-.28.2c-.053.08-.013.147.12.2.32.24.574.48.76.72.187.24.28.627.28 1.16 0 .32.014 1.32.04 3v2.72c.027 1.093.04 2.427.04 4v5.48c.027 2.08.054 4.493.08 7.24.054.613.227 1.053.52 1.32.294.24.654.44 1.08.6.4.133 1.027.24 1.88.32.854.08 1.774.053 2.76-.08.32-.027.614-.067.88-.12l.64-.16c.214-.08.347-.16.4-.24-.533.133-1.04.2-1.52.2a8.87 8.87 0 01-1.24-.08 7.986 7.986 0 01-1.2-.24 3.5 3.5 0 01-.96-.56 2.447 2.447 0 01-.6-.8 8.35 8.35 0 01-.28-.96 4.789 4.789 0 01-.12-1.08v-1.36c0-.747-.013-1.533-.04-2.36 0-.853-.013-1.653-.04-2.4-.026-.773-.053-1.267-.08-1.48a2.886 2.886 0 00-.24-.52 3.14 3.14 0 00-.4-.48 3.965 3.965 0 00-.68-.6l-.6-.4c0-.107.04-.2.12-.28a.477.477 0 01.12-.08c.054-.027.347-.04.88-.04.56-.027 1.2-.053 1.92-.08.72-.027 1.427-.04 2.12-.04.72-.027 1.28-.067 1.68-.12.96-.107 1.574-.213 1.84-.32.294-.133.32-.2.08-.2h-1.16c-.48 0-1.16.013-2.04.04-.853 0-2-.013-3.44-.04l-.08-10.16c0-.213-.093-.413-.28-.6a9.626 9.626 0 00-.56-.52c-.186-.16-.32-.28-.4-.36-.08-.107-.013-.187.2-.24.32-.053.787-.093 1.4-.12a45.27 45.27 0 011.96-.04h3.76c.32 0 .707.013 1.16.04.48 0 .947-.013 1.4-.04a9.07 9.07 0 001.28-.24c.4-.133.694-.333.88-.6zm1.36 25.08c-.133.24-.253.453-.36.64-.106.16-.2.307-.28.44-.106.133-.2.253-.28.36-.133.133-.306.28-.52.44a1.825 1.825 0 01-.56.28c-.053.027.014.067.2.12.214.027.4.133.56.32a.442.442 0 01.08.12c.054.08.12.147.2.2 0 .053.014.08.04.08a.442.442 0 00.08-.12l.08-.16.16-.32c.054-.133.147-.467.28-1l.32-1.4zm-.88-25.16a1.1 1.1 0 01-.28.32l-.24.16c-.106.08-.2.133-.28.16-.293.107-.48.173-.56.2a.507.507 0 00-.2.12c-.053.053.014.12.2.2.187.08.334.187.44.32.027.027.067.08.12.16.107.16.227.307.36.44.054.027.107-.027.16-.16a1.42 1.42 0 00.08-.2l.08-.32a1.47 1.47 0 00.04-.36c0-.133.014-.307.04-.52l.04-.52zm-1.36 13a.68.68 0 00-.04-.28c-.026-.08-.066-.093-.12-.04-.133.32-.253.547-.36.68-.08.107-.146.187-.2.24-.08.107-.026.333.16.68.187.32.32.747.4 1.28v-.12c.027-.16.04-.347.04-.56l.08-.72c.027-.267.04-.493.04-.68v-.48zM159.91 80.55c-.48.22-1.04.39-1.68.51-.62.12-1.23.21-1.83.27a27.01 27.01 0 01-2.37.15c-1.78 0-3.48-.23-5.1-.69-1.6-.48-3.01-1.19-4.23-2.13-1.2-.96-2.16-2.16-2.88-3.6-.72-1.44-1.08-3.12-1.08-5.04 0-1.82.35-3.43 1.05-4.83.72-1.4 1.67-2.57 2.85-3.51 1.18-.96 2.53-1.68 4.05-2.16 1.54-.5 3.14-.75 4.8-.75 1.32 0 2.41.1 3.27.3.88.18 1.54.29 1.98.33.44.04.81.06 1.11.06.32-.02.62-.09.9-.21l.42.18-.39 5.37h-.57c-.16-.9-.43-1.65-.81-2.25-.38-.6-.87-1.08-1.47-1.44-.58-.36-1.27-.61-2.07-.75-.78-.16-1.64-.24-2.58-.24-1.3 0-2.47.24-3.51.72-1.02.46-1.89 1.1-2.61 1.92-.72.82-1.27 1.79-1.65 2.91-.38 1.12-.57 2.33-.57 3.63 0 1.76.28 3.31.84 4.65.56 1.32 1.28 2.43 2.16 3.33.88.9 1.87 1.58 2.97 2.04 1.12.44 2.24.66 3.36.66 1.12 0 2.08-.11 2.88-.33.8-.22 1.51-.64 2.13-1.26.4-.4.71-.84.93-1.32.24-.48.44-.93.6-1.35l.54.24-1.44 4.59zm.9-20.97c-.08.1-.14.18-.18.24l-.12.12a.47.47 0 01-.12.09.98.98 0 01-.3.24c-.14.06-.29.11-.45.15-.14.04-.25.08-.33.12-.06.04-.06.13 0 .27l.27.63c.12.28.24.55.36.81.06.12.11.27.15.45.06.18.1.35.12.51.04.16.07.3.09.42.04.1.08.15.12.15.02 0 .04-.01.06-.03.06-.06.09-.13.09-.21l.24-3.96zm-.03 17.22c-.04 0-.11.09-.21.27-.1.16-.22.37-.36.63-.14.26-.29.53-.45.81-.16.26-.31.48-.45.66-.2.24-.37.41-.51.51-.14.08-.31.16-.51.24-.2.08-.41.14-.63.18-.22.02-.34.07-.36.15 0 .04.04.05.12.03.1-.04.23-.07.39-.09.18-.04.37-.07.57-.09.22-.02.44-.01.66.03l.24.06c.14.04.26.09.36.15.32-.88.56-1.56.72-2.04.16-.48.27-.83.33-1.05.08-.26.11-.41.09-.45zm-8.55-17.01c.04-.02.01-.03-.09-.03-.1-.02-.24-.03-.42-.03s-.4.01-.66.03c-.24.02-.49.06-.75.12s-.58.15-.96.27c-.36.12-.76.29-1.2.51-.44.2-.89.45-1.35.75-.44.3-.86.65-1.26 1.05-.28.28-.58.65-.9 1.11-.32.46-.62.99-.9 1.59-.28.6-.52 1.27-.72 2.01-.18.74-.28 1.52-.3 2.34-.02.82.04 1.62.18 2.4.14.76.33 1.47.57 2.13.24.66.51 1.26.81 1.8.3.52.61.95.93 1.29.3.34.66.67 1.08.99.44.32.89.61 1.35.87.48.24.96.45 1.44.63a6.894 6.894 0 002.19.42c.18-.02.29-.04.33-.06.06-.04.08-.08.06-.12a.196.196 0 00-.09-.09c-.24-.06-.45-.12-.63-.18s-.36-.13-.54-.21l-.54-.27-.75-.45c-.42-.24-.8-.52-1.14-.84-.32-.32-.61-.64-.87-.96-.24-.32-.45-.62-.63-.9s-.33-.51-.45-.69c-.12-.18-.27-.46-.45-.84-.18-.4-.35-.88-.51-1.44-.14-.56-.27-1.18-.39-1.86-.1-.68-.13-1.39-.09-2.13.06-1.48.28-2.71.66-3.69.4-.98.92-1.89 1.56-2.73.28-.32.6-.63.96-.93.32-.26.72-.52 1.2-.78.48-.28 1.04-.52 1.68-.72.6-.12 1.02-.21 1.26-.27.14-.04.25-.07.33-.09zm28.807 20.1c-.06.3-.18.56-.36.78-.16.22-.53.33-1.11.33h-15.24v-.51c.54-.08 1.02-.17 1.44-.27.42-.1.77-.24 1.05-.42.28-.2.49-.46.63-.78.16-.32.25-.75.27-1.29.02-.42.03-1.05.03-1.89a117.682 117.682 0 000-5.4v-5.13c0-.54-.01-1.05-.03-1.53 0-.5-.01-.96-.03-1.38-.02-.54-.08-.97-.18-1.29-.1-.34-.26-.6-.48-.78-.2-.2-.47-.35-.81-.45-.34-.1-.76-.19-1.26-.27v-.48h9.27v.51c-1 .1-1.72.34-2.16.72-.44.38-.69 1.05-.75 2.01-.02.34-.04.75-.06 1.23v1.68l-.03 5.73v1.08c.02.46.03.97.03 1.53v1.65c.02.56.03 1.07.03 1.53 0 .42.04.81.12 1.17.08.36.23.67.45.93s.52.46.9.6c.4.14.9.19 1.5.15.62-.04 1.07-.06 1.35-.06.28-.02.5-.03.66-.03.16-.02.31-.03.45-.03.16-.02.43-.05.81-.09.52-.04.96-.11 1.32-.21.36-.1.68-.28.96-.54.28-.26.53-.61.75-1.05.24-.44.49-1.03.75-1.77l.54.12-.81 3.9zm.24-2.58c-.08-.02-.15.07-.21.27-.06.18-.17.42-.33.72-.2.4-.44.76-.72 1.08-.26.3-.62.45-1.08.45-.32.04-.47.1-.45.18 0 .02.06.03.18.03h1.02c.2-.02.36-.04.48-.06.32-.04.5-.13.54-.27.06-.16.11-.3.15-.42.1-.42.17-.75.21-.99.06-.26.11-.47.15-.63.04-.16.06-.28.06-.36zm-10.32-14.22c0-.76.08-1.41.24-1.95.18-.56.48-.95.9-1.17.16-.1.34-.17.54-.21.22-.04.33-.09.33-.15l-.03-.03h-.09c-.02-.02-.05-.03-.09-.03-.18 0-.4.04-.66.12-.26.08-.51.17-.75.27-.22.1-.41.2-.57.3l-.24.12c-.18.06-.36.09-.54.09-.28 0-.53-.04-.75-.12-.2-.1-.36-.16-.48-.18-.2 0-.3.05-.3.15 0 .08.1.18.3.3.32.2.51.46.57.78.06.3.09.59.09.87v4.02c-.02 1.96-.04 3.75-.06 5.37 0 .7-.01 1.39-.03 2.07v3.36c.02.4.04.67.06.81.04.54.16.97.36 1.29.22.3.51.53.87.69.36.16.79.27 1.29.33.5.04 1.06.06 1.68.06h.54c.22-.02.41-.04.57-.06.18-.04.32-.08.42-.12.1-.04.12-.09.06-.15-.52.02-.97.03-1.35.03-.38-.02-.71-.05-.99-.09-.26-.06-.49-.15-.69-.27-.18-.12-.35-.27-.51-.45-.1-.1-.19-.21-.27-.33-.06-.12-.12-.28-.18-.48a5 5 0 01-.15-.72c-.04-.3-.06-.68-.06-1.14 0-.18-.01-.44-.03-.78v-1.11c0-.4-.01-.8-.03-1.2v-1.05l.03-9.24zm37.56-3.42c-.58.08-1.08.17-1.5.27-.4.1-.74.25-1.02.45-.26.18-.46.43-.6.75-.14.32-.22.75-.24 1.29-.02.42-.04 1-.06 1.74v2.28c0 .8-.01 1.58-.03 2.34v2.67c0 .8-.05 1.59-.15 2.37-.08.78-.24 1.53-.48 2.25-.22.7-.53 1.36-.93 1.98-.4.62-.9 1.17-1.5 1.65-.88.7-1.82 1.18-2.82 1.44-.98.26-2.01.39-3.09.39-1.22 0-2.43-.14-3.63-.42-1.2-.28-2.26-.83-3.18-1.65-.68-.6-1.22-1.33-1.62-2.19-.4-.86-.64-1.88-.72-3.06-.04-.38-.07-.82-.09-1.32 0-.5-.01-1.01-.03-1.53v-6.03c0-1.1-.02-2.07-.06-2.91-.02-.54-.1-.97-.24-1.29-.14-.32-.35-.57-.63-.75-.28-.2-.63-.35-1.05-.45-.4-.1-.88-.19-1.44-.27v-.48h10.35v.51c-.62.06-1.13.16-1.53.3-.4.12-.72.29-.96.51-.24.22-.42.49-.54.81-.1.3-.17.66-.21 1.08-.04.34-.06.75-.06 1.23v1.68l.06 6.24c.02 1.7.21 3.16.57 4.38.36 1.2 1.09 2.15 2.19 2.85.6.4 1.22.67 1.86.81.66.14 1.34.21 2.04.21.8 0 1.57-.15 2.31-.45.74-.32 1.36-.74 1.86-1.26.36-.38.65-.81.87-1.29.22-.48.38-.99.48-1.53.12-.56.19-1.16.21-1.8.04-.64.06-1.31.06-2.01l-.09-6.15c-.02-.64-.03-1.2-.03-1.68.02-.5.01-.92-.03-1.26a3.92 3.92 0 00-.24-1.08c-.1-.3-.27-.56-.51-.78-.24-.22-.56-.39-.96-.51-.4-.14-.91-.24-1.53-.3v-.51h8.94v.48zm-3.96.75c-.14.04-.26.07-.36.09h-.24l-.3-.06-.18-.09c-.1-.04-.16-.04-.18 0-.02.04.05.12.21.24.36.24.54 1.14.54 2.7v8.67c0 .18-.01.42-.03.72 0 .28-.01.58-.03.9 0 .3-.02.6-.06.9-.02.28-.04.5-.06.66-.1.58-.2 1.04-.3 1.38-.08.34-.17.62-.27.84-.04.1-.05.17-.03.21.02.02.06.02.12 0 .06-.04.12-.09.18-.15.06-.08.11-.15.15-.21.14-.28.29-.59.45-.93.16-.36.29-.8.39-1.32.08-.42.14-.88.18-1.38.06-.52.1-1.04.12-1.56.04-.52.06-1.03.06-1.53v-4.32c.02-.6.03-1.16.03-1.68v-1.59l.06-.63.06-.63c.04-.22.08-.39.12-.51.1-.3.24-.53.42-.69.18-.18.31-.29.39-.33l.24-.12c.08-.06.1-.11.06-.15-.06-.04-.17-.05-.33-.03-.14.02-.3.06-.48.12-.16.06-.32.14-.48.24-.14.1-.29.18-.45.24zm-15.9 4.05v.99c.02.48.03 1.03.03 1.65v1.95c.02.68.03 1.32.03 1.92.02.6.03 1.12.03 1.56 0 .44.01.73.03.87.02.2.04.46.06.78.04.32.1.67.18 1.05.08.36.18.74.3 1.14.14.38.32.74.54 1.08.36.56.81 1.04 1.35 1.44.56.38 1.07.67 1.53.87.52.22 1.11.4 1.77.54.66.14 1.39.19 2.19.15.32 0 .66-.03 1.02-.09.3-.04.63-.11.99-.21.36-.12.71-.27 1.05-.45.3-.16.45-.25.45-.27.02-.02.02-.04 0-.06-.08-.02-.27.02-.57.12-.28.08-.57.17-.87.27-.26.08-.68.15-1.26.21s-1.21.04-1.89-.06c-.7-.1-1.33-.28-1.89-.54-.54-.26-1.07-.65-1.59-1.17-.34-.32-.62-.67-.84-1.05-.2-.38-.36-.76-.48-1.14-.12-.4-.21-.78-.27-1.14-.06-.36-.1-.68-.12-.96-.02-.18-.04-.48-.06-.9-.02-.42-.04-.88-.06-1.38l-.06-1.59c0-.56-.01-1.07-.03-1.53v-4.47c.02-.4.04-.77.06-1.11 0-.78.07-1.37.21-1.77.14-.42.42-.76.84-1.02.3-.18.63-.31.99-.39.36-.08.54-.14.54-.18 0-.02-.04-.04-.12-.06-.08-.02-.2-.02-.36 0-.16.02-.41.06-.75.12-.46.1-.91.25-1.35.45-.42.18-.79.29-1.11.33-.52.06-.92.03-1.2-.09-.28-.14-.47-.2-.57-.18-.12.04-.12.09 0 .15.14.06.32.16.54.3.32.26.52.58.6.96.08.36.12.94.12 1.74v1.17zm39.733 9.9c0 .88-.19 1.72-.57 2.52-.36.8-.89 1.51-1.59 2.13-.7.6-1.55 1.08-2.55 1.44-.98.36-2.09.54-3.33.54h-9.87v-.51c.56-.08 1.05-.16 1.47-.24.42-.1.76-.25 1.02-.45.28-.2.49-.46.63-.78s.22-.75.24-1.29c.02-.26.03-.63.03-1.11v-1.59a55.87 55.87 0 000-3.72v-5.97c0-1.1-.02-2.07-.06-2.91-.02-.54-.1-.97-.24-1.29-.14-.32-.35-.57-.63-.75-.28-.2-.63-.35-1.05-.45-.42-.1-.91-.19-1.47-.27v-.48h5.7c.66-.02 1.2-.03 1.62-.03h1.02c.7-.02 1.45.02 2.25.12.8.1 1.55.29 2.25.57.88.36 1.61.89 2.19 1.59.58.68.87 1.58.87 2.7 0 .76-.15 1.42-.45 1.98-.3.56-.66 1.03-1.08 1.41-.4.38-.8.68-1.2.9-.4.2-.7.34-.9.42V69c.72.1 1.42.28 2.1.54.68.24 1.29.58 1.83 1.02.54.42.97.95 1.29 1.59.32.62.48 1.36.48 2.22zm-2.25-10.08c.02-.44 0-.82-.06-1.14-.06-.32-.15-.59-.27-.81-.1-.22-.21-.41-.33-.57-.12-.16-.22-.29-.3-.39-.16-.22-.4-.45-.72-.69-.32-.24-.59-.41-.81-.51-.22-.1-.44-.17-.66-.21-.22-.06-.42-.07-.6-.03-.1.04-.14.09-.12.15.02.06.05.11.09.15l.09.09a.8.8 0 00.21.15c.32.22.58.48.78.78.2.28.37.56.51.84.14.32.26.65.36.99.2.92.23 1.72.09 2.4-.12.66-.32 1.22-.6 1.68-.2.34-.34.55-.42.63-.06.08-.06.14 0 .18.08.06.2.06.36 0 .16-.06.32-.15.48-.27.18-.12.35-.25.51-.39.16-.14.29-.27.39-.39.06-.06.14-.16.24-.3.12-.14.23-.31.33-.51.1-.22.19-.48.27-.78.1-.3.16-.65.18-1.05zm-9.15 13.32v-.69c0-.42-.01-.94-.03-1.56 0-.64-.01-1.33-.03-2.07V62.22c0-.48.02-.86.06-1.14.06-.3.19-.54.39-.72.14-.12.37-.25.69-.39.32-.14.84-.19 1.56-.15.04 0 .06-.02.06-.06.02-.04.02-.06 0-.06-.54-.1-.99-.13-1.35-.09-.36.04-.69.11-.99.21-.28.08-.55.18-.81.3-.26.1-.56.17-.9.21-.36.04-.66.01-.9-.09-.22-.12-.47-.2-.75-.24-.1 0-.18.02-.24.06-.04.02-.04.04 0 .06.38.16.72.33 1.02.51.32.18.48.51.48.99.02.16.04.86.06 2.1v2.01c.02.8.03 1.8.03 3v4.17c.02 1.6.03 3.46.03 5.58 0 .42.09.76.27 1.02.18.26.41.47.69.63.28.14.59.24.93.3.34.04.68.07 1.02.09.12.02.34.02.66 0 .34-.04.68-.09 1.02-.15.06-.02.1-.03.12-.03.04-.02.01-.04-.09-.06-.66-.04-1.19-.14-1.59-.3-.38-.16-.68-.36-.9-.6-.2-.26-.34-.54-.42-.84-.06-.3-.09-.61-.09-.93zm7.89-2.67c0-.78-.17-1.49-.51-2.13-.32-.66-.75-1.23-1.29-1.71s-1.16-.85-1.86-1.11c-.7-.26-1.42-.39-2.16-.39h-.48v-.57h.48c1.2 0 2.15-.39 2.85-1.17.72-.78 1.08-1.79 1.08-3.03 0-.72-.12-1.36-.36-1.92-.24-.56-.57-1.03-.99-1.41-.4-.4-.87-.7-1.41-.9-.52-.2-1.08-.3-1.68-.3-.3 0-.54.05-.72.15-.16.1-.29.22-.39.36a.96.96 0 00-.15.42c-.02.14-.03.26-.03.36l.03 3.42c.02 1.6.03 3.19.03 4.77a192 192 0 010 4.8v1.77c.02.54.04.87.06.99.02.42.07.8.15 1.14.1.32.27.59.51.81.24.22.56.39.96.51.42.12.95.18 1.59.18.44 0 .91-.09 1.41-.27.5-.2.96-.5 1.38-.9.44-.4.8-.92 1.08-1.56s.42-1.41.42-2.31zm2.7 1.86c.22-.42.37-.87.45-1.35.08-.48.1-.94.06-1.38a4.88 4.88 0 00-.21-1.26c-.1-.4-.23-.72-.39-.96-.34-.52-.79-.97-1.35-1.35-.54-.38-1.13-.68-1.77-.9-.3-.08-.59-.15-.87-.21-.24-.04-.51-.07-.81-.09-.28-.02-.53 0-.75.06.98.24 1.76.6 2.34 1.08.58.46 1.03.92 1.35 1.38.36.54.61 1.13.75 1.77.12.78.13 1.48.03 2.1-.1.62-.26 1.16-.48 1.62-.2.44-.43.81-.69 1.11-.24.3-.45.54-.63.72l-.3.3c-.02.04.09.02.33-.06.66-.2 1.23-.51 1.71-.93.48-.44.89-.99 1.23-1.65z" fill="#CDBD55"/><ellipse cx="116" cy="47" rx="115" ry="1" fill="#CDBD55"/></svg>