<svg id="Capa_1" enable-background="new 0 0 510 510" height="512" viewBox="0 0 510 510" width="512" xmlns="http://www.w3.org/2000/svg"><g id="XMLID_405_"><g id="XMLID_413_"><g><path id="XMLID_940_" d="m428.133 181.873-23.633 54.127-11.5 70 58.389-19 58.389-39.389c-1.442-1.16 12.525 10.086-81.645-65.738z" fill="#ffb542"/></g></g><g id="XMLID_418_"><g><path id="XMLID_947_" d="m.544 247.355 53.59 36.883 62.741 21.474-7.398-61.515-27.397-61.514c-94.162 74.686-80.07 63.508-81.536 64.672z" fill="#ffdd30"/></g></g><g id="XMLID_422_"><g><path id="XMLID_209_" d="m59.844 104.062 57.031 201.65 32.375 24.141h15.75l10-138.853-10-115.688z" fill="#00bea4"/></g></g><g id="XMLID_425_"><g><path id="XMLID_214_" d="m450.156 104.062-57.156 201.938-24.333 19.051-23.667 5.324-10-127.793 10-127.27z" fill="#008f83"/></g></g><path id="XMLID_443_" d="m165 15v60.87 89.13 164.853l45 32.573 45 12.574 10-165-10-195z" fill="#4fe5a5"/><path id="XMLID_445_" d="m255 15v360l55.074-12.35 34.926-32.275c0-12.182 0-243.496 0-253.235v-62.14z" fill="#00bea4"/><path id="XMLID_446_" d="m240 165c0-8.271 6.728-15 15-15l10-29.25-10-30.75h-15v32.58c-17.459 6.192-30 22.865-30 42.42 0 24.812 20.186 45 45 45l10-15-10-15c-8.272 0-15-6.73-15-15z" fill="#455e80"/><path id="XMLID_451_" d="m241.998 232.488-25.969 15.023c5.429 9.384 14.023 16.351 23.971 19.885v32.604h15l10-33.756-10-26.244c-5.34 0-10.322-2.878-13.002-7.512z" fill="#455e80"/><path id="XMLID_452_" d="m268.002 157.511 25.969-15.023c-5.429-9.384-14.023-16.35-23.971-19.884v-32.604h-15v60c5.34 0 10.322 2.878 13.002 7.511z" fill="#354367"/><path id="XMLID_453_" d="m255 180v30c8.271 0 15 6.729 15 15 0 8.27-6.729 15-15 15v60h15v-32.58c17.459-6.192 30-22.865 30-42.42 0-24.813-20.187-45-45-45z" fill="#354367"/><path id="XMLID_498_" d="m155.429 325.051-81.929 68.449-73.5 101.5h255l13.5-61-13.5-59z" fill="#ffdd30"/><path id="XMLID_518_" d="m354.38 325.31-99.38 49.69v120h255l-77.81-107.333z" fill="#ffb542"/><g id="XMLID_557_"><g><path id="XMLID_913_" d="m.544 247.355-.544.435v247.21l155.429-169.949z" fill="#ffb542"/></g></g><g id="XMLID_597_"><g><path id="XMLID_957_" d="m509.777 247.611-155.397 77.699 155.62 169.69v-247.21z" fill="#ff9000"/></g></g></g></svg>