<?xml version="1.0" encoding="iso-8859-1"?>
<!-- Generator: Adobe Illustrator 21.0.0, SVG Export Plug-In . SVG Version: 6.00 Build 0)  -->
<svg xmlns="http://www.w3.org/2000/svg" xmlns:xlink="http://www.w3.org/1999/xlink" version="1.1" id="Capa_1" x="0px" y="0px" viewBox="0 0 512 512" style="enable-background:new 0 0 512 512;" xml:space="preserve" width="512" height="512">
<g>
	<path style="fill:#FFF3EE;" d="M54.876,440.195c-6.341,0-11.227,5.682-10.181,11.936C50.379,486.107,79.922,512,115.512,512h303.87   c-36.62,0-66.838-27.413-71.25-62.839c-0.639-5.133-5.035-8.966-10.207-8.966H54.876z"/>
	<path style="fill:#EAD6D0;" d="M64.967,491.187C77.943,504.05,95.798,512,115.512,512h303.87c-36.62,0-66.838-27.414-71.25-62.839   c-0.639-5.133-5.035-8.966-10.207-8.966h-20.526c0,8.618,1.07,16.986,3.084,24.978c3.325,13.194-6.539,26.014-20.145,26.014H64.967   z"/>
	<path style="fill:#FFDDCC;" d="M135.285,10.305v429.89h212.293c0,39.974,32.665,72.319,72.758,71.799   c39.46-0.512,70.852-33.406,70.852-72.869V10.305C491.187,4.614,486.573,0,480.882,0H145.589   C139.898,0,135.285,4.614,135.285,10.305z"/>
	<path style="fill:#FFCACA;" d="M491.187,439.24V10.305C491.187,4.614,486.573,0,480.882,0h-21.955v439.414   c0,22.174-18.146,40.742-40.316,40.318c-21.484-0.411-38.774-17.955-38.774-39.537v-11.554c0-5.689-4.611-10.3-10.3-10.3H135.285   v21.854h202.636c5.243,0,9.573,3.949,10.234,9.15c4.514,35.494,34.941,62.899,71.719,62.653   C459.495,511.733,491.187,478.863,491.187,439.24z"/>
	<path style="fill:#FF6C8C;" d="M313.189,164.943c0,0,9.803-8.016,21.534-19.802c17.479-17.562,39.24-43.495,39.24-63.762   c0-1.194-0.069-2.373-0.203-3.531c-1.75-15.119-14.596-26.856-30.184-26.856c-16.782,0-30.387,13.605-30.387,30.387h0.094   c0-16.782-13.605-30.387-30.387-30.387c-16.782,0-30.387,13.605-30.387,30.387c0,33.869,60.774,83.564,60.774,83.564H313.189z"/>
	<g>
		<path style="fill:#3D3D3D;" d="M77.008,85.333H20.813V53.138c0-13.255,10.745-24,24-24h8.195c13.255,0,24,10.745,24,24V85.333z"/>
		<path style="fill:#2D2D2D;" d="M52.033,29.138h-6.244c-2.534,0-4.98,0.381-7.285,1.082c10.24,3.118,17.691,12.634,17.691,23.893    v31.22h20.813v-31.22C77.008,40.32,65.826,29.138,52.033,29.138z"/>
		<path style="fill:#3D3D3D;" d="M75.453,342.793l-18.506,29.742c-4.111,6.606-13.779,6.448-17.672-0.289l-17.08-29.56    c-0.906-1.567-1.382-3.345-1.382-5.155V120.715h56.195v216.633C77.008,339.273,76.469,341.159,75.453,342.793z"/>
		<path style="fill:#2D2D2D;" d="M56.195,120.715v219.577l-18.346,29.485l1.426,2.468c3.893,6.737,13.561,6.895,17.672,0.289    l18.506-29.742c1.017-1.634,1.555-3.52,1.555-5.444V120.715H56.195z"/>
		<path style="fill:#FCE36F;" d="M81.171,200.846L81.171,200.846c-8.046,0-14.569-6.523-14.569-14.569v-65.561H20.813V85.333h64.52    c5.747,0,10.407,4.659,10.407,10.407v90.537C95.74,194.323,89.217,200.846,81.171,200.846z"/>
		<path style="fill:#FFD939;" d="M85.333,85.333H56.195v35.382h10.407v65.561c0,8.046,6.523,14.569,14.569,14.569    s14.569-6.523,14.569-14.569V95.74C95.74,89.992,91.081,85.333,85.333,85.333z"/>
		<rect x="20.813" y="224.78" style="fill:#FCE36F;" width="56.195" height="31.22"/>
		<rect x="56.195" y="224.78" style="fill:#FFD939;" width="20.813" height="31.22"/>
		<g>
			<path style="fill:#FF4A7A;" d="M192.52,328.325h120.715c4.31,0,7.805-3.494,7.805-7.805c0-4.311-3.494-7.805-7.805-7.805H192.52     c-4.31,0-7.805,3.494-7.805,7.805C184.715,324.831,188.21,328.325,192.52,328.325z"/>
			<path style="fill:#FF4A7A;" d="M192.52,276.293h241.431c4.31,0,7.805-3.494,7.805-7.805c0-4.311-3.494-7.805-7.805-7.805H192.52     c-4.31,0-7.805,3.494-7.805,7.805C184.715,272.798,188.21,276.293,192.52,276.293z"/>
			<path style="fill:#FF4A7A;" d="M433.951,395.967H367.35c-4.31,0-7.805,3.494-7.805,7.805c0,4.31,3.494,7.805,7.805,7.805h66.602     c4.31,0,7.805-3.494,7.805-7.805C441.756,399.462,438.262,395.967,433.951,395.967z"/>
			<path style="fill:#FF4A7A;" d="M192.52,411.577h66.602c4.31,0,7.805-3.494,7.805-7.805c0-4.31-3.494-7.805-7.805-7.805H192.52     c-4.31,0-7.805,3.494-7.805,7.805C184.715,408.083,188.21,411.577,192.52,411.577z"/>
			<path style="fill:#FF4A7A;" d="M184.715,216.455c0,4.31,3.494,7.805,7.805,7.805h241.431c4.31,0,7.805-3.494,7.805-7.805     c0-4.31-3.494-7.805-7.805-7.805H192.52C188.21,208.65,184.715,212.145,184.715,216.455z"/>
		</g>
	</g>
</g>















</svg>
