<svg width="241" height="54" viewBox="0 0 241 54" fill="none" xmlns="http://www.w3.org/2000/svg">
<path d="M48.68 0.459998C49.52 0.459998 50.52 0.919998 51.68 1.84C52.84 2.76 53.42 3.84 53.42 5.08C53.42 6.96 52.42 9.94 50.42 14.02C48.42 18.1 46.02 22.16 43.22 26.2C40.3 30.4 37.14 33.98 33.74 36.94C30.3 39.98 27.22 41.5 24.5 41.5C21.26 41.5 19.64 39.52 19.64 35.56C19.64 32.84 20.46 29.14 22.1 24.46C19.14 29.42 16.14 33.54 13.1 36.82C10.02 40.14 7.2 41.8 4.64 41.8C3.32 41.8 2.24 41.36 1.4 40.48C0.6 39.6 0.2 38.4 0.2 36.88C0.2 34.48 1.46 30.74 3.98 25.66C6.34 20.86 8.84 16.12 11.48 11.44C14 7 15.26 4.36 15.26 3.52C15.26 3.44 15.24 3.3 15.2 3.1C15.2 2.9 15.2 2.78 15.2 2.74C15.2 2.18 15.58 1.9 16.34 1.9C17.42 1.9 18.48 2.34 19.52 3.22C20.64 4.14 21.18 5.22 21.14 6.46C21.06 7.86 18.76 12.54 14.24 20.5C9.72 28.5 7.46 33.16 7.46 34.48C7.46 35.16 7.72 35.5 8.24 35.5C9.4 35.5 12.06 32.82 16.22 27.46C20.42 22.14 24.5 16.26 28.46 9.82C28.74 9.22 29.1 8.6 29.54 7.96C29.86 7.4 30.36 7.12 31.04 7.12C31.92 7.12 32.88 7.48 33.92 8.2C34.92 8.84 35.42 9.52 35.42 10.24C35.42 10.6 35.26 10.94 34.94 11.26C33.02 13.66 31.06 17.38 29.06 22.42C27.02 27.46 26 31.14 26 33.46C26 34.62 26.4 35.2 27.2 35.2C28.88 35.2 31.4 32.86 34.76 28.18C38.08 23.54 41.08 18.52 43.76 13.12C46.4 7.72 47.72 4.02 47.72 2.02V1.54L47.66 1.24C47.66 0.719998 48 0.459998 48.68 0.459998ZM72.8319 24.64C73.2319 24.64 73.6119 24.88 73.9719 25.36C74.3319 25.8 74.4319 26.26 74.2719 26.74C71.5119 30.26 68.3119 33.38 64.6719 36.1C61.1119 38.7 57.5919 40 54.1119 40C51.7119 40 49.8119 39.36 48.4119 38.08C47.0519 36.76 46.3719 35 46.3719 32.8C46.3719 30.24 47.2119 27.44 48.8919 24.4C50.5719 21.28 52.7519 18.62 55.4319 16.42C58.1119 14.22 60.7119 13.12 63.2319 13.12C65.0719 13.12 66.5719 13.68 67.7319 14.8C68.8919 15.88 69.4719 17.24 69.4719 18.88C69.4719 21.36 68.1119 23.78 65.3919 26.14C62.7119 28.42 59.8919 29.56 56.9319 29.56C55.8919 29.56 54.9319 29.38 54.0519 29.02C53.7319 30.18 53.5719 31.14 53.5719 31.9C53.5719 33.86 54.6319 34.84 56.7519 34.84C58.9919 34.84 61.5119 33.94 64.3119 32.14C67.1119 30.3 69.7919 27.86 72.3519 24.82C72.4719 24.7 72.6319 24.64 72.8319 24.64ZM64.1919 16.06C63.0719 16.06 61.4919 17.22 59.4519 19.54C57.4519 21.9 55.8919 24.38 54.7719 26.98H55.2519C57.3719 26.98 59.4919 25.68 61.6119 23.08C63.7719 20.52 64.8519 18.44 64.8519 16.84C64.8519 16.32 64.6319 16.06 64.1919 16.06ZM72.0505 40C70.9705 40 70.1105 39.62 69.4705 38.86C68.8705 38.06 68.5705 37 68.5705 35.68C68.5705 33.32 69.9105 29.46 72.5905 24.1C75.2305 18.78 78.1705 13.82 81.4105 9.22C84.5705 4.74 86.7505 2.5 87.9505 2.5C88.8305 2.5 89.6705 2.88 90.4705 3.64C91.3105 4.44 91.7305 5.12 91.7305 5.68C91.7305 5.92 91.6505 6.1 91.4905 6.22C87.9705 10.02 84.4905 14.98 81.0505 21.1C77.6105 27.18 75.8905 31.1 75.8905 32.86C75.8905 33.42 76.1505 33.7 76.6705 33.7C77.3905 33.7 78.6905 32.88 80.5705 31.24C82.5305 29.48 84.5905 27.34 86.7505 24.82C86.8705 24.7 87.0305 24.64 87.2305 24.64C87.6305 24.64 87.9905 24.88 88.3105 25.36C88.6705 25.8 88.7905 26.26 88.6705 26.74C81.3905 35.58 75.8505 40 72.0505 40ZM86.4645 40C85.3845 40 84.5245 39.62 83.8845 38.86C83.2845 38.06 82.9845 37 82.9845 35.68C82.9845 33.32 84.3245 29.46 87.0045 24.1C89.6445 18.78 92.5845 13.82 95.8245 9.22C98.9845 4.74 101.165 2.5 102.365 2.5C103.245 2.5 104.085 2.88 104.885 3.64C105.725 4.44 106.145 5.12 106.145 5.68C106.145 5.92 106.065 6.1 105.905 6.22C102.385 10.02 98.9045 14.98 95.4645 21.1C92.0245 27.18 90.3045 31.1 90.3045 32.86C90.3045 33.42 90.5645 33.7 91.0845 33.7C91.8045 33.7 93.1045 32.88 94.9845 31.24C96.9445 29.48 99.0045 27.34 101.165 24.82C101.285 24.7 101.445 24.64 101.645 24.64C102.045 24.64 102.405 24.88 102.725 25.36C103.085 25.8 103.205 26.26 103.085 26.74C95.8045 35.58 90.2645 40 86.4645 40ZM121.039 13.18C122.439 13.18 123.559 13.64 124.399 14.56C125.239 15.48 125.659 16.7 125.659 18.22C125.659 20.74 124.599 23.78 122.479 27.34C120.439 30.78 117.779 33.86 114.499 36.58C111.299 39.18 108.379 40.48 105.739 40.48C103.699 40.48 101.959 39.74 100.519 38.26C99.1186 36.74 98.4186 34.96 98.4186 32.92C98.4186 30.52 99.6586 26.8 102.139 21.76C104.579 16.84 107.239 12.38 110.119 8.38C112.959 4.46 114.899 2.5 115.939 2.5C116.859 2.5 117.719 2.88 118.519 3.64C119.359 4.44 119.779 5.12 119.779 5.68C119.779 5.88 119.699 6.06 119.539 6.22C115.819 10.18 111.699 16.08 107.179 23.92C110.339 20.12 112.999 17.38 115.159 15.7C117.319 14.02 119.279 13.18 121.039 13.18ZM105.679 35.56C107.039 35.56 108.819 34.46 111.019 32.26C113.259 30.1 115.259 27.58 117.019 24.7C118.739 21.9 119.599 19.68 119.599 18.04C119.599 17.32 119.339 16.96 118.819 16.96C117.539 16.96 114.819 19.22 110.659 23.74C106.579 28.26 104.239 31.56 103.639 33.64C103.639 34.16 103.819 34.62 104.179 35.02C104.539 35.38 105.039 35.56 105.679 35.56ZM151.172 24.64C151.572 24.64 151.952 24.88 152.312 25.36C152.672 25.8 152.772 26.26 152.612 26.74C149.852 30.26 146.652 33.38 143.012 36.1C139.452 38.7 135.932 40 132.452 40C130.052 40 128.152 39.36 126.752 38.08C125.392 36.76 124.712 35 124.712 32.8C124.712 30.24 125.552 27.44 127.232 24.4C128.912 21.28 131.092 18.62 133.772 16.42C136.452 14.22 139.052 13.12 141.572 13.12C143.412 13.12 144.912 13.68 146.072 14.8C147.232 15.88 147.812 17.24 147.812 18.88C147.812 21.36 146.452 23.78 143.732 26.14C141.052 28.42 138.232 29.56 135.272 29.56C134.232 29.56 133.272 29.38 132.392 29.02C132.072 30.18 131.912 31.14 131.912 31.9C131.912 33.86 132.972 34.84 135.092 34.84C137.332 34.84 139.852 33.94 142.652 32.14C145.452 30.3 148.132 27.86 150.692 24.82C150.812 24.7 150.972 24.64 151.172 24.64ZM142.532 16.06C141.412 16.06 139.832 17.22 137.792 19.54C135.792 21.9 134.232 24.38 133.112 26.98H133.592C135.712 26.98 137.832 25.68 139.952 23.08C142.112 20.52 143.192 18.44 143.192 16.84C143.192 16.32 142.972 16.06 142.532 16.06ZM176.61 5.2C176.61 5.36 176.53 5.52 176.37 5.68C173.45 8.88 170.15 13.56 166.47 19.72C162.87 25.88 160.41 30.68 159.09 34.12C163.09 33.2 166.75 32.74 170.07 32.74C174.15 32.74 176.19 33.62 176.19 35.38C176.19 36.54 175.75 37.7 174.87 38.86C174.03 40.02 173.31 40.6 172.71 40.6C172.39 40.6 172.19 40.32 172.11 39.76C171.11 39.2 169.27 38.92 166.59 38.92C163.51 38.92 160.25 39.24 156.81 39.88C153.25 40.48 150.55 41.2 148.71 42.04C148.47 42.16 148.27 42.22 148.11 42.22C147.55 42.22 147.27 41.84 147.27 41.08C147.27 39.68 148.21 38.46 150.09 37.42C151.33 36.7 153.05 35.96 155.25 35.2C154.25 34.2 153.75 33.08 153.75 31.84C153.75 30.12 154.99 26.82 157.47 21.94C159.99 17.1 162.75 12.54 165.75 8.26C168.75 4.02 170.87 1.9 172.11 1.9C173.23 1.9 174.25 2.3 175.17 3.1C176.13 3.86 176.61 4.56 176.61 5.2ZM195.875 9.94C195.195 9.94 194.655 9.74 194.255 9.34C193.855 8.94 193.655 8.42 193.655 7.78C193.655 6.54 194.175 5.28 195.215 4C196.215 2.68 197.535 2.02 199.175 2.02C199.935 2.02 200.575 2.28 201.095 2.8C201.615 3.32 201.875 3.92 201.875 4.6C201.875 5.88 201.295 7.1 200.135 8.26C199.015 9.38 197.595 9.94 195.875 9.94ZM199.295 26.74C192.015 35.58 186.475 40 182.675 40C181.595 40 180.735 39.62 180.095 38.86C179.495 38.06 179.195 37 179.195 35.68C179.195 33.36 180.055 30.42 181.775 26.86C183.455 23.38 185.295 20.3 187.295 17.62C189.295 15.02 190.615 13.72 191.255 13.72C192.015 13.72 192.835 14.14 193.715 14.98C194.635 15.78 195.095 16.42 195.095 16.9C195.095 17.1 195.015 17.28 194.855 17.44C192.895 19.8 191.035 22.66 189.275 26.02C187.555 29.3 186.695 31.58 186.695 32.86C186.695 33.42 186.895 33.7 187.295 33.7C188.015 33.7 189.315 32.88 191.195 31.24C193.155 29.48 195.215 27.34 197.375 24.82C197.495 24.7 197.655 24.64 197.855 24.64C198.255 24.64 198.615 24.88 198.935 25.36C199.295 25.8 199.415 26.26 199.295 26.74ZM216.11 24.82C216.51 24.54 216.97 24.64 217.49 25.12C218.05 25.6 218.23 26.14 218.03 26.74C216.51 28.42 214.85 29.76 213.05 30.76C211.25 31.76 209.57 32.32 208.01 32.44C207.57 35.52 206.57 38.6 205.01 41.68C203.33 44.96 201.33 47.68 199.01 49.84C196.57 52.08 194.21 53.2 191.93 53.2C189.25 53.2 187.91 51.7 187.91 48.7C187.91 46.34 188.91 42.76 190.91 37.96C192.87 33.2 195.37 28.12 198.41 22.72C198.41 22.6 198.39 22.46 198.35 22.3C198.35 22.14 198.33 22.02 198.29 21.94C198.29 21.82 198.29 21.72 198.29 21.64C198.29 21.52 198.29 21.44 198.29 21.4C198.29 19.76 198.99 18.94 200.39 18.94H200.57C203.41 14.14 206.03 10.22 208.43 7.18C210.87 4.06 212.63 2.5 213.71 2.5C214.59 2.5 215.43 2.88 216.23 3.64C217.07 4.44 217.49 5.12 217.49 5.68C217.49 5.92 217.41 6.1 217.25 6.22C214.41 8.18 210.49 13.46 205.49 22.06C206.93 23.94 207.81 26.12 208.13 28.6H208.49C211.29 28.6 213.83 27.34 216.11 24.82ZM195.17 47.86C196.61 47.86 198.27 46.12 200.15 42.64C201.95 39.32 203.25 35.66 204.05 31.66C203.05 31.06 202.19 30.32 201.47 29.44C196.79 38.32 194.45 44.16 194.45 46.96C194.45 47.56 194.69 47.86 195.17 47.86ZM239.121 24.64C239.521 24.64 239.901 24.88 240.261 25.36C240.621 25.8 240.721 26.26 240.561 26.74C237.801 30.26 234.601 33.38 230.961 36.1C227.401 38.7 223.881 40 220.401 40C218.001 40 216.101 39.36 214.701 38.08C213.341 36.76 212.661 35 212.661 32.8C212.661 30.24 213.501 27.44 215.181 24.4C216.861 21.28 219.041 18.62 221.721 16.42C224.401 14.22 227.001 13.12 229.521 13.12C231.361 13.12 232.861 13.68 234.021 14.8C235.181 15.88 235.761 17.24 235.761 18.88C235.761 21.36 234.401 23.78 231.681 26.14C229.001 28.42 226.181 29.56 223.221 29.56C222.181 29.56 221.221 29.38 220.341 29.02C220.021 30.18 219.861 31.14 219.861 31.9C219.861 33.86 220.921 34.84 223.041 34.84C225.281 34.84 227.801 33.94 230.601 32.14C233.401 30.3 236.081 27.86 238.641 24.82C238.761 24.7 238.921 24.64 239.121 24.64ZM230.481 16.06C229.361 16.06 227.781 17.22 225.741 19.54C223.741 21.9 222.181 24.38 221.061 26.98H221.541C223.661 26.98 225.781 25.68 227.901 23.08C230.061 20.52 231.141 18.44 231.141 16.84C231.141 16.32 230.921 16.06 230.481 16.06Z" fill="#12BE83"/>
</svg>
