<?xml version="1.0" encoding="iso-8859-1"?>
<!-- Generator: Adobe Illustrator 19.0.0, SVG Export Plug-In . SVG Version: 6.00 Build 0)  -->
<svg version="1.1" id="Capa_1" xmlns="http://www.w3.org/2000/svg" xmlns:xlink="http://www.w3.org/1999/xlink" x="0px" y="0px"
	 viewBox="0 0 512 512" style="enable-background:new 0 0 512 512;" xml:space="preserve">
<polygon style="fill:#EFE2DD;" points="0,1.135 0,422.147 88.229,510.861 385.053,510.861 385.053,171.084 385.053,74.95 
	385.053,1.135 "/>
<g>
	<rect x="195.95" y="1.135" style="fill:#E1D3CE;" width="189.11" height="509.73"/>
	<polygon style="fill:#E1D3CE;" points="0,422.147 87.804,422.147 87.804,510.861 	"/>
</g>
<g>
	<rect x="173.74" y="119.838" style="fill:#00215A;" width="151.33" height="29.925"/>
	<rect x="173.74" y="179.688" style="fill:#00215A;" width="178.66" height="29.925"/>
	<rect x="173.74" y="239.538" style="fill:#00215A;" width="133.74" height="29.925"/>
	<rect x="173.74" y="359.238" style="fill:#00215A;" width="72.74" height="29.925"/>
	<rect x="59.87" y="299.388" style="fill:#00215A;" width="202.68" height="29.925"/>
</g>
<path style="fill:#EC5569;" d="M110.683,221.78h-4.444c-3.127,0-5.671-2.544-5.671-5.671H70.643c0,15.139,9.504,28.093,22.856,33.23
	v20.088h29.925v-20.088c13.352-5.137,22.856-18.091,22.856-33.23c0-19.628-15.968-35.597-35.597-35.597h-4.444
	c-3.127,0-5.671-2.545-5.671-5.672s2.544-5.672,5.671-5.672h4.444c3.127,0,5.672,2.545,5.672,5.672h29.925
	c0-15.139-9.504-28.093-22.856-33.23v-20.086H93.498v20.087c-13.352,5.137-22.856,18.091-22.856,33.23
	c0,19.628,15.968,35.597,35.596,35.597h4.444c3.127,0,5.672,2.545,5.672,5.672S113.81,221.78,110.683,221.78z"/>
<g>
	<rect x="195.95" y="119.838" style="fill:#001035;" width="129.12" height="29.925"/>
	<rect x="195.95" y="179.688" style="fill:#001035;" width="156.45" height="29.925"/>
	<rect x="195.95" y="239.538" style="fill:#001035;" width="111.53" height="29.925"/>
	<rect x="195.95" y="359.238" style="fill:#001035;" width="50.53" height="29.925"/>
	<rect x="195.95" y="299.388" style="fill:#001035;" width="66.61" height="29.925"/>
</g>
<path style="fill:#00317E;" d="M434.64,63.301c-0.569-0.315-1.011-0.692-1.373-1.102c-0.835,0.959-1.643,1.951-2.406,2.996
	l-187.453,249.74l-21.884,106.281l94.368-53.312l187.385-249.648l0.138-0.187c0.632-0.87,1.218-1.763,1.783-2.665
	C501.442,112.944,434.64,63.301,434.64,63.301z"/>
<polygon style="fill:#00215A;" points="504.331,116.835 468.345,90.467 442.956,124.709 443.134,124.849 280.998,342.403 
	315.893,367.903 "/>
<path style="fill:#EC5569;" d="M430.862,65.196c14.57-19.936,42.635-24.351,62.626-9.827c9.701,7.048,16.075,17.451,17.95,29.294
	c1.875,11.843-0.974,23.707-8.022,33.407l-0.138,0.187L430.862,65.196z"/>
<path style="fill:#E63950;" d="M503.278,118.254l0.138-0.187c7.048-9.7,9.896-21.564,8.022-33.407
	c-1.838-11.609-8.001-22.086-17.95-29.294l-26.196,36.52L503.278,118.254z"/>
<polygon style="fill:#FFDA2D;" points="423.749,291.979 399.869,273.944 468.59,182.953 389.298,120.569 407.267,96.63 
	510.153,177.576 "/>
<polygon style="fill:#FDBF00;" points="442.956,124.709 425.127,148.758 468.59,182.953 399.869,273.944 423.749,291.979 
	510.153,177.576 "/>
<path style="fill:#0040A0;" d="M315.893,367.903l-94.368,53.312l21.884-106.281L315.893,367.903z"/>
<polygon style="fill:#00317E;" points="221.525,421.215 315.893,367.903 280.998,342.403 "/>
<g>
</g>
<g>
</g>
<g>
</g>
<g>
</g>
<g>
</g>
<g>
</g>
<g>
</g>
<g>
</g>
<g>
</g>
<g>
</g>
<g>
</g>
<g>
</g>
<g>
</g>
<g>
</g>
<g>
</g>
</svg>
