<svg id="Capa_1" enable-background="new 0 0 511.995 511.995" height="512" viewBox="0 0 511.995 511.995" width="512" xmlns="http://www.w3.org/2000/svg"><g><path d="m365.462 448.343h-288.258c-25.333 0-45.869-20.536-45.869-45.869v-356.605c0-25.333 20.536-45.869 45.869-45.869h288.258c25.333 0 45.869 20.536 45.869 45.869v356.605c0 25.332-20.536 45.869-45.869 45.869z" fill="#dd636e"/><path d="m103.732 448.345h-26.522c-25.335 0-45.869-20.534-45.869-45.869v-356.612c0-25.325 20.534-45.859 45.869-45.859h26.522c-25.335 0-45.87 20.534-45.87 45.859v356.612c0 25.335 20.535 45.869 45.87 45.869z" fill="#da4a54"/><path d="m370.035 358.002v-267.662c-27.086 0-49.044-21.958-49.044-49.044h-199.316c0 27.086-21.958 49.044-49.044 49.044v267.662c27.086 0 49.044 21.958 49.044 49.044h199.315c.001-27.086 21.958-49.044 49.045-49.044z" fill="#f9f6f9"/><g fill="#ffe07d"><path d="m297.303 229.732h-151.94c-4.267 0-7.726-3.459-7.726-7.726s3.459-7.726 7.726-7.726h151.94c4.268 0 7.726 3.459 7.726 7.726s-3.458 7.726-7.726 7.726z"/><path d="m314.081 268.635h-185.496c-4.267 0-7.726-3.459-7.726-7.726s3.459-7.726 7.726-7.726h185.495c4.268 0 7.726 3.459 7.726 7.726s-3.458 7.726-7.725 7.726z"/><path d="m314.081 308.565h-185.496c-4.267 0-7.726-3.459-7.726-7.726s3.459-7.726 7.726-7.726h185.495c4.268 0 7.726 3.459 7.726 7.726s-3.458 7.726-7.725 7.726z"/><path d="m269.724 348.496h-96.781c-4.267 0-7.726-3.459-7.726-7.726s3.459-7.726 7.726-7.726h96.781c4.268 0 7.726 3.459 7.726 7.726s-3.459 7.726-7.726 7.726z"/></g><g><path d="m366.137 511.988c-10.997 0-21.442-5.074-28.239-13.841l-59.754-77.077c-12.092-15.598-9.25-38.046 6.348-50.138 15.6-12.093 38.047-9.25 50.139 6.347l26.824 34.601 52.346-92.688c9.707-17.185 31.503-23.249 48.691-13.543 17.185 9.706 23.248 31.505 13.543 48.69l-78.776 139.487c-5.883 10.418-16.59 17.2-28.522 18.069-.869.062-1.737.093-2.6.093z" fill="#b3e59f"/><g fill="#95d6a4"><path d="m475.124 317.667c-.5-.334-1.024-.643-1.548-.941-17.189-9.708-38.988-3.645-48.697 13.544l-52.342 92.688-11.078-11.078 52.342-92.688c9.708-17.189 31.508-23.252 48.697-13.544 5.336 3.013 9.588 7.183 12.626 12.019z"/><path d="m391.749 501.167c-6.016 6.206-14.175 10.09-23.014 10.733-.87.059-1.739.095-2.597.095-11.007 0-21.442-5.075-28.244-13.842l-59.751-77.083c-12.091-15.593-9.256-38.035 6.349-50.138 4.61-3.586 9.839-5.849 15.212-6.861-12.246 12.555-13.675 32.544-2.621 46.803l59.751 77.083c6.802 8.767 17.249 13.842 28.244 13.842.858 0 1.727-.036 2.597-.095 1.382-.096 2.74-.275 4.074-.537z"/></g></g><path d="m238.429 97.506-17.096 17.096-17.096-17.096c-11.01-11.01-28.859-11.01-39.869 0-11.009 11.009-11.01 28.859 0 39.869l17.096 17.096 39.869 39.869 39.869-39.869 17.096-17.096c11.01-11.01 11.009-28.859 0-39.869-11.01-11.009-28.86-11.009-39.869 0z" fill="#dd636e"/></g></svg>