<?xml version="1.0" ?><svg style="enable-background:new 0 0 64 64;" version="1.1" viewBox="0 0 64 64" xml:space="preserve" xmlns="http://www.w3.org/2000/svg" xmlns:xlink="http://www.w3.org/1999/xlink"><style type="text/css">
	.st0{fill:#75C6A8;}
	.st1{fill:#57B5B5;}
	.st2{fill:#263047;}
	.st3{fill:#DB7158;}
	.st4{fill:none;stroke:#263047;stroke-width:0.5;stroke-linecap:round;stroke-miterlimit:10;}
	.st5{fill:none;stroke:#EA8B78;stroke-width:2;stroke-linecap:round;stroke-miterlimit:10;}
	.st6{fill:#E89715;}
	.st7{fill:none;stroke:#263047;stroke-linecap:round;stroke-miterlimit:10;}
	.st8{fill:none;stroke:#263047;stroke-width:0.5;stroke-linecap:round;stroke-linejoin:round;stroke-miterlimit:10;}
	.st9{fill:#456BA8;}
	.st10{fill:#9EC6B8;}
	.st11{fill:#C14F46;}
	.st12{fill:#BFD8D0;}
	.st13{fill:#E57417;}
	.st14{fill:none;stroke:#9EC6B8;stroke-width:0.75;stroke-linecap:round;stroke-linejoin:round;stroke-miterlimit:10;}
	.st15{fill:#FFFFFF;}
	.st16{fill:#D8EAE3;}
	.st17{fill:none;stroke:#DB7158;stroke-linecap:round;stroke-miterlimit:10;}
	.st18{fill:none;stroke:#BFD8D0;stroke-width:0.5;stroke-linecap:round;stroke-miterlimit:10;}
	.st19{fill:none;stroke:#263047;stroke-width:0.5;stroke-linecap:round;stroke-miterlimit:10;stroke-dasharray:1.0458,1.0458;}
	.st20{fill:#75C6A8;stroke:#75C6A8;stroke-width:0.25;stroke-linejoin:round;stroke-miterlimit:10;}
	.st21{fill:#EF8873;}
	.st22{fill:none;stroke:#263047;stroke-width:0.5;stroke-miterlimit:10;}
	.st23{fill:none;stroke:#263047;stroke-width:0.5;stroke-linecap:round;stroke-miterlimit:10;stroke-dasharray:1.8125,1.8125;}
	.st24{fill:none;stroke:#263047;stroke-linecap:round;stroke-miterlimit:10;stroke-dasharray:1.912,1.912;}
	.st25{fill:none;}
	.st26{fill:none;stroke:#EA8B78;stroke-linecap:round;stroke-miterlimit:10;}
	.st27{fill:none;stroke:#263047;stroke-width:3;stroke-miterlimit:10;}
	.st28{fill:none;stroke:#BFD8D0;stroke-miterlimit:10;}
	.st29{fill:none;stroke:#BFD8D0;stroke-width:0.5;stroke-miterlimit:10;}
	.st30{fill:none;stroke:#9EC6B8;stroke-width:0.5;stroke-miterlimit:10;}
	.st31{fill:none;stroke:#75C6A8;stroke-width:0.5;stroke-miterlimit:10;}
	.st32{fill:none;stroke:#F9F9F9;stroke-width:0.5;stroke-linecap:round;stroke-linejoin:round;stroke-miterlimit:10;}
	.st33{fill:none;stroke:#9EC6B8;stroke-width:0.5;stroke-linecap:round;stroke-linejoin:round;stroke-miterlimit:10;}
	.st34{fill:#EA8B78;}
	.st35{fill:none;stroke:#EA8B78;stroke-width:0.75;stroke-linecap:round;stroke-miterlimit:10;}
</style><g id="Layer_1"/><g id="artworks"><path class="st3" d="M59,25.8c0-0.1-0.1-0.2-0.1-0.3c0-0.1,0-0.1-0.1-0.2c-0.1-0.1-0.1-0.3-0.2-0.4c0,0,0,0,0-0.1   c-0.1-0.1-0.1-0.2-0.2-0.3c-0.1-0.2-0.2-0.3-0.4-0.4c0,0,0,0,0,0L46.1,12.1c0,0,0,0,0,0c-0.1-0.1-0.3-0.3-0.4-0.4   c-0.6-0.4-1.2-0.6-1.9-0.6H22.6c-1.9,0-3.4,1.5-3.4,3.4v43.2c0,1.9,1.5,3.4,3.4,3.4h33c1.9,0,3.4-1.5,3.4-3.4V37V26.4   C59,26.2,59,26,59,25.8z"/><path class="st2" d="M19.2,57.7c0,1.9,1.5,3.4,3.4,3.4h25.9V40.7H19.2V57.7z"/><g><path class="st12" d="M8.4,6.4v43.2c0,1.9,1.5,3.4,3.4,3.4h33c1.9,0,3.4-1.5,3.4-3.4V18.3c0-0.9-0.4-1.8-1-2.4L35.3,4    c-0.6-0.6-1.5-1-2.4-1H11.8C9.9,3,8.4,4.5,8.4,6.4z"/><path class="st10" d="M45.5,15.5H34.9c0.2,0.4,0.4,0.7,0.7,1l6,6l6,6c0.2,0.2,0.4,0.4,0.7,0.5V18.3c0-0.8-0.3-1.5-0.7-2.1    C47,15.8,46.3,15.5,45.5,15.5z"/><path class="st4" d="M11.8,53h33c1.9,0,3.4-1.5,3.4-3.4V18.3"/><path class="st2" d="M47.2,15.9l-6-6l-6-6c-0.3-0.3-0.6-0.5-1-0.7v10.6c0,1.6,1.3,3,3,3h10.6C47.7,16.5,47.5,16.2,47.2,15.9z"/></g><g><g><circle class="st2" cx="21.3" cy="16.6" r="4.4"/><g><path class="st2" d="M22.7,9.7c0-0.5-0.6-0.8-1.3-0.8c-0.7,0-1.3,0.4-1.3,0.8c0,0.1,0,0.2,0.1,0.3c0.4,0.6,0.5,1.3,0.5,2v1.7      h1.4v-1.7c0-0.7,0.1-1.4,0.5-2C22.6,9.9,22.7,9.8,22.7,9.7z"/><path class="st2" d="M20,23.6c0,0.5,0.6,0.8,1.3,0.8c0.7,0,1.3-0.4,1.3-0.8c0-0.1,0-0.2-0.1-0.3c-0.4-0.6-0.5-1.3-0.5-2v-1.7      h-1.4v1.7c0,0.7-0.1,1.4-0.5,2C20.1,23.4,20,23.5,20,23.6z"/></g><g><path class="st2" d="M18.9,10.5c-0.2-0.3-0.7-0.3-1.1,0c-0.5,0.3-0.7,0.7-0.5,1c0,0.1,0.1,0.1,0.2,0.2c0.4,0.2,0.8,0.6,1,1      l0.6,1l0.9-0.5l-0.6-1c-0.2-0.4-0.4-0.9-0.4-1.4C18.9,10.6,18.9,10.6,18.9,10.5z"/><path class="st2" d="M23.8,22.8c0.2,0.3,0.7,0.3,1.1,0c0.5-0.3,0.7-0.7,0.5-1c0-0.1-0.1-0.1-0.2-0.2c-0.4-0.2-0.8-0.6-1-1      l-0.6-1l-0.9,0.5l0.6,1c0.2,0.4,0.4,0.9,0.4,1.4C23.7,22.6,23.8,22.7,23.8,22.8z"/></g><g><path class="st2" d="M14.8,15.7c-0.3,0-0.6,0.4-0.6,0.9c0,0.5,0.3,0.9,0.6,0.9c0.1,0,0.2,0,0.2-0.1c0.4-0.3,0.9-0.4,1.4-0.4h1.2      v-1h-1.2c-0.5,0-1-0.1-1.4-0.4C15,15.7,14.9,15.7,14.8,15.7z"/><path class="st2" d="M27.9,17.6c0.3,0,0.6-0.4,0.6-0.9c0-0.5-0.3-0.9-0.6-0.9c-0.1,0-0.2,0-0.2,0.1c-0.4,0.3-0.9,0.4-1.4,0.4      h-1.2v1h1.2c0.5,0,1,0.1,1.4,0.4C27.7,17.6,27.8,17.6,27.9,17.6z"/></g><g><path class="st2" d="M17.2,21.8c-0.2,0.3,0.1,0.7,0.5,1c0.5,0.3,1,0.2,1.1,0c0-0.1,0.1-0.1,0-0.2c0-0.5,0.1-1,0.4-1.4l0.6-1      L19,19.6l-0.6,1c-0.2,0.4-0.6,0.8-1,1C17.3,21.7,17.3,21.8,17.2,21.8z"/><path class="st2" d="M25.4,11.4c0.2-0.3-0.1-0.7-0.5-1c-0.5-0.3-1-0.2-1.1,0c0,0.1-0.1,0.1,0,0.2c0,0.5-0.1,1-0.4,1.4l-0.6,1      l0.9,0.5l0.6-1c0.2-0.4,0.6-0.8,1-1C25.3,11.6,25.4,11.5,25.4,11.4z"/></g><g><path class="st2" d="M16,12c-0.4-0.2-1,0.1-1.4,0.7c-0.4,0.6-0.3,1.3,0.1,1.6c0.1,0.1,0.2,0.1,0.3,0.1c0.7-0.1,1.4,0.2,2,0.5      l1.5,0.8l0.7-1.2l-1.5-0.8c-0.6-0.3-1.1-0.8-1.4-1.4C16.1,12.1,16.1,12.1,16,12z"/><path class="st2" d="M26.7,21.3c0.4,0.2,1-0.1,1.4-0.7c0.4-0.6,0.3-1.3-0.1-1.6c-0.1-0.1-0.2-0.1-0.3-0.1      c-0.7,0.1-1.4-0.2-2-0.5l-1.5-0.8l-0.7,1.2l1.5,0.8c0.6,0.3,1.1,0.8,1.4,1.4C26.6,21.1,26.6,21.2,26.7,21.3z"/></g><g><path class="st2" d="M14.6,19c-0.4,0.2-0.4,0.9-0.1,1.6c0.4,0.6,1,1,1.4,0.7c0.1-0.1,0.2-0.1,0.2-0.2c0.3-0.6,0.9-1.1,1.4-1.4      l1.5-0.8l-0.7-1.2l-1.5,0.8c-0.6,0.3-1.3,0.6-2,0.5C14.8,18.9,14.7,18.9,14.6,19z"/><path class="st2" d="M28,14.3c0.4-0.2,0.4-0.9,0.1-1.6c-0.4-0.6-1-1-1.4-0.7c-0.1,0.1-0.2,0.1-0.2,0.2c-0.3,0.6-0.9,1.1-1.4,1.4      l-1.5,0.8l0.7,1.2l1.5-0.8c0.6-0.3,1.3-0.6,2-0.5C27.8,14.4,27.9,14.3,28,14.3z"/></g><g><path class="st9" d="M20.6,15l-0.5-1.1c0.4-0.2,0.8-0.2,1.2-0.2v1.2C21.1,14.8,20.9,14.9,20.6,15z"/></g><g><path class="st9" d="M19.5,16.6h-1.2c0-0.8,0.3-1.6,0.9-2.2l0.9,0.9C19.7,15.7,19.5,16.1,19.5,16.6z"/></g></g></g><g><path class="st10" d="M20,36.9h-3.1c-1,0-1.7-0.8-1.7-1.7V32c0-1,0.8-1.7,1.7-1.7H20c1,0,1.7,0.8,1.7,1.7v3.1    C21.8,36.1,21,36.9,20,36.9z"/><path class="st15" d="M40.6,32.8H25.9c-0.4,0-0.8-0.3-0.8-0.8v0c0-0.4,0.3-0.8,0.8-0.8h14.7c0.4,0,0.8,0.3,0.8,0.8v0    C41.4,32.4,41.1,32.8,40.6,32.8z"/><path class="st15" d="M33.2,36.1h-7.3c-0.4,0-0.8-0.3-0.8-0.8l0,0c0-0.4,0.3-0.8,0.8-0.8h7.3c0.4,0,0.8,0.3,0.8,0.8l0,0    C34,35.8,33.7,36.1,33.2,36.1z"/><g><path class="st15" d="M17.9,35.1l-0.3-0.3c-0.3-0.3-0.3-0.9,0-1.2l3.7-3.7c0.3-0.3,0.9-0.3,1.2,0l0.3,0.3c0.3,0.3,0.3,0.9,0,1.2     l-3.7,3.7C18.8,35.4,18.2,35.4,17.9,35.1z"/><path class="st15" d="M16.3,32.3l0.3-0.3c0.3-0.3,0.9-0.3,1.2,0l1.6,1.6c0.3,0.3,0.3,0.9,0,1.2l-0.3,0.3c-0.3,0.3-0.9,0.3-1.2,0     l-1.6-1.6C16,33.1,16,32.6,16.3,32.3z"/></g></g><g><path class="st10" d="M20,47h-3.1c-1,0-1.7-0.8-1.7-1.7v-3.1c0-1,0.8-1.7,1.7-1.7H20c1,0,1.7,0.8,1.7,1.7v3.1    C21.8,46.2,21,47,20,47z"/><path class="st15" d="M40.6,42.9H25.9c-0.4,0-0.8-0.3-0.8-0.8l0,0c0-0.4,0.3-0.8,0.8-0.8h14.7c0.4,0,0.8,0.3,0.8,0.8l0,0    C41.4,42.5,41.1,42.9,40.6,42.9z"/><path class="st15" d="M33.2,46.2h-7.3c-0.4,0-0.8-0.3-0.8-0.8v0c0-0.4,0.3-0.8,0.8-0.8h7.3c0.4,0,0.8,0.3,0.8,0.8v0    C34,45.8,33.7,46.2,33.2,46.2z"/><g><path class="st15" d="M17.9,45.2l-0.3-0.3c-0.3-0.3-0.3-0.9,0-1.2l3.7-3.7c0.3-0.3,0.9-0.3,1.2,0l0.3,0.3c0.3,0.3,0.3,0.9,0,1.2     l-3.7,3.7C18.8,45.5,18.2,45.5,17.9,45.2z"/><path class="st15" d="M16.3,42.4l0.3-0.3c0.3-0.3,0.9-0.3,1.2,0l1.6,1.6c0.3,0.3,0.3,0.9,0,1.2l-0.3,0.3c-0.3,0.3-0.9,0.3-1.2,0     l-1.6-1.6C16,43.2,16,42.7,16.3,42.4z"/></g></g></g></svg>