<svg id="Flat" height="512" viewBox="0 0 512 512" width="512" xmlns="http://www.w3.org/2000/svg"><path d="m96 88h320v336h-320z" fill="#e9eef2"/><g fill="#d0d2d4"><path d="m144 152h64v64h-64z"/><path d="m376 208h-136a8 8 0 0 1 0-16h136a8 8 0 0 1 0 16z"/><path d="m376 256h-240a8 8 0 0 1 0-16h240a8 8 0 0 1 0 16z"/><path d="m376 288h-240a8 8 0 0 1 0-16h240a8 8 0 0 1 0 16z"/><path d="m376 320h-240a8 8 0 0 1 0-16h240a8 8 0 0 1 0 16z"/></g><path d="m176 192a7.976 7.976 0 0 1 -5.657-2.343l-24-24a8 8 0 0 1 11.314-11.314l18.343 18.344 42.343-42.344a8 8 0 0 1 11.314 11.314l-48 48a7.976 7.976 0 0 1 -5.657 2.343z" fill="#3dc285"/><path d="m320 368a7.974 7.974 0 0 1 -5.657-2.343l-10.343-10.344-10.343 10.344a8 8 0 0 1 -11.314-11.314l16-16a8 8 0 0 1 11.314 0l10.343 10.344 2.343-2.344a8 8 0 0 1 9.235-1.5l14.311 7.157h30.111a8 8 0 0 1 0 16h-32a7.994 7.994 0 0 1 -3.578-.845l-10.842-5.421-3.923 3.923a7.974 7.974 0 0 1 -5.657 2.343z" fill="#d0d2d4"/><path d="m442.5 416.269-186.5 71.731-136-32-56 8-16-56 16-56.03 40 .03 137.139-7.257a18.105 18.105 0 0 1 18.47 13.692 18.105 18.105 0 0 1 -13.174 21.956l-43.973 10.994 61.538 24.615 164.6-42.94a22.731 22.731 0 0 1 26.842 13.552 22.73 22.73 0 0 1 -12.942 29.657z" fill="#f0c6a4"/><path d="m167.994 408a8 8 0 0 1 -1.934-15.763l32-8a8 8 0 1 1 3.88 15.522l-32 8a8.007 8.007 0 0 1 -1.946.241z" fill="#e0b999"/><path d="m69.5 87.731 186.5-71.731 136 32 56-8 16 56-16 56.03-40-.03-137.139 7.257a18.105 18.105 0 0 1 -18.47-13.692 18.105 18.105 0 0 1 13.174-21.956l43.973-10.994-61.538-24.615-164.6 42.94a22.731 22.731 0 0 1 -26.842-13.552 22.73 22.73 0 0 1 12.942-29.657z" fill="#f0c6a4"/><path d="m311.994 120a8 8 0 0 1 -1.934-15.763l32-8a8 8 0 0 1 3.88 15.522l-32 8a8.007 8.007 0 0 1 -1.946.241z" fill="#e0b999"/><path d="m16 336h48v144h-48z" fill="#7e8589" transform="matrix(-1 0 0 -1 80 816)"/><path d="m448 24h48v144h-48z" fill="#2d85cc"/></svg>