<svg id="Capa_1" enable-background="new 0 0 512 512" height="512" viewBox="0 0 512 512" width="512" xmlns="http://www.w3.org/2000/svg"><g><g><g><g><g><g><g><circle cx="256" cy="256" fill="#ff6c52" r="256"/></g></g></g></g></g></g><path d="m512 256c0-7.565-.328-15.053-.971-22.451l-127.581-128.635-147.406-27.914-96.676 55.831-86.151 209.35 167.391 167.391c11.569 1.601 23.385 2.428 35.394 2.428 141.385 0 256-114.615 256-256z" fill="#f92814"/><g><g><circle cx="256" cy="238.976" fill="#fff" r="98.555"/></g><g><path d="m354.555 238.976c0-54.39-44.06-98.488-98.434-98.553v197.107c54.374-.066 98.434-44.164 98.434-98.554z" fill="#e9edf5"/></g><g><g><path d="m271 277.68h-30v-1.722c0-18.483 9.509-35.431 25.437-45.335 6.262-3.894 9.836-10.9 9.327-18.285-.674-9.773-8.553-17.652-18.327-18.327-5.58-.379-10.895 1.488-14.951 5.274-4.062 3.792-6.299 8.938-6.299 14.49h-30c0-13.756 5.77-27.031 15.829-36.42 10.201-9.523 23.513-14.239 37.486-13.273 24.635 1.699 44.493 21.557 46.192 46.191 1.275 18.493-7.697 36.052-23.415 45.826-7.063 4.392-11.279 11.816-11.279 19.859z" fill="#555a66"/></g><g><path d="m305.693 210.274c-1.699-24.634-21.557-44.492-46.192-46.191-1.132-.078-2.258-.106-3.38-.11v30.015c.438.002.875-.006 1.317.024 9.774.674 17.653 8.553 18.327 18.327.509 7.385-3.065 14.391-9.327 18.285-3.827 2.38-7.273 5.175-10.317 8.292v38.764h14.879v-1.722c0-8.043 4.216-15.467 11.278-19.858 15.718-9.774 24.69-27.333 23.415-45.826z" fill="#333940"/></g><g><path d="m241 290.862h30v23.069h-30z" fill="#555a66"/></g><g><path d="m256.12 290.862h14.88v23.069h-14.88z" fill="#333940"/></g></g></g><g><path d="m369.75 426.907h-88.33v-43h88.33c11.651 0 21.13-9.479 21.13-21.13v-137.028c0-70.165-57.083-127.249-127.249-127.249h-15.262c-70.165 0-127.249 57.083-127.249 127.249v88.436h-43v-88.436c0-93.875 76.374-170.249 170.249-170.249h15.262c93.875 0 170.249 76.374 170.249 170.249v137.028c0 35.361-28.769 64.13-64.13 64.13z" fill="#555a66"/></g><g><path d="m263.631 55.5h-7.51v43h7.51c70.165 0 127.249 57.083 127.249 127.249v137.028c0 11.651-9.479 21.13-21.13 21.13h-88.33v43h88.33c35.361 0 64.13-28.769 64.13-64.13v-137.028c0-93.875-76.374-170.249-170.249-170.249z" fill="#333940"/></g><g><g><path d="m437.217 350.432h-56.39v-111.456h56.39c17.857 0 32.332 14.476 32.332 32.332v46.791c.001 17.857-14.475 32.333-32.332 32.333z" fill="#23272b"/></g><g><path d="m74.783 350.432h56.39v-111.456h-56.39c-17.857 0-32.332 14.476-32.332 32.332v46.791c-.001 17.857 14.475 32.333 32.332 32.333z" fill="#414952"/></g></g><g><path d="m209.086 374.483h93.828v61.847h-93.828z" fill="#414952"/></g><g><path d="m256.12 374.483h46.793v61.847h-46.793z" fill="#23272b"/></g></g></svg>