<?xml version="1.0" encoding="iso-8859-1"?>
<!-- Generator: Adobe Illustrator 21.0.0, SVG Export Plug-In . SVG Version: 6.00 Build 0)  -->
<svg xmlns="http://www.w3.org/2000/svg" xmlns:xlink="http://www.w3.org/1999/xlink" version="1.1" id="Capa_1" x="0px" y="0px" viewBox="0 0 512 512" style="enable-background:new 0 0 512 512;" xml:space="preserve" width="512" height="512">
<g id="XMLID_329_">
	<g id="XMLID_2055_">
		<g id="XMLID_2056_">
			<g id="XMLID_2057_">
				<g id="XMLID_2058_">
					<g id="XMLID_2059_">
						<g id="XMLID_2060_">
							<g id="XMLID_2061_">
								<g id="XMLID_2062_">
									<g id="XMLID_2064_">
										<g id="XMLID_2065_">
											<g id="XMLID_2066_">
												<g id="XMLID_2067_">
													<g id="XMLID_2068_">
														<circle id="XMLID_2069_" style="fill:#FF53A1;" cx="256" cy="256" r="256"/>
													</g>
												</g>
											</g>
										</g>
									</g>
								</g>
							</g>
						</g>
					</g>
				</g>
			</g>
		</g>
	</g>
	<g id="XMLID_328_">
		<path id="XMLID_376_" style="fill:#E80C6A;" d="M510.928,279.361l-161.13-161.13c-8.519-9.253-18.387-17.244-29.287-23.663    L271,44.462h-30v47.288l-13.19-11.604c-56.788,12.866-99.318,63.739-99.318,124.362c0,35.195,14.339,67.097,37.475,90.189    L241,369.728v6.324h-47.448v30l102.776,102.776C411.009,490.679,500.339,396.387,510.928,279.361z"/>
		<g id="XMLID_1554_">
			<path id="XMLID_24_" style="fill:#FFFFFF;" d="M383.508,204.508c0-60.623-42.53-111.496-99.318-124.362v31.014     c40.064,12.122,69.318,49.38,69.318,93.347c0,53.766-43.742,97.508-97.508,97.508s-97.508-43.742-97.508-97.508     c0-43.967,29.254-81.225,69.318-93.347V80.146c-56.788,12.866-99.318,63.739-99.318,124.362     c0,65.233,49.244,119.173,112.508,126.621v44.923h-47.448v30H241V453.5h30v-47.448h47.447v-30H271v-44.923     C334.264,323.681,383.508,269.741,383.508,204.508z"/>
			<path id="XMLID_327_" style="fill:#FFF5CB;" d="M271,331.13v44.92h47.45v30H271v47.45h-15V302.02     c53.77,0,97.51-43.75,97.51-97.51c0-43.97-29.26-81.23-69.32-93.35V80.15c56.79,12.86,99.32,63.73,99.32,124.36     C383.51,269.74,334.26,323.68,271,331.13z"/>
			<rect id="XMLID_8_" x="241" y="44.462" style="fill:#FFFFFF;" width="30" height="113.038"/>
			<rect id="XMLID_325_" x="256" y="44.46" style="fill:#FFF5CB;" width="15" height="113.04"/>
		</g>
	</g>
</g>















</svg>
