<svg height="512pt" viewBox="0 0 512 512" width="512pt" xmlns="http://www.w3.org/2000/svg"><path d="m512 256c0 141.386719-114.613281 256-256 256s-256-114.613281-256-256 114.613281-256 256-256 256 114.613281 256 256zm0 0" fill="#00c8c8"/><path d="m512 256c0-18.628906-2.007812-36.789062-5.789062-54.289062l-117.710938-117.710938-265 344 78.210938 78.210938c17.5 3.78125 35.660156 5.789062 54.289062 5.789062 141.386719 0 256-114.613281 256-256zm0 0" fill="#00a8a8"/><path d="m192 84-68.5 68.5v275.5h265v-344zm0 0" fill="#fff"/><path d="m255.523438 84h132.976562v344h-132.976562zm0 0" fill="#f2f6fc"/><path d="m192 152.5v-68.5l-68.5 68.5zm0 0" fill="#0a64e5"/><path d="m266.332031 103.667969h103.332031v108.039062h-103.332031zm0 0" fill="#0a64e5"/><g fill="#a3d4ff"><path d="m341.066406 139.667969c0 12.738281-10.328125 23.0625-23.066406 23.0625s-23.066406-10.324219-23.066406-23.0625 10.328125-23.066407 23.066406-23.066407 23.066406 10.328126 23.066406 23.066407zm0 0"/><path d="m318 168.4375c-20.148438 0-36.976562 14.195312-41.050781 33.125h82.101562c-4.074219-18.933594-20.902343-33.125-41.050781-33.125zm0 0"/><path d="m140.332031 231.167969h229.332031v15.828125h-229.332031zm0 0"/><path d="m140.332031 262.5h229.332031v15.828125h-229.332031zm0 0"/><path d="m140.332031 293.832031h229.332031v15.828125h-229.332031zm0 0"/><path d="m140.332031 325.167969h136.617188v15.828125h-136.617188zm0 0"/></g><path d="m255.523438 231.167969h114.140624v15.828125h-114.140624zm0 0" fill="#87c7ff"/><path d="m255.523438 262.5h114.140624v15.828125h-114.140624zm0 0" fill="#87c7ff"/><path d="m255.523438 293.832031h114.140624v15.828125h-114.140624zm0 0" fill="#87c7ff"/><path d="m255.523438 325.167969h21.425781v15.828125h-21.425781zm0 0" fill="#87c7ff"/><path d="m326.292969 319.667969c-24.324219 0-44.039063 19.71875-44.039063 44.039062 0 24.324219 19.71875 44.039063 44.039063 44.039063 24.324219 0 44.039062-19.714844 44.039062-44.039063 0-24.320312-19.714843-44.039062-44.039062-44.039062zm0 18.871093c11.347656 0 20.9375 7.515626 24.078125 17.835938h-48.15625c3.140625-10.320312 12.730468-17.835938 24.078125-17.835938zm0 50.332032c-11.347657 0-20.9375-7.507813-24.078125-17.832032h48.15625c-3.140625 10.320313-12.730469 17.832032-24.078125 17.832032zm0 0" fill="#ea2828"/></svg>