<svg id="Capa_1" enable-background="new 0 0 512 512" height="512" viewBox="0 0 512 512" width="512" xmlns="http://www.w3.org/2000/svg"><g><g><path d="m84.85 442.3 373.219-36.738c6.844-9.962 12.977-20.451 18.311-31.402 15.77-32.37 24.62-68.73 24.62-107.16s-8.85-74.79-24.62-107.16c-22.82-46.86-60.16-85.35-106.15-109.64-34.11-18.01-72.98-28.2-114.23-28.2-135.31 0-245 109.69-245 245 0 68.71 28.286 130.81 73.85 175.3z" fill="#ff4155"/></g><g><path d="m438.08 50.2h-301.33c-9.22 0-16.97 6.23-19.29 14.71-.46 1.69-.71 3.46-.71 5.29v368.96l18.3 40.95c35.68 20.3 76.96 31.89 120.95 31.89h182.08c11.05 0 20-8.95 20-20v-421.8c0-11.05-8.95-20-20-20z" fill="#bec8f7"/></g><g><path d="m426.19 20v340.11l-120 120h-171.14c-18.35-10.43-35.21-23.17-50.2-37.81v-422.3c0-11.05 8.95-20 20-20h301.34c11.05 0 20 8.95 20 20z" fill="#e9efff"/></g><g><path d="m426.19 320.11v40l-120 120h-171.14c-18.35-10.43-35.21-23.17-50.2-37.81v-422.3c0-11.05 8.95-20 20-20h40v38.77c0 3.26.06 6.51.17 9.75 2.51 73.81 33.46 140.42 82.23 189.19 50.91 50.91 121.25 82.4 198.94 82.4z" fill="#d3dcfb"/></g><g><path d="m326.186 360.114h100c0 66.274-53.726 120-120 120v-100c0-11.046 8.955-20 20-20z" fill="#e9efff"/></g><g><g><path d="m353.918 90.449c.115-7.234-5.555-13.259-12.784-13.537-76.069-2.928-121.064-30.889-137.214-30.889s-61.145 27.961-137.214 30.889c-7.229.278-12.899 6.303-12.784 13.537.574 35.986 4.052 135.433 24.799 177.459 25.564 51.784 104.224 103.896 125.199 103.896s99.635-52.112 125.199-103.896c20.748-42.026 24.225-141.473 24.799-177.459z" fill="#fff"/></g><g><g><path d="m203.92 46.023c-16.151 0-61.145 27.961-137.214 30.889-7.229.278-12.899 6.303-12.784 13.537.574 35.986 4.052 135.433 24.799 177.459 24.882 50.402 100.055 101.107 123.391 103.778-7.503-.895-13.325-7.271-13.325-15.015 0-8.358 6.775-15.133 15.133-15.133v-265.248c-8.358 0-15.133-6.775-15.133-15.133s6.775-15.134 15.133-15.134z" fill="#bec8f7"/></g><g><path d="m203.92 371.804c-.436 0-.865-.029-1.292-.065.449.038.885.065 1.292.065z" fill="#fff"/><path d="m203.92 372.304c-.303 0-.603-.013-.901-.034-.143-.009-.288-.021-.434-.033l.085-.996c.134.011.269.022.403.031.292.02.577.032.847.032z"/></g></g><g><path d="m203.92 341.342c-7.346-2.591-25.373-12.167-46.439-28.842-24.296-19.233-43.199-40.327-51.86-57.872-11.31-22.911-19.295-79.097-21.343-148.75 47.393-4.021 82.577-16.618 104.49-24.462 5.326-1.906 11.749-4.206 15.152-5.126 3.403.921 9.827 3.22 15.152 5.126 21.914 7.845 57.097 20.441 104.49 24.462-2.047 69.652-10.032 125.837-21.343 148.75-8.662 17.545-27.564 38.638-51.86 57.871-21.066 16.676-39.093 26.252-46.439 28.843z" fill="#ff4155"/></g><g><path d="m207.481 312.5c-24.296-19.233-43.199-40.327-51.86-57.872-10.87-22.02-18.999-89.545-21.433-156.603-14.732 3.397-31.384 6.282-49.911 7.854 2.048 69.653 10.033 125.839 21.343 148.75 8.662 17.545 27.564 38.639 51.86 57.872 21.066 16.676 39.093 26.251 46.439 28.842 4.67-1.647 13.66-6.122 25-13.444-6.497-4.197-13.764-9.325-21.438-15.399z" fill="#e80054"/></g><g><path d="m262.253 161.649h-29.167v-29.167c0-6.443-5.223-11.667-11.667-11.667h-35c-6.443 0-11.667 5.223-11.667 11.667v29.167h-29.167c-6.443 0-11.667 5.223-11.667 11.667v35c0 6.443 5.223 11.667 11.667 11.667h29.167v29.167c0 6.443 5.223 11.667 11.667 11.667h35c6.443 0 11.667-5.223 11.667-11.667v-29.167h29.167c6.443 0 11.667-5.223 11.667-11.667v-35c0-6.444-5.224-11.667-11.667-11.667z" fill="#fff"/></g><g><path d="m221.42 219.982c-16.108 0-29.167-13.058-29.167-29.167s13.058-29.167 29.167-29.167h11.667v-29.167c0-6.443-5.223-11.667-11.667-11.667h-35c-6.443 0-11.667 5.223-11.667 11.667v29.167h-29.167c-6.443 0-11.667 5.223-11.667 11.667v35c0 6.443 5.223 11.667 11.667 11.667h29.167v29.167c0 6.443 5.223 11.667 11.667 11.667h35c6.443 0 11.667-5.223 11.667-11.667v-29.167z" fill="#e9efff"/></g></g></g></svg>