<svg version="1.1" xmlns="http://www.w3.org/2000/svg" xmlns:xlink="http://www.w3.org/1999/xlink">
    <!-- Иконка telegram -->
    <symbol viewBox="0 0 24 24" id="icon-telegram" xml:space="preserve" xmlns:serif="http://www.serif.com/" style="fill-rule:evenodd;clip-rule:evenodd;stroke-linejoin:round;stroke-miterlimit:1.41421;">
        <path id="telegram-4" d="M12,0c-6.626,0 -12,5.372 -12,12c0,6.627 5.374,12 12,12c6.627,0 12,-5.373 12,-12c0,-6.628 -5.373,-12 -12,-12Zm3.224,17.871c0.188,0.133 0.43,0.166 0.646,0.085c0.215,-0.082 0.374,-0.267 0.422,-0.491c0.507,-2.382 1.737,-8.412 2.198,-10.578c0.035,-0.164 -0.023,-0.334 -0.151,-0.443c-0.129,-0.109 -0.307,-0.14 -0.465,-0.082c-2.446,0.906 -9.979,3.732 -13.058,4.871c-0.195,0.073 -0.322,0.26 -0.316,0.467c0.007,0.206 0.146,0.385 0.346,0.445c1.381,0.413 3.193,0.988 3.193,0.988c0,0 0.847,2.558 1.288,3.858c0.056,0.164 0.184,0.292 0.352,0.336c0.169,0.044 0.348,-0.002 0.474,-0.121c0.709,-0.669 1.805,-1.704 1.805,-1.704c0,0 2.084,1.527 3.266,2.369Zm-6.423,-5.062l0.98,3.231l0.218,-2.046c0,0 3.783,-3.413 5.941,-5.358c0.063,-0.057 0.071,-0.153 0.019,-0.22c-0.052,-0.067 -0.148,-0.083 -0.219,-0.037c-2.5,1.596 -6.939,4.43 -6.939,4.43Z"/>
    </symbol>

    <!-- Иконка instagram -->
    <symbol viewBox="0 0 24 24" id="icon-instagram">
        <path d="M14.829 6.302c-.738-.034-.96-.04-2.829-.04s-2.09.007-2.828.04c-1.899.087-2.783.986-2.87 2.87-.033.738-.041.959-.041 2.828s.008 2.09.041 2.829c.087 1.879.967 2.783 2.87 2.87.737.033.959.041 2.828.041 1.87 0 2.091-.007 2.829-.041 1.899-.086 2.782-.988 2.87-2.87.033-.738.04-.96.04-2.829s-.007-2.09-.04-2.828c-.088-1.883-.973-2.783-2.87-2.87zm-2.829 9.293c-1.985 0-3.595-1.609-3.595-3.595 0-1.985 1.61-3.594 3.595-3.594s3.595 1.609 3.595 3.594c0 1.985-1.61 3.595-3.595 3.595zm3.737-6.491c-.464 0-.84-.376-.84-.84 0-.464.376-.84.84-.84.464 0 .84.376.84.84 0 .463-.376.84-.84.84zm-1.404 2.896c0 1.289-1.045 2.333-2.333 2.333s-2.333-1.044-2.333-2.333c0-1.289 1.045-2.333 2.333-2.333s2.333 1.044 2.333 2.333zm-2.333-12c-6.627 0-12 5.373-12 12s5.373 12 12 12 12-5.373 12-12-5.373-12-12-12zm6.958 14.886c-.115 2.545-1.532 3.955-4.071 4.072-.747.034-.986.042-2.887.042s-2.139-.008-2.886-.042c-2.544-.117-3.955-1.529-4.072-4.072-.034-.746-.042-.985-.042-2.886 0-1.901.008-2.139.042-2.886.117-2.544 1.529-3.955 4.072-4.071.747-.035.985-.043 2.886-.043s2.14.008 2.887.043c2.545.117 3.957 1.532 4.071 4.071.034.747.042.985.042 2.886 0 1.901-.008 2.14-.042 2.886z"/>
    </symbol>

    <!-- Иконка facebook -->
    <symbol viewBox="0 0 24 24" id="icon-facebook">
        <path d="M12 0c-6.627 0-12 5.373-12 12s5.373 12 12 12 12-5.373 12-12-5.373-12-12-12zm3 8h-1.35c-.538 0-.65.221-.65.778v1.222h2l-.209 2h-1.791v7h-3v-7h-2v-2h2v-2.308c0-1.769.931-2.692 3.029-2.692h1.971v3z"/>
    </symbol>

    <!-- Иконка whatsapp -->
    <symbol viewBox="0 0 24 24" id="icon-whatsapp">
        <path d="M12.031 6.172c-3.181 0-5.767 2.586-5.768 5.766-.001 1.298.38 2.27 1.019 3.287l-.582 2.128 2.182-.573c.978.58 1.911.928 3.145.929 3.178 0 5.767-2.587 5.768-5.766.001-3.187-2.575-5.77-5.764-5.771zm3.392 8.244c-.144.405-.837.774-1.17.824-.299.045-.677.063-1.092-.069-.252-.08-.575-.187-.988-.365-1.739-.751-2.874-2.502-2.961-2.617-.087-.116-.708-.94-.708-1.793s.448-1.273.607-1.446c.159-.173.346-.217.462-.217l.332.006c.106.005.249-.04.39.298.144.347.491 1.2.534 1.287.043.087.072.188.014.304-.058.116-.087.188-.173.289l-.26.304c-.087.086-.177.18-.076.354.101.174.449.741.964 1.201.662.591 1.221.774 1.394.86s.274.072.376-.043c.101-.116.433-.506.549-.68.116-.173.231-.145.39-.087s1.011.477 1.184.564.289.13.332.202c.045.072.045.419-.1.824zm-3.423-14.416c-6.627 0-12 5.373-12 12s5.373 12 12 12 12-5.373 12-12-5.373-12-12-12zm.029 18.88c-1.161 0-2.305-.292-3.318-.844l-3.677.964.984-3.595c-.607-1.052-.927-2.246-.926-3.468.001-3.825 3.113-6.937 6.937-6.937 1.856.001 3.598.723 4.907 2.034 1.31 1.311 2.031 3.054 2.03 4.908-.001 3.825-3.113 6.938-6.937 6.938z"/>
    </symbol>

    <!-- Иконка viber -->
    <symbol viewBox="0 0 24 24" fill-rule="evenodd" clip-rule="evenodd" id="icon-viber">
        <path d="M12 0c-6.626 0-12 5.372-12 12 0 6.627 5.374 12 12 12 6.627 0 12-5.373 12-12 0-6.628-5.373-12-12-12zm5.42 7.058c-.367-.338-1.85-1.414-5.152-1.429 0 0-3.894-.235-5.792 1.507-1.056 1.057-1.428 2.602-1.467 4.52-.039 1.918-.09 5.51 3.373 6.485l.003.001-.002 1.486s-.021.602.375.725c.479.149.76-.309 1.218-.802.251-.27.598-.668.86-.972 2.368.198 4.19-.256 4.397-.324.478-.155 3.185-.502 3.625-4.094.454-3.704-.22-6.047-1.438-7.103zm.401 6.835c-.372 3-2.566 3.19-2.971 3.319-.172.056-1.773.454-3.785.322 0 0-1.499 1.809-1.967 2.279-.073.074-.159.104-.217.09-.08-.02-.102-.115-.101-.255l.012-2.47c-2.929-.814-2.758-3.873-2.725-5.474.033-1.601.334-2.913 1.227-3.796 1.606-1.454 4.913-1.237 4.913-1.237 2.794.013 4.132.854 4.442 1.136 1.031.882 1.556 2.993 1.172 6.086zm-5.272.181s.262.023.403-.152l.276-.347c.132-.172.454-.282.768-.107.416.235.954.604 1.322.948.203.171.25.423.112.689l-.002.006c-.142.251-.332.486-.573.706l-.005.004c-.271.226-.582.357-.915.249l-.006-.009c-.598-.169-2.032-.901-2.946-1.63-1.496-1.18-2.559-3.126-2.853-4.169l-.009-.006c-.108-.334.024-.646.249-.915l.004-.005c.219-.241.455-.431.706-.574l.005-.001c.266-.138.518-.091.69.112.226.233.65.794.947 1.322.175.314.066.635-.106.768l-.347.275c-.175.142-.152.404-.152.404s.513 1.942 2.432 2.432zm3.019-1.61c.103-.001.186-.085.186-.188-.01-1.229-.386-2.215-1.118-2.93-.731-.712-1.652-1.077-2.735-1.085h-.002c-.102 0-.186.083-.187.185 0 .103.083.188.186.188.984.007 1.817.337 2.477.98.658.642.997 1.539 1.005 2.665.001.102.084.185.187.185h.001zm-.982-.384h-.004c-.104-.002-.185-.087-.183-.191.015-.638-.168-1.155-.557-1.579-.388-.424-.92-.656-1.627-.708-.103-.007-.181-.097-.173-.199.008-.103.097-.18.2-.173.796.058 1.427.337 1.875.827.451.493.672 1.112.655 1.841-.002.102-.085.182-.186.182zm-.958-.321c-.099 0-.182-.077-.187-.177-.031-.634-.33-.944-.939-.977-.103-.006-.182-.094-.177-.197.006-.103.094-.182.197-.176.804.043 1.251.504 1.292 1.331.005.103-.074.191-.177.196h-.009z"/>
    </symbol>

    <!-- Иконка twitter -->
    <symbol viewBox="0 0 24 24" id="icon-twitter">
        <path d="M12 0c-6.627 0-12 5.373-12 12s5.373 12 12 12 12-5.373 12-12-5.373-12-12-12zm6.066 9.645c.183 4.04-2.83 8.544-8.164 8.544-1.622 0-3.131-.476-4.402-1.291 1.524.18 3.045-.244 4.252-1.189-1.256-.023-2.317-.854-2.684-1.995.451.086.895.061 1.298-.049-1.381-.278-2.335-1.522-2.304-2.853.388.215.83.344 1.301.359-1.279-.855-1.641-2.544-.889-3.835 1.416 1.738 3.533 2.881 5.92 3.001-.419-1.796.944-3.527 2.799-3.527.825 0 1.572.349 2.096.907.654-.128 1.27-.368 1.824-.697-.215.671-.67 1.233-1.263 1.589.581-.07 1.135-.224 1.649-.453-.384.578-.87 1.084-1.433 1.489z"/>
    </symbol>

    <!-- Иконка linkedin -->
    <symbol viewBox="0 0 24 24" id="icon-linkedin">
        <path d="M12 0c-6.627 0-12 5.373-12 12s5.373 12 12 12 12-5.373 12-12-5.373-12-12-12zm-2 16h-2v-6h2v6zm-1-6.891c-.607 0-1.1-.496-1.1-1.109 0-.612.492-1.109 1.1-1.109s1.1.497 1.1 1.109c0 .613-.493 1.109-1.1 1.109zm8 6.891h-1.998v-2.861c0-1.881-2.002-1.722-2.002 0v2.861h-2v-6h2v1.093c.872-1.616 4-1.736 4 1.548v3.359z"/>
    </symbol>

    <!-- Иконка Вконтакте -->
    <symbol viewBox="0 0 24 24" id="icon-vk">
        <path d="M12 0c-6.627 0-12 5.373-12 12s5.373 12 12 12 12-5.373 12-12-5.373-12-12-12zm6.344 16.163h-1.867c-1.055 0-1.232-.601-2.102-1.469-.785-.785-1.22-.183-1.202.935.006.297-.141.534-.495.534-1.105 0-2.694.156-4.304-1.58-1.647-1.779-3.374-5.348-3.374-5.699 0-.208.172-.301.459-.301h1.898c.503 0 .545.249.686.568.584 1.331 1.981 4.002 2.354 2.511.214-.856.301-2.839-.615-3.01-.52-.096.396-.652 1.722-.652.33 0 .688.035 1.054.12.673.156.676.458.666.898-.034 1.666-.235 2.786.204 3.069.419.271 1.521-1.502 2.104-2.871.159-.378.191-.632.643-.632h2.322c1.216 0-.159 1.748-1.21 3.112-.847 1.099-.802 1.12.183 2.034.701.651 1.53 1.54 1.53 2.043 0 .238-.186.39-.656.39z"/>
    </symbol>

    <!-- Иконка Youtube -->
    <symbol viewBox="0 0 24 24" id="icon-youtube">
        <path d="M12 0c-6.627 0-12 5.373-12 12s5.373 12 12 12 12-5.373 12-12-5.373-12-12-12zm4.441 16.892c-2.102.144-6.784.144-8.883 0-2.276-.156-2.541-1.27-2.558-4.892.017-3.629.285-4.736 2.558-4.892 2.099-.144 6.782-.144 8.883 0 2.277.156 2.541 1.27 2.559 4.892-.018 3.629-.285 4.736-2.559 4.892zm-6.441-7.234l4.917 2.338-4.917 2.346v-4.684z"/>
    </symbol>

    <!-- Икона календарь -->
    <symbol viewBox="0 0 24 24" id="icon-calendar">
        <path d="M20 20h-4v-4h4v4zm-6-10h-4v4h4v-4zm6 0h-4v4h4v-4zm-12 6h-4v4h4v-4zm6 0h-4v4h4v-4zm-6-6h-4v4h4v-4zm16-8v22h-24v-22h3v1c0 1.103.897 2 2 2s2-.897 2-2v-1h10v1c0 1.103.897 2 2 2s2-.897 2-2v-1h3zm-2 6h-20v14h20v-14zm-2-7c0-.552-.447-1-1-1s-1 .448-1 1v2c0 .552.447 1 1 1s1-.448 1-1v-2zm-14 2c0 .552-.447 1-1 1s-1-.448-1-1v-2c0-.552.447-1 1-1s1 .448 1 1v2z"/>
    </symbol>

    <!-- Иконка сердца -->
    <symbol viewBox="0 0 24 22" id="icon-heart">
        <path d="M11.136 3.75166L12 5.23421L12.864 3.75169C14.1785 1.49612 16.7141 0.660076 18.963 1.14036C21.1717 1.61203 23 3.32733 23 6.19216C23 8.13786 21.8265 10.2541 19.6508 12.8018C18.0431 14.6843 16.003 16.6778 13.7239 18.9049C13.1628 19.4531 12.5872 20.0156 12.0001 20.594C11.4114 20.014 10.8344 19.4502 10.2719 18.9005C7.99481 16.6752 5.95629 14.6831 4.34955 12.8017C2.1737 10.254 1 8.13781 1 6.19216C1 3.33684 2.82508 1.61169 5.03139 1.13333C7.27447 0.647 9.80953 1.47541 11.136 3.75166Z" stroke-width="2"/>
    </symbol>

    <!-- Иконка уведомлений -->
    <symbol viewBox="0 0 17 20" id="icon-notifications">
        <path d="M16.6069 16.8692L15.1761 14.4842C14.5153 13.3834 14.1661 12.1225 14.1661 10.8392V8.75C14.1661 6.1125 12.4061 3.88168 9.99941 3.1625V1.66668C9.99941 0.7475 9.25191 0 8.33273 0C7.41355 0 6.66605 0.7475 6.66605 1.66668V3.1625C4.25941 3.88168 2.49941 6.1125 2.49941 8.75V10.8392C2.49941 12.1225 2.15023 13.3825 1.49023 14.4834L0.0594074 16.8684C-0.0180926 16.9975 -0.0197722 17.1575 0.0544075 17.2884C0.128587 17.4192 0.266087 17.5 0.416087 17.5H16.2494C16.3994 17.5 16.5377 17.4192 16.6119 17.2892C16.6861 17.1592 16.6836 16.9975 16.6069 16.8692Z" />
        <path d="M5.70856 18.3333C6.17856 19.315 7.17356 20 8.3327 20C9.49184 20 10.4869 19.315 10.9569 18.3333H5.70856V18.3333Z" />
    </symbol>

    <!-- Иконка стрелка влево -->
    <symbol viewBox="0 0 24 24" id="icon-arrow-left">
        <path d="M16.67 0l2.83 2.829-9.339 9.175 9.339 9.167-2.83 2.829-12.17-11.996z"/>
    </symbol>

    <!-- Иконка стрелка вправо -->
    <symbol viewBox="0 0 24 24" id="icon-arrow-right">
        <path d="M7.33 24l-2.83-2.829 9.339-9.175-9.339-9.167 2.83-2.829 12.17 11.996z"/>
    </symbol>

    <!-- Иконка стрелка вправо для статики (добавлен fill) -->
    <symbol viewBox="0 0 24 24" id="icon-arrow-right-static">
        <path d="M7.33 24l-2.83-2.829 9.339-9.175-9.339-9.167 2.83-2.829 12.17 11.996z" fill="#121B23"/>
    </symbol>

    <!-- Иконка крестик -->
    <symbol fill-rule="evenodd" clip-rule="evenodd" viewBox="0 0 24 24" id="icon-close">
        <path d="M12 11.293l10.293-10.293.707.707-10.293 10.293 10.293 10.293-.707.707-10.293-10.293-10.293 10.293-.707-.707 10.293-10.293-10.293-10.293.707-.707 10.293 10.293z"/>
    </symbol>

    <!-- Wave (разделение секция) волна -->
    <symbol data-name="Layer 1" xmlns="http://www.w3.org/2000/svg" viewBox="0 0 1200 120" preserveAspectRatio="none" id="wave">
        <path d="M0,0V46.29c47.79,22.2,103.59,32.17,158,28,70.36-5.37,136.33-33.31,206.8-37.5C438.64,32.43,512.34,53.67,583,72.05c69.27,18,138.3,24.88,209.4,13.08,36.15-6,69.85-17.84,104.45-29.34C989.49,25,1113-14.29,1200,52.47V0Z" opacity=".25" class="shape-fill"></path>
        <path d="M0,0V15.81C13,36.92,27.64,56.86,47.69,72.05,99.41,111.27,165,111,224.58,91.58c31.15-10.15,60.09-26.07,89.67-39.8,40.92-19,84.73-46,130.83-49.67,36.26-2.85,70.9,9.42,98.6,31.56,31.77,25.39,62.32,62,103.63,73,40.44,10.79,81.35-6.69,119.13-24.28s75.16-39,116.92-43.05c59.73-5.85,113.28,22.88,168.9,38.84,30.2,8.66,59,6.17,87.09-7.5,22.43-10.89,48-26.93,60.65-49.24V0Z" opacity=".5" class="shape-fill"></path>
        <path d="M0,0V5.63C149.93,59,314.09,71.32,475.83,42.57c43-7.64,84.23-20.12,127.61-26.46,59-8.63,112.48,12.24,165.56,35.4C827.93,77.22,886,95.24,951.2,90c86.53-7,172.46-45.71,248.8-84.81V0Z" class="shape-fill"></path>
    </symbol>

    <!-- Wave (разделение секция) волна 1 -->
    <symbol data-name="Layer 1" xmlns="http://www.w3.org/2000/svg" viewBox="0 0 1200 120" preserveAspectRatio="none" id="wave-1">
        <path d="M321.39,56.44c58-10.79,114.16-30.13,172-41.86,82.39-16.72,168.19-17.73,250.45-.39C823.78,31,906.67,72,985.66,92.83c70.05,18.48,146.53,26.09,214.34,3V0H0V27.35A600.21,600.21,0,0,0,321.39,56.44Z" class="shape-fill"></path>
    </symbol>

    <!-- Иконка play -->
    <symbol viewBox="0 0 148 164" id="icon-play">
        <path d="M26.75 3.61301C11.977 -4.86099 0 2.08101 0 19.106V144.743C0 161.785 11.977 168.718 26.75 160.252L136.563 97.275C151.341 88.798 151.341 75.064 136.563 66.589L26.75 3.61301Z" />
    </symbol>

    <!-- Иконка question -->
    <symbol viewBox="0 0 24 24" id="icon-question"> 
        <path d="M12 0c-6.627 0-12 5.373-12 12s5.373 12 12 12 12-5.373 12-12-5.373-12-12-12zm0 18.25c-.69 0-1.25-.56-1.25-1.25s.56-1.25 1.25-1.25c.691 0 1.25.56 1.25 1.25s-.559 1.25-1.25 1.25zm1.961-5.928c-.904.975-.947 1.514-.935 2.178h-2.005c-.007-1.475.02-2.125 1.431-3.468.573-.544 1.025-.975.962-1.821-.058-.805-.73-1.226-1.365-1.226-.709 0-1.538.527-1.538 2.013h-2.01c0-2.4 1.409-3.95 3.59-3.95 1.036 0 1.942.339 2.55.955.57.578.865 1.372.854 2.298-.016 1.383-.857 2.291-1.534 3.021z"/>
    </symbol>

    <!-- Иконка галочка -->
    <symbol viewBox="0 0 24 24" id="icon-check">
        <path d="M0 11c2.761.575 6.312 1.688 9 3.438 3.157-4.23 8.828-8.187 15-11.438-5.861 5.775-10.711 12.328-14 18.917-2.651-3.766-5.547-7.271-10-10.917z"/>
    </symbol>

    <!-- Иконка plus (или добавления) -->
    <symbol viewBox="0 0 24 24" fill-rule="evenodd" clip-rule="evenodd" id="icon-plus">
        <path d="M11 11v-11h1v11h11v1h-11v11h-1v-11h-11v-1h11z"/>
    </symbol>

    <!-- Стрелка вправо (длинная) -->
    <symbol viewBox="0 0 24 24" fill-rule="evenodd" clip-rule="evenodd" id="arrow-right-long">
        <path d="M21.883 12l-7.527 6.235.644.765 9-7.521-9-7.479-.645.764 7.529 6.236h-21.884v1h21.883z"/>
    </symbol>

    <!-- Ионка home -->
    <symbol viewBox="0 0 24 24" id="icon-home">
        <path d="M21 13v10h-6v-6h-6v6h-6v-10h-3l12-12 12 12h-3zm-1-5.907v-5.093h-3v2.093l3 3z"/>
    </symbol>

    <!-- Иконка chat -->
    <symbol viewBox="0 0 24 24" id="icon-chat">
        <path d="M12 1c-6.338 0-12 4.226-12 10.007 0 2.05.738 4.063 2.047 5.625.055 1.83-1.023 4.456-1.993 6.368 2.602-.47 6.301-1.508 7.978-2.536 9.236 2.247 15.968-3.405 15.968-9.457 0-5.812-5.701-10.007-12-10.007zm0 14h-6v-1h6v1zm6-3h-12v-1h12v1zm0-3h-12v-1h12v1z"/>
    </symbol>

    <!-- Иконка warning -->
    <symbol viewBox="0 0 52 52" id="icon-warning">
        <path d="M26 0C20.8577 0 15.8309 1.52487 11.5552 4.38179C7.27951 7.23871 3.94702 11.2994 1.97914 16.0502C0.0112654 20.8011 -0.503621 26.0288 0.499594 31.0723C1.50281 36.1159 3.97907 40.7486 7.61524 44.3848C11.2514 48.0209 15.8842 50.4972 20.9277 51.5004C25.9712 52.5036 31.1989 51.9887 35.9498 50.0209C40.7007 48.053 44.7613 44.7205 47.6182 40.4448C50.4751 36.1691 52 31.1423 52 26C52 19.1044 49.2607 12.4912 44.3848 7.61522C39.5088 2.73928 32.8956 0 26 0ZM30 41H22V35.68H30V41ZM30 33.68H22V11H30V33.68Z" />
    </symbol>

    <!-- Иконка двойные галочки -->
    <!-- <symbol viewBox="0 0 24 24" fill-rule="evenodd" clip-rule="evenodd" id="icon-double-check">
        <path d="M24 6.278l-11.16 12.722-6.84-6 1.319-1.49 5.341 4.686 9.865-11.196 1.475 1.278zm-22.681 5.232l6.835 6.01-1.314 1.48-6.84-6 1.319-1.49zm9.278.218l5.921-6.728 1.482 1.285-5.921 6.756-1.482-1.313z"/>
    </symbol> -->

    <symbol viewBox="0 0 24 24" id="icon-double-check">
        <path d="M12 2c5.514 0 10 4.486 10 10s-4.486 10-10 10-10-4.486-10-10 4.486-10 10-10zm0-2c-6.627 0-12 5.373-12 12s5.373 12 12 12 12-5.373 12-12-5.373-12-12-12zm4.393 7.5l-5.643 5.784-2.644-2.506-1.856 1.858 4.5 4.364 7.5-7.643-1.857-1.857z"/>
    </symbol>

    <symbol viewBox="0 0 24 24" id="icon-double-check-inline">
        <path d="M12 0c-6.627 0-12 5.373-12 12s5.373 12 12 12 12-5.373 12-12-5.373-12-12-12zm-1.25 17.292l-4.5-4.364 1.857-1.858 2.643 2.506 5.643-5.784 1.857 1.857-7.5 7.643z"/>
    </symbol>

    <!-- Иконка поиска -->
    <symbol viewBox="0 0 24 24" id="icon-search">
        <path d="M13 10h-3v3h-2v-3h-3v-2h3v-3h2v3h3v2zm8.172 14l-7.387-7.387c-1.388.874-3.024 1.387-4.785 1.387-4.971 0-9-4.029-9-9s4.029-9 9-9 9 4.029 9 9c0 1.761-.514 3.398-1.387 4.785l7.387 7.387-2.828 2.828zm-12.172-8c3.859 0 7-3.14 7-7s-3.141-7-7-7-7 3.14-7 7 3.141 7 7 7z"/>
    </symbol>

    <!-- Иконка arrows-breadcrumb -->
    <!-- <symbol viewBox="0 0 24 24" id="arrows-breadcrumb">
        <path d="M10.024 4h6.015l7.961 8-7.961 8h-6.015l7.961-8-7.961-8zm-10.024 16h6.015l7.961-8-7.961-8h-6.015l7.961 8-7.961 8z"/>
    </symbol> -->

    <symbol viewBox="0 0 24 24" fill-rule="evenodd" clip-rule="evenodd" id="arrows-breadcrumb">
        <path d="M12 0c6.623 0 12 5.377 12 12s-5.377 12-12 12-12-5.377-12-12 5.377-12 12-12zm0 1c6.071 0 11 4.929 11 11s-4.929 11-11 11-11-4.929-11-11 4.929-11 11-11zm-3 5.753l6.44 5.247-6.44 5.263.678.737 7.322-6-7.335-6-.665.753z"/>
    </symbol>
</svg>