<svg id="Layer_1" data-name="Layer 1" xmlns="http://www.w3.org/2000/svg" viewBox="0 0 48 48"><defs><style>.cls-1{fill:#e79165;}.cls-2{fill:#edebf2;}.cls-3{fill:#a9a5c4;}.cls-4{fill:#ffbf8e;}.cls-5{fill:#ffde76;}.cls-6{fill:#ffba55;}.cls-7{fill:#c6c3d8;}</style></defs><title>insurance, shield, protection, file, folder, real estate, finance</title><path class="cls-1" d="M15.19,15.19V19.1H11.27V43.58H43.58a3.91,3.91,0,0,0,3.92-3.91V15.19Z"/><rect class="cls-2" x="11.27" y="0.5" width="32.31" height="39.17"/><path class="cls-3" d="M18.61,7.35H22V5.4h-2v-2h-2v2a2.45,2.45,0,0,0-1.84,3.14,2.49,2.49,0,0,0,2.42,1.7h.89a.48.48,0,0,1,.49.49.48.48,0,0,1-.49.49H16.17v2h1.95v2h2v-2A2.45,2.45,0,0,0,21.93,10a2.5,2.5,0,0,0-2.42-1.7h-.9a.48.48,0,0,1-.49-.49A.49.49,0,0,1,18.61,7.35Z"/><path class="cls-4" d="M39.67,39.67V21.06H19.1l-1-2.94H7.35V39.67a3.92,3.92,0,0,0,3.92,3.91H43.58A3.91,3.91,0,0,1,39.67,39.67Z"/><path class="cls-5" d="M8.33,47.5h0a10.34,10.34,0,0,1-7.83-10V30.85H3.61a6.68,6.68,0,0,0,4.72-2h0a6.72,6.72,0,0,0,4.73,2h3.11v6.62A10.34,10.34,0,0,1,8.33,47.5Z"/><path class="cls-6" d="M8.33,45.47a8.37,8.37,0,0,1-5.87-8V32.81H3.61a8.59,8.59,0,0,0,4.72-1.4,8.65,8.65,0,0,0,4.73,1.4h1.15v4.66A8.37,8.37,0,0,1,8.33,45.47Z"/><rect class="cls-7" x="27.92" y="4.42" width="11.75" height="1.96" rx="0.98"/><rect class="cls-7" x="27.92" y="9.31" width="11.75" height="1.96" rx="0.98"/><rect class="cls-7" x="27.92" y="14.21" width="11.75" height="1.96" rx="0.98"/><rect class="cls-1" x="22.04" y="30.85" width="11.75" height="7.83"/><polygon class="cls-1" points="35.75 30.85 20.08 30.85 27.92 24.98 35.75 30.85"/><rect class="cls-4" x="25.96" y="33.79" width="3.92" height="4.9"/></svg>