<svg id="Capa_1" enable-background="new 0 0 511.66 511.66" height="512" viewBox="0 0 511.66 511.66" width="512" xmlns="http://www.w3.org/2000/svg"><g><path d="m479.84 64v223.65c0 61.86-36.64 113.73-82.96 152.19-46.32 38.47-102.33 63.54-141.05 71.82-77.45-16.55-224.01-100.29-224.01-224.01v-223.65h63.8c19.74 0 37.78-11.15 46.61-28.8l17.6-35.2h192l17.6 35.2c8.83 17.65 26.87 28.8 46.61 28.8z" fill="#24b3b3"/><path d="m479.84 64v223.65c0 61.86-36.64 113.73-82.96 152.19-46.32 38.47-102.33 63.54-141.05 71.82v-511.66h96l17.6 35.2c8.83 17.65 26.87 28.8 46.61 28.8z" fill="#198080"/><path d="m415.94 128.01v151.7c0 46.43-25.47 85.35-58.21 114.22-32.73 28.87-72.74 47.69-101.8 53.9-.03-.01-.07-.01-.1-.02-58.15-12.47-160.11-75.3-160.11-168.1v-151.7h.41c43.94 0 76.19-24.85 95.8-64.18h63.9c32.04 0 64.12 0 64.1 0 19.49 39.39 52.49 64.42 96.01 64.18z" fill="#2ee6a8"/><path d="m415.94 128.01v151.7c0 46.43-25.47 85.35-58.21 114.22-32.73 28.87-72.74 47.69-101.8 53.9-.03-.01-.07-.01-.1-.02v-383.98c32.04 0 64.12 0 64.1 0 19.49 39.39 52.49 64.42 96.01 64.18z" fill="#24b3b3"/><path d="m309.22 286.12c0 22.59-16.69 41.36-38.39 44.62v20.16h-30v-20.13c-21.55-3.13-38.15-21.72-38.15-44.12h30c0 8.05 6.54 14.59 14.58 14.59h16.84c8.34 0 15.12-6.78 15.12-15.12s-6.78-15.12-15.12-15.12h-16.54c-24.88 0-45.12-20.24-45.12-45.12 0-22.59 16.69-41.36 38.39-44.62v-20.16h30v20.22c21.52 3.42 38.03 22.11 38.03 44.58h-30c0-8.35-6.79-15.14-15.14-15.14h-16.16c-8.34 0-15.12 6.78-15.12 15.12s6.78 15.12 15.12 15.12h16.54c24.88 0 45.12 20.24 45.12 45.12z" fill="#ffe127"/><g fill="#ffbf2d"><path d="m309.22 286.12c0 22.59-16.69 41.36-38.39 44.62v20.16h-15v-49.66h8.27c8.34 0 15.12-6.78 15.12-15.12s-6.78-15.12-15.12-15.12h-8.27v-30h8.27c24.88 0 45.12 20.24 45.12 45.12z"/><path d="m263.72 210.76h-7.89v-49.66h15v20.22c21.52 3.42 38.03 22.11 38.03 44.58h-30c0-8.35-6.79-15.14-15.14-15.14z"/></g></g></svg>