<svg height="480pt" viewBox="-56 0 480 480" width="480pt" xmlns="http://www.w3.org/2000/svg"><path d="m184 0 10.359375 7.535156c50.464844 36.695313 111.25 56.464844 173.640625 56.464844v151.535156c0 107.824219-61.921875 206.074219-159.191406 252.601563l-24.808594 11.863281" fill="#85b6cf"/><path d="m184 480-24.808594-11.863281c-97.269531-46.519531-159.191406-144.769531-159.191406-252.601563v-151.535156c62.390625 0 123.175781-19.769531 173.640625-56.464844l10.359375-7.535156" fill="#94cce7"/><path d="m128 304h-16c-8.839844 0-16-7.160156-16-16v-6.863281c0-21.214844 8.433594-41.570313 23.433594-56.570313l7.191406-7.191406c6-6 14.144531-9.375 22.621094-9.375h69.488281c8.488281 0 16.625 3.367188 22.625 9.375l7.191406 7.191406c15.015625 15 23.449219 35.355469 23.449219 56.570313v6.863281c0 8.839844-7.160156 16-16 16h-16" fill="#dcb29c"/><path d="m256 288v-6.863281c0-21.214844-8.433594-41.570313-23.433594-56.570313l-7.191406-7.191406c-6.007812-6.007812-14.144531-9.375-22.632812-9.375h-53.484376c-8.488281 0-16.625 3.367188-22.625 9.375l-7.191406 7.191406c-15.007812 15-23.441406 35.355469-23.441406 56.570313v6.863281c0 8.839844 7.160156 16 16 16h128c8.839844 0 16-7.160156 16-16zm0 0" fill="#f3c6b0"/><path d="m240 328-40 40h-32l-40-40v-40h112zm0 0" fill="#bab8b9"/><path d="m224 288h-96v40l40 40h16l40-40zm0 0" fill="#d9d7d8"/><path d="m136 384h-16c-8.839844 0-16-7.160156-16-16v-24c0-13.257812 10.742188-24 24-24s24 10.742188 24 24v24c0 8.839844-7.160156 16-16 16zm0 0" fill="#dcb29c"/><path d="m248 384h-16c-8.839844 0-16-7.160156-16-16v-24c0-13.257812 10.742188-24 24-24s24 10.742188 24 24v24c0 8.839844-7.160156 16-16 16zm0 0" fill="#dcb29c"/><path d="m136 368v-24c0-10.433594-6.695312-19.222656-16-22.527344-9.304688 3.304688-16 12.09375-16 22.527344v24c0 8.839844 7.160156 16 16 16s16-7.160156 16-16zm0 0" fill="#f3c6b0"/><path d="m248 368v-24c0-10.433594-6.695312-19.222656-16-22.527344-9.304688 3.304688-16 12.09375-16 22.527344v24c0 8.839844 7.160156 16 16 16s16-7.160156 16-16zm0 0" fill="#f3c6b0"/><path d="m136 248h16v40h-16zm0 0" fill="#dcb29c"/><path d="m216 248h16v40h-16zm0 0" fill="#dcb29c"/><path d="m192 120h-16v-24c0-4.414062 3.574219-8 8-8 4.414062 0 8-3.59375 8-8s-3.585938-8-8-8-8 3.59375-8 8h-16c0-13.230469 10.769531-24 24-24s24 10.769531 24 24c0 10.433594-6.6875 19.328125-16 22.632812zm0 0" fill="#5b6673"/><path d="m232 160c0 26.507812-21.492188 48-48 48s-48-21.492188-48-48 21.492188-48 48-48 48 21.492188 48 48zm0 0" fill="#dcb29c"/><path d="m216 160c0-26.113281-17.910156-47.28125-40-47.28125s-40 21.167969-40 47.28125 17.910156 47.28125 40 47.28125 40-21.167969 40-47.28125zm0 0" fill="#f3c6b0"/></svg>