<svg height="512" viewBox="0 0 60 59" width="512" xmlns="http://www.w3.org/2000/svg"><g id="Page-1" fill="none" fill-rule="evenodd"><g id="033---Pension-Data" fill-rule="nonzero"><path id="Shape" d="m27 6.687v-.687h-18v.687c-.03066227 1.72539595-1.1384124 3.24690334-2.771 3.806-3.14300744 1.1604984-5.22993426 4.1565894-5.229 7.507v37c0 1.6568542 1.34314575 3 3 3h28c1.6568542 0 3-1.3431458 3-3v-37c.0009343-3.3504106-2.0859926-6.3465016-5.229-7.507-1.6325876-.55909666-2.7403377-2.08060405-2.771-3.806z" fill="#9fc9d3"/><rect id="Rectangle-path" fill="#f0c419" height="4" rx="1" width="18" x="11" y="50"/><rect id="Rectangle-path" fill="#e57e25" height="4" rx="1" width="18" x="7" y="46"/><rect id="Rectangle-path" fill="#f0c419" height="4" rx="1" width="18" x="12" y="42"/><rect id="Rectangle-path" fill="#e57e25" height="4" rx="1" width="18" x="9" y="38"/><circle id="Oval" cx="18" cy="28" fill="#f0c419" r="10"/><path id="Shape" d="m31 2v3c0 .55228475-.4477153 1-1 1h-24c-.55228475 0-1-.44771525-1-1v-3c.0032948-1.10320187.89679813-1.9967052 2-2h22c1.1032019.0032948 1.9967052.89679813 2 2z" fill="#f0c419"/><path id="Shape" d="m14 11h-2c-.5522847 0-1-.4477153-1-1 0-.55228475.4477153-1 1-1h2c.5522847 0 1 .44771525 1 1 0 .5522847-.4477153 1-1 1z" fill="#fff"/><path id="Shape" d="m24 11h-6c-.5522847 0-1-.4477153-1-1 0-.55228475.4477153-1 1-1h6c.5522847 0 1 .44771525 1 1 0 .5522847-.4477153 1-1 1z" fill="#fff"/><g fill="#e57e25"><path id="Shape" d="m9 4v2h-2v-2c0-.55228475.44771525-1 1-1s1 .44771525 1 1z"/><path id="Shape" d="m13 4v2h-2v-2c0-.55228475.4477153-1 1-1s1 .44771525 1 1z"/><path id="Shape" d="m17 4v2h-2v-2c0-.55228475.4477153-1 1-1s1 .44771525 1 1z"/><path id="Shape" d="m21 4v2h-2v-2c0-.55228475.4477153-1 1-1s1 .44771525 1 1z"/><path id="Shape" d="m25 4v2h-2v-2c0-.55228475.4477153-1 1-1s1 .44771525 1 1z"/><path id="Shape" d="m29 4v2h-2v-2c0-.55228475.4477153-1 1-1s1 .44771525 1 1z"/><path id="Shape" d="m18 27c-.9038505.0022652-1.6961809-.6037115-1.9307046-1.4766086-.2345237-.8728972.1474227-1.7943701.9307046-2.2453914v.722c0 .5522847.4477153 1 1 1s1-.4477153 1-1v-.722c.6167513.3544126.997855 1.0106732 1 1.722 0 .5522847.4477153 1 1 1s1-.4477153 1-1c-.0068148-1.8184116-1.2393149-3.4034067-3-3.858v-.142c0-.5522847-.4477153-1-1-1s-1 .4477153-1 1v.142c-1.9482742.5014457-3.2190002 2.3742805-2.9650329 4.3699561.2539674 1.9956755 1.953264 3.4905487 3.9650329 3.4880439.9038505-.0022652 1.6961809.6037115 1.9307046 1.4766086.2345237.8728972-.1474227 1.7943701-.9307046 2.2453914v-.722c0-.5522847-.4477153-1-1-1s-1 .4477153-1 1v.722c-.6167513-.3544126-.997855-1.0106732-1-1.722 0-.5522847-.4477153-1-1-1s-1 .4477153-1 1c.0068148 1.8184116 1.2393149 3.4034067 3 3.858v.142c0 .5522847.4477153 1 1 1s1-.4477153 1-1v-.142c1.9482742-.5014457 3.2190002-2.3742805 2.9650329-4.3699561-.2539674-1.9956755-1.953264-3.4905487-3.9650329-3.4880439z"/></g><path id="Shape" d="m40 42h2c.5522847 0 1 .4477153 1 1v15h-4v-15c0-.5522847.4477153-1 1-1z" fill="#ff7b79"/><path id="Shape" d="m56 34h2c.5522847 0 1 .4477153 1 1v23h-4v-23c0-.5522847.4477153-1 1-1z" fill="#f1c53a"/><path id="Shape" d="m46.5 26h-2.566c-.1842759-.0000952-.3535623-.1015422-.4405407-.2639994-.0869784-.1624573-.0775482-.3595879.0245407-.5130006l5.066-7.6c.0927366-.1390776.2488395-.2226122.416-.2226122s.3232634.0835346.416.2226122l5.066 7.6c.1020889.1534127.1115191.3505433.0245407.5130006-.0869784.1624572-.2562648.2639042-.4405407.2639994h-2.566c-.2761424 0-.5.2238576-.5.5v31.5h-4v-31.5c0-.2761424-.2238576-.5-.5-.5z" fill="#7acbb7"/><path id="Rectangle-path" d="m47 46h4v7h-4z" fill="#238f7c"/><path id="Rectangle-path" d="m47 53h4v4h-4z" fill="#3c767e"/><path id="Rectangle-path" d="m47 39h4v7h-4z" fill="#009f84"/><path id="Rectangle-path" d="m39 46h4v7h-4z" fill="#ff5368"/><path id="Rectangle-path" d="m39 53h4v4h-4z" fill="#c43a32"/><path id="Rectangle-path" d="m55 39h4v7h-4z" fill="#f59c37"/><path id="Rectangle-path" d="m55 46h4v7h-4z" fill="#e87f35"/><path id="Rectangle-path" d="m55 53h4v4h-4z" fill="#d65732"/><path id="Rectangle-path" d="m47 32h4v7h-4z" fill="#00b99a"/><path id="Shape" d="m35 54v1c0 1.6568542-1.3431458 3-3 3h-28c-1.65685425 0-3-1.3431458-3-3v-1z" fill="#3b97d3"/><path id="Shape" d="m59 59h-58c-.55228475 0-1-.4477153-1-1s.44771525-1 1-1h58c.5522847 0 1 .4477153 1 1s-.4477153 1-1 1z" fill="#393f4a"/></g></g></svg>