<svg height="480pt" viewBox="0 0 480 480" width="480pt" xmlns="http://www.w3.org/2000/svg"><path d="m160 0h320v448h-320zm0 0" fill="#656665"/><path d="m128 32h320v448h-320zm0 0" fill="#bab8b9"/><path d="m96 224 2.511719 2.511719c24 24 56.558593 37.488281 90.503906 37.488281h2.984375v109.183594c0 26.753906-13.367188 51.726562-35.625 66.570312l-60.375 40.246094" fill="#5789d6"/><path d="m96 480-60.375-40.246094c-22.257812-14.84375-35.625-39.816406-35.625-66.570312v-109.183594h2.984375c33.945313 0 66.503906-13.488281 90.511719-37.488281l2.503906-2.511719" fill="#699ce6"/><path d="m160 368c0 35.347656-28.652344 64-64 64s-64-28.652344-64-64 28.652344-64 64-64 64 28.652344 64 64zm0 0" fill="#70b48f"/><path d="m416 168c0 57.4375-46.5625 104-104 104s-104-46.5625-104-104 46.5625-104 104-104 104 46.5625 104 104zm0 0" fill="#eebc5a"/><path d="m384 168c0 39.765625-32.234375 72-72 72s-72-32.234375-72-72 32.234375-72 72-72 72 32.234375 72 72zm0 0" fill="#f8cf6a"/><path d="m304 222.527344v25.472656h16v-25.472656c9.289062-3.3125 16-12.113282 16-22.527344v-16c0-13.230469-10.769531-24-24-24-4.40625 0-8-3.59375-8-8v-16c0-4.40625 3.59375-8 8-8s8 3.59375 8 8v8h16v-8c0-10.414062-6.710938-19.214844-16-22.527344v-25.472656h-16v25.472656c-9.289062 3.3125-16 12.113282-16 22.527344v16c0 13.230469 10.769531 24 24 24 4.40625 0 8 3.59375 8 8v16c0 4.40625-3.59375 8-8 8s-8-3.59375-8-8v-8h-16v8c0 10.414062 6.710938 19.214844 16 22.527344zm0 0" fill="#5b6673"/><path d="m352 160h16v16h-16zm0 0" fill="#5b6673"/><path d="m256 160h16v16h-16zm0 0" fill="#5b6673"/><path d="m24 280h16v16h-16zm0 0" fill="#efedee"/><path d="m92.871094 385.558594-15.214844-15.214844-11.3125 11.3125 24 24c1.511719 1.511719 3.558594 2.34375 5.65625 2.34375.558594 0 1.136719-.054688 1.695312-.175781 2.65625-.578125 4.839844-2.464844 5.800782-5.007813l24-64-14.984375-5.617187zm0 0" fill="#efedee"/><path d="m152 280h16v16h-16zm0 0" fill="#d9d7d8"/><g fill="#efedee"><path d="m216 296h208v16h-208zm0 0"/><path d="m216 328h208v16h-208zm0 0"/><path d="m216 360h208v16h-208zm0 0"/><path d="m216 392h208v16h-208zm0 0"/></g></svg>