<svg id="Capa_1" enable-background="new 0 0 512 512" height="512" viewBox="0 0 512 512" width="512" xmlns="http://www.w3.org/2000/svg"><g><g><g><g><g><g><g><g><circle cx="256" cy="256" fill="#7584f2" r="256"/></g></g></g></g></g></g></g><path d="m512 256c0-11.945-.818-23.698-2.401-35.208l-140.89-140.889-265.421 352.194 64.182 64.182c27.589 10.168 57.411 15.721 88.53 15.721 141.385 0 256-114.615 256-256z" fill="#4253ce"/><g><g><path d="m173.201 79.903-23.221 48.873-46.692 21.039v282.282h265.421v-352.194z" fill="#fff"/></g><g><path d="m235.643 79.903h133.066v352.194h-133.066z" fill="#e9edf5"/></g><g><path d="m173.201 149.815-.001-69.912-69.911 69.912z" fill="#636978"/></g></g><g><path d="m136.411 319.969h199.176v30h-199.176z" fill="#cdd2e1"/></g><g><path d="m235.643 319.969h99.944v30h-99.944z" fill="#afb4c8"/></g><g><path d="m136.411 265.887h199.176v30h-199.176z" fill="#cdd2e1"/></g><g><path d="m235.643 265.887h99.944v30h-99.944z" fill="#afb4c8"/></g><g><path d="m136.411 211.806h199.176v30h-199.176z" fill="#cdd2e1"/></g><g><path d="m235.643 211.806h99.944v30h-99.944z" fill="#afb4c8"/></g><g><g><g><path d="m449.48 368.456h-51.829l-28.942-15.535-28.941 15.535h-51.829v-121.18l80.77-59.133 80.771 59.133z" fill="#ffce00"/></g></g><g><g><path d="m368.709 188.16v164.773l28.942 15.523h51.829v-121.18z" fill="#fdba12"/></g></g><g><g><path d="m457.667 276.21-88.958-69.79-88.957 69.79-17.752-22.627 106.709-83.717 106.709 83.717z" fill="#636978"/></g></g><g><g><path d="m475.418 253.583-106.709-83.717v36.554l88.958 69.79z" fill="#414952"/></g></g><g><g><path d="m339.768 295.581h57.883v72.875h-57.883z" fill="#636978"/></g></g><g><g><path d="m368.709 295.581h28.942v72.875h-28.942z" fill="#414952"/></g></g></g></g></svg>