<svg height="512pt" viewBox="0 0 512 512" width="512pt" xmlns="http://www.w3.org/2000/svg" xmlns:xlink="http://www.w3.org/1999/xlink"><linearGradient id="a" gradientUnits="userSpaceOnUse" x1="74.9807" x2="437.0193" y1="74.9807" y2="437.0193"><stop offset=".0053" stop-color="#5bc980"/><stop offset="1" stop-color="#00ab5e"/></linearGradient><linearGradient id="b" gradientUnits="userSpaceOnUse" x1="160.7032" x2="339.4217" y1="230.7968" y2="409.5153"><stop offset="0" stop-color="#faecd8"/><stop offset="1" stop-color="#f4d7af"/></linearGradient><linearGradient id="c" gradientUnits="userSpaceOnUse" x1="248.7422" x2="341.5078" y1="124.9922" y2="217.7578"><stop offset="0" stop-color="#fdbf00"/><stop offset="1" stop-color="#ff9100"/></linearGradient><linearGradient id="d" gradientUnits="userSpaceOnUse" x1="78.4063" x2="154.3438" y1="274.3438" y2="350.2813"><stop offset=".0053" stop-color="#ff637b"/><stop offset="1" stop-color="#e63950"/></linearGradient><path d="m512 256c0 141.386719-114.613281 256-256 256s-256-114.613281-256-256 114.613281-256 256-256 256 114.613281 256 256zm0 0" fill="url(#a)"/><path d="m417 331.9375-100.5 75.0625h-98.625l-82.125-38.125-18.75-24.9375v-68.8125l18.75-19.375h68.4375l56.25 38.125h62.8125v37.5h-103.125v18.75h109.3125l65.25-48.375zm0 0" fill="url(#b)"/><path d="m295.125 87c-46.5 0-84.375 37.875-84.375 84.375s37.875 84.375 84.375 84.375 84.375-37.875 84.375-84.375-37.875-84.375-84.375-84.375zm0 0" fill="#ffda2d"/><path d="m360.75 171.375c0 36.1875-29.4375 65.625-65.625 65.625s-65.625-29.4375-65.625-65.625 29.4375-65.625 65.625-65.625 65.625 29.4375 65.625 65.625zm0 0" fill="url(#c)"/><path d="m285.75 143.25v18.75h37.5v56.25h-18.75v28.125h-18.75v-28.125h-18.75v-18.75h37.5v-18.75h-37.5v-56.25h18.75v-28.125h18.75v28.125h18.75v18.75zm0 0" fill="#ffda2d"/><path d="m97 255.75h38.75v113.125h-38.75zm0 0" fill="url(#d)"/></svg>