<svg height="512" viewBox="0 0 511.995 511.995" width="512" xmlns="http://www.w3.org/2000/svg"><path d="M365.462 448.343H77.204c-25.333 0-45.869-20.536-45.869-45.869V45.869C31.335 20.536 51.871 0 77.204 0h288.258c25.333 0 45.869 20.536 45.869 45.869v356.605c0 25.332-20.536 45.869-45.869 45.869z" fill="#dd636e"/><path d="M103.732 448.345H77.21c-25.335 0-45.869-20.534-45.869-45.869V45.864C31.341 20.539 51.875.005 77.21.005h26.522c-25.335 0-45.87 20.534-45.87 45.859v356.612c0 25.335 20.535 45.869 45.87 45.869z" fill="#da4a54"/><path d="M370.035 358.002V90.34c-27.086 0-49.044-21.958-49.044-49.044H121.675c0 27.086-21.958 49.044-49.044 49.044v267.662c27.086 0 49.044 21.958 49.044 49.044H320.99c.001-27.086 21.958-49.044 49.045-49.044z" fill="#f9f6f9"/><path d="M297.303 229.732h-151.94a7.726 7.726 0 110-15.452h151.94c4.268 0 7.726 3.459 7.726 7.726s-3.458 7.726-7.726 7.726zm16.778 38.903H128.585a7.726 7.726 0 110-15.452H314.08c4.268 0 7.726 3.459 7.726 7.726s-3.458 7.726-7.725 7.726zm0 39.93H128.585a7.726 7.726 0 110-15.452H314.08c4.268 0 7.726 3.459 7.726 7.726s-3.458 7.726-7.725 7.726zm-44.357 39.931h-96.781a7.726 7.726 0 110-15.452h96.781a7.726 7.726 0 110 15.452z" fill="#ffe07d"/><path d="M366.137 511.988a35.737 35.737 0 01-28.239-13.841l-59.754-77.077c-12.092-15.598-9.25-38.046 6.348-50.138 15.6-12.093 38.047-9.25 50.139 6.347l26.824 34.601 52.346-92.688c9.707-17.185 31.503-23.249 48.691-13.543 17.185 9.706 23.248 31.505 13.543 48.69l-78.776 139.487a35.737 35.737 0 01-31.122 18.162z" fill="#b3e59f"/><path d="M475.124 317.667c-.5-.334-1.024-.643-1.548-.941-17.189-9.708-38.988-3.645-48.697 13.544l-52.342 92.688-11.078-11.078 52.342-92.688c9.708-17.189 31.508-23.252 48.697-13.544 5.336 3.013 9.588 7.183 12.626 12.019zm-83.375 183.5a35.643 35.643 0 01-25.611 10.828 35.74 35.74 0 01-28.244-13.842l-59.751-77.083c-12.091-15.593-9.256-38.035 6.349-50.138a35.386 35.386 0 0115.212-6.861c-12.246 12.555-13.675 32.544-2.621 46.803l59.751 77.083a35.758 35.758 0 0028.244 13.842c.858 0 1.727-.036 2.597-.095a32.976 32.976 0 004.074-.537z" fill="#95d6a4"/><path d="M238.429 97.506l-17.096 17.096-17.096-17.096c-11.01-11.01-28.859-11.01-39.869 0-11.009 11.009-11.01 28.859 0 39.869l17.096 17.096 39.869 39.869 39.869-39.869 17.096-17.096c11.01-11.01 11.009-28.859 0-39.869-11.01-11.009-28.86-11.009-39.869 0z" fill="#dd636e"/></svg>