<svg height="512" viewBox="0 0 511.992 511.992" width="512" xmlns="http://www.w3.org/2000/svg"><linearGradient id="a" gradientUnits="userSpaceOnUse" x1="255.996" x2="255.996" y1="460.789" y2="300"><stop offset="0" stop-color="#c3ffe8"/><stop offset=".997" stop-color="#f0fff4"/></linearGradient><linearGradient id="b" gradientUnits="userSpaceOnUse" x1="255.996" x2="255.996" y1="511.992" y2="0"><stop offset="0" stop-color="#00b59c"/><stop offset="1" stop-color="#9cffac"/></linearGradient><linearGradient id="c" gradientUnits="userSpaceOnUse" x1="255.996" x2="255.996" y1="270" y2="60"><stop offset="0" stop-color="#9bff9d"/><stop offset=".997" stop-color="#e2ffea"/><stop offset="1" stop-color="#e2ffea"/></linearGradient><path d="M255.996 460.789c-8.284 0-15-6.716-15-15L240.995 315c0-8.284 6.716-15 15-15s15 6.716 15 15l.001 130.789c0 8.284-6.716 15-15 15z" fill="url(#a)"/><path d="M255.996 330c90.981 0 165-74.019 165-165s-74.019-165-165-165-165 74.019-165 165 74.019 165 165 165zm199.661-11.762a14.987 14.987 0 00-13.387-5.104c-4.645.624-114.341 15.805-166.812 60.779-8.22 7.046-14.573 14.391-19.463 21.765-4.89-7.375-11.243-14.719-19.463-21.765-52.471-44.975-162.167-60.155-166.812-60.779a14.993 14.993 0 00-13.387 5.104 14.997 14.997 0 00-2.997 14.01c1.327 4.494 33.106 110.579 85.577 155.553 21.869 18.745 43.817 24.19 61.94 24.19 6.989 0 13.412-.811 19.038-1.98 19.345-4.023 32.753-12.831 36.103-15.199 3.35 2.368 16.758 11.176 36.103 15.199a93.62 93.62 0 0019.038 1.98c18.122 0 40.073-5.448 61.94-24.19 52.471-44.974 84.25-151.059 85.577-155.553a14.991 14.991 0 00-2.995-14.01z" fill="url(#b)"/><path d="M300.352 163.983c-8.32-6.239-18.426-10.536-29.355-12.593v-44.054c11.61 3.752 20 11.58 20 20.164 0 8.284 6.716 15 15 15s15-6.716 15-15c0-14.638-7.524-28.676-20.645-38.517-8.32-6.239-18.426-10.536-29.355-12.593V75c0-8.284-6.716-15-15-15s-15 6.716-15 15v1.391c-10.929 2.057-21.036 6.354-29.355 12.593-13.12 9.84-20.645 23.879-20.645 38.517s7.524 28.676 20.645 38.517c8.32 6.239 18.426 10.536 29.355 12.593v44.054c-11.61-3.752-20-11.58-20-20.164 0-8.284-6.716-15-15-15s-15 6.716-15 15c0 14.638 7.524 28.676 20.645 38.517 8.32 6.239 18.426 10.536 29.355 12.593V255c0 8.284 6.716 15 15 15s15-6.716 15-15v-1.391c10.929-2.057 21.036-6.354 29.355-12.593 13.12-9.84 20.645-23.879 20.645-38.517s-7.525-28.675-20.645-38.516zm-59.356-16.319c-11.61-3.752-20-11.58-20-20.164s8.39-16.411 20-20.164zm30 75v-40.327c11.61 3.752 20 11.58 20 20.164s-8.39 16.41-20 20.163z" fill="url(#c)"/></svg>