<svg width="427" height="86" viewBox="0 0 427 86" fill="none" xmlns="http://www.w3.org/2000/svg">
<path d="M42.667 85.334C66.2313 85.334 85.334 66.2313 85.334 42.667C85.334 19.1027 66.2313 0 42.667 0C19.1027 0 0 19.1027 0 42.667C0 66.2313 19.1027 85.334 42.667 85.334Z" fill="white"/>
<path d="M213.333 85.334C236.897 85.334 256 66.2313 256 42.667C256 19.1027 236.897 0 213.333 0C189.769 0 170.666 19.1027 170.666 42.667C170.666 66.2313 189.769 85.334 213.333 85.334Z" fill="white"/>
<path d="M384 85.334C407.564 85.334 426.667 66.2313 426.667 42.667C426.667 19.1027 407.564 0 384 0C360.436 0 341.333 19.1027 341.333 42.667C341.333 66.2313 360.436 85.334 384 85.334Z" fill="white"/>
</svg>
